<?xml version="1.0" encoding="UTF-8"?>
<svg width="8px" height="8px" viewBox="0 0 8 8" version="1.1" xmlns="http://www.w3.org/2000/svg" xmlns:xlink="http://www.w3.org/1999/xlink">
    <title>Icon Color</title>
    <g id="🔄-Symbols" stroke="none" stroke-width="1" fill="none" fill-rule="evenodd">
        <g id="icon-font/default" fill="#F8F9FA">
            <path d="M7.83443269,3.53292562 L7.29444217,2.86285821 C7.20776991,2.75159248 7.15422218,2.61814065 7.13994488,2.47781948 L7.04494655,1.62873406 C7.00530724,1.27934844 6.72977264,1.00357393 6.38045821,0.96366716 L5.53097312,0.868657602 C5.38097576,0.853656093 5.25097804,0.789149604 5.14097997,0.704141052 L4.47199171,0.164586774 C4.19745355,-0.054862258 3.80754636,-0.054862258 3.5330082,0.164586774 L2.86301996,0.704641102 C2.75182359,0.791502947 2.61838274,0.845232233 2.47802672,0.859656697 L1.62904162,0.954666254 C1.27904776,0.994670279 1.00405259,1.26969795 0.964053294,1.61923311 L0.869054961,2.46881857 C0.854055225,2.61883367 0.789556357,2.74884675 0.704557849,2.85885781 L0.164567328,3.52742507 C-0.054855776,3.80199567 -0.054855776,4.19194894 0.164567328,4.46651954 L0.704557849,5.13658695 C0.789556357,5.24659801 0.844555391,5.37661109 0.859555128,5.52162568 L0.954553461,6.3707111 C0.994552758,6.72074631 1.26954793,6.99577398 1.6190418,7.035778 L2.46852688,7.13078756 C2.61852425,7.14578907 2.74852197,7.21029556 2.85852004,7.29530411 L3.52800829,7.83535844 C3.80300346,8.05488052 4.19249662,8.05488052 4.4669918,7.83535844 L5.13698004,7.29530411 C5.24697811,7.21029556 5.37697583,7.15529002 5.52197328,7.14028851 L6.37095838,7.04527896 C6.72095224,7.00527493 6.99594741,6.73024727 7.03594671,6.3807121 L7.13094504,5.53112664 C7.14594478,5.38111155 7.21044364,5.25109847 7.29544215,5.1410874 L7.83543267,4.47152004 C8.05485578,4.19694944 8.05485578,3.80699617 7.83543267,3.53242557 L7.83443269,3.53292562 Z M3.25251312,6.00117392 L1.50354382,4.25249801 L2.25353066,3.50242255 L3.25251312,4.50252316 L5.75096926,2.00327174 L6.50045611,2.77834971 L3.25251312,6.00117392 L3.25251312,6.00117392 Z" id="Icon-Color"></path>
        </g>
    </g>
</svg>