<svg xmlns="http://www.w3.org/2000/svg" width="668" height="448" viewBox="0 0 668 448">
  <g id="Illustration" transform="translate(668 0)">
    <path id="Path" d="M-157.837,13.914h.016a.146.146,0,0,0,.073-.016l.012-.006a63.6,63.6,0,0,1,6.383-2.81c2.159-.822,4.4-1.617,6.573-2.255l-.177.026h.032a.507.507,0,0,0,.16-.021l.044-.013a131.5,131.5,0,0,1,35.477-5.981,146.329,146.329,0,0,1,17.988.574l18.122,1.533c12.085.976,24.193,1.674,36.294,2.445,12.1.734,24.2,1.53,36.286,2.538L-.813,9a35.144,35.144,0,0,0-5.83,5.341A32.412,32.412,0,0,0-11,20.954a40.638,40.638,0,0,0-2.7,7.453,46.213,46.213,0,0,0-1.188,7.833A64.62,64.62,0,0,0-13.833,52,76.921,76.921,0,0,0-9.426,67.222l1.439-1.854c-8.5-1.608-17-3.23-25.513-4.775L-59.027,55.9l1.395,1.258-.185-.549.056.149a17.844,17.844,0,0,0-7.2-9.532,18.95,18.95,0,0,0-11.51-3.11,18.121,18.121,0,0,0-11,4.656,6.524,6.524,0,0,0-1.067,1.083l-.986,1.16a27.09,27.09,0,0,0-1.633,2.546c-.472.871-.794,1.768-1.2,2.651-.187.444-.39.884-.562,1.332l-.421,1.37a66.137,66.137,0,0,0-2.309,22.287,116.79,116.79,0,0,0,3.1,21.969l1.276-1.282-17.16-3.593-17.2-3.441a.17.17,0,0,0-.125.024.169.169,0,0,0-.073.1.17.17,0,0,0,.021.126.17.17,0,0,0,.1.076l16.96,4.453,16.99,4.324a1.064,1.064,0,0,0,.521,0,1.059,1.059,0,0,0,.456-.252,1.052,1.052,0,0,0,.279-.44,1.053,1.053,0,0,0,.034-.521l-.014-.069a131.947,131.947,0,0,1-2.341-21.569,63.176,63.176,0,0,1,2.685-21.139l.4-1.25c.16-.4.35-.792.522-1.189.366-.776.673-1.611,1.082-2.34.463-.677.825-1.429,1.35-2.053l.8-.92a4.519,4.519,0,0,1,.862-.857,14.567,14.567,0,0,1,8.852-3.622,15.337,15.337,0,0,1,9.305,2.5,14.612,14.612,0,0,1,5.824,7.618l.056.15a.618.618,0,0,0,.039.124l.114.259a1.732,1.732,0,0,0,.516.66,1.729,1.729,0,0,0,.765.34l25.59,4.337c8.527,1.464,17.067,2.851,25.6,4.253a1.333,1.333,0,0,0,.7-.075,1.334,1.334,0,0,0,.567-.424,1.336,1.336,0,0,0,.27-.654,1.337,1.337,0,0,0-.1-.7,81.365,81.365,0,0,1-4.725-14.556,60.752,60.752,0,0,1-1.551-15.251,44.762,44.762,0,0,1,.905-7.606,34.365,34.365,0,0,1,2.463-7.233,31.269,31.269,0,0,1,4.125-6.42A34.088,34.088,0,0,1-.212,9.83L-.2,9.819a.512.512,0,0,0,.173-.248.513.513,0,0,0,0-.3A.512.512,0,0,0-.19,9.016.512.512,0,0,0-.471,8.9c-12.084-.983-24.152-2.169-36.213-3.431-12.064-1.223-24.123-2.519-36.2-3.538L-91.015.477A131.41,131.41,0,0,0-109.362.2a121.753,121.753,0,0,0-18.182,2.391,114.615,114.615,0,0,0-17.585,5.052l.2-.034h-.08a.434.434,0,0,0-.129.024c-2.266.81-4.386,1.711-6.544,2.676a53.53,53.53,0,0,0-6.227,3.29l.084-.022h-.016a.169.169,0,0,0-.115.052.17.17,0,0,0-.047.118.17.17,0,0,0,.047.118.169.169,0,0,0,.115.052Z" transform="translate(-9 77)"/>
    <path id="Path-2" data-name="Path" d="M-48.976,34A37.287,37.287,0,0,1-43.3,20.314,33.01,33.01,0,0,1-38.545,14.9a42.664,42.664,0,0,1,5.763-4.316A59.665,59.665,0,0,1-19.489,4.722,91.294,91.294,0,0,1-5.08,1.526l.094-.009Q-2.483.806,0,0C-1.737.087-3.467.213-5.19.368L-5.1.358a54.151,54.151,0,0,0-15.155,1.47A47.044,47.044,0,0,0-34.522,7.7,31.635,31.635,0,0,0-45.411,18.952,28.553,28.553,0,0,0-48.976,34Z" transform="translate(-192 102)"/>
    <path id="Path-3" data-name="Path" d="M0,9.454C-2.956,8.346-5.944,7.382-8.953,6.507S-14.982,4.8-18.02,4.051c-3.029-.79-6.091-1.435-9.141-2.132C-30.228,1.3-33.289.644-36.38.121L-37.094,0l-.449.332A24.464,24.464,0,0,0-41.034,3.51a31.087,31.087,0,0,0-2.877,3.537A31.906,31.906,0,0,0-46.25,10.9,28.143,28.143,0,0,0-48,15q1.328-1.8,2.735-3.483c.951-1.121,1.911-2.24,2.912-3.255C-41.331,7.233-40.285,6.237-39.2,5.3a38.6,38.6,0,0,1,3.33-2.537l-1.163.211C-34,3.76-30.945,4.42-27.9,5.119c3.067.622,6.122,1.3,9.211,1.825q4.618.859,9.286,1.5C-6.29,8.889-3.162,9.243,0,9.454Z" transform="translate(-81 112)"/>
    <path id="Path-4" data-name="Path" d="M0,0A34.114,34.114,0,0,0-8.218,12.036a48.42,48.42,0,0,0-3.618,14.377,53.858,53.858,0,0,0,.884,14.775c.118.6.208,1.212.348,1.81l.5,1.774,1.045,3.518c.844,2.293,1.832,4.529,2.867,6.71-.337-2.434-.894-4.767-1.281-7.127l-.489-3.547-.269-1.758c-.073-.588-.094-1.183-.144-1.772-.081-1.182-.173-2.358-.295-3.529-.086-1.174-.041-2.355-.069-3.528a64.785,64.785,0,0,1,.226-7.02A66.807,66.807,0,0,1-5.794,12.974,58.036,58.036,0,0,1,0,0Z" transform="translate(-38 84)"/>
    <path id="Path-5" data-name="Path" d="M-5.141,2.567C-7.744,1.687-10.364.821-13,0a20.95,20.95,0,0,1,.231,2.94c2.257.642,4.531,1.254,6.821,1.851C-4.4,5.194-2.85,5.6-1.285,6q.321-.448.643-.851C-.429,4.866-.2,4.6,0,4.343-1.714,3.731-3.427,3.149-5.141,2.567Z" transform="translate(-125 117)"/>
    <path id="Path-6" data-name="Path" d="M-8,3c1.964.671,3.9,1.342,5.859,2h.016A16.156,16.156,0,0,1,0,2.332l-.724-.24C-2.9,1.39-5.07.687-7.244,0-7.5,1.086-7.775,2.093-8,3Z" transform="translate(-147 111)"/>
    <path id="Path-7" data-name="Path" d="M-35.409,3.164C-38.6,2.1-41.793,1.033-45,0a10.719,10.719,0,0,1,.492,3.41c2.683.984,5.4,1.918,8.1,2.869,5.986,2.016,12,4,18.07,5.787q4.216,1.279,8.479,2.443C-6.59,15.41-3.319,16.262,0,17c-1.318-.607-2.636-1.213-3.97-1.8-.016,0-.016,0-.032-.016-4.478-1.967-9.019-3.787-13.56-5.541C-23.469,7.344-29.439,5.246-35.409,3.164Z" transform="translate(-109 100)"/>
    <path id="Path-8" data-name="Path" d="M-3,1.7c.259.106.518.212.777.3A8.169,8.169,0,0,1,0,.682L-2.467,0C-2.665.636-2.848,1.212-3,1.7Z" transform="translate(-166 96)"/>
    <path id="Path-9" data-name="Path" d="M-18.125,57c35.73-32.9,7.609-57,7.609-57C-35.488,18.242-18.125,57-18.125,57Z" transform="translate(0 86)"/>
    <path id="Path-10" data-name="Path" d="M-32.218,57.011C-2.338,65.918,0,11.749,0,11.749q-.053-.167-.106-.331C-4.6-2.374-23.856-4.158-30.5,8.738-39.5,26.212-32.218,57.011-32.218,57.011Z" transform="translate(-69 123)"/>
    <path id="Path-11" data-name="Path" d="M-33.094,35.529c4.924,12.165,9.962,24.2,14.6,36.356A313.45,313.45,0,0,1-6.541,108.667a82.607,82.607,0,0,1,1.75,9.309,30.918,30.918,0,0,1-.041,9.145,12.912,12.912,0,0,1-1.427,4.064,8.788,8.788,0,0,1-2.884,2.958,14,14,0,0,1-8.746,1.312,55.23,55.23,0,0,1-18-6.5c-1.416-.787-2.835-1.563-4.234-2.385l-4.135-2.579c-2.79-1.66-5.406-3.6-8.083-5.426-2.667-1.842-5.2-3.873-7.8-5.792l-3.777-3.053c-1.257-1.016-2.551-1.984-3.764-3.055-2.438-2.127-4.976-4.119-7.347-6.314l-3.615-3.218-3.522-3.32q-7.015-6.664-13.5-13.856c-4.352-4.758-8.529-9.674-12.606-14.672a348.787,348.787,0,0,1-22.8-31.361q-5.278-8.168-10.129-16.641c-3.239-5.643-6.339-11.392-9.162-17.284L-151,.226a186.97,186.97,0,0,0,15.357,36.417A234.845,234.845,0,0,0-113.88,69.806a222.053,222.053,0,0,0,27.41,28.73l3.744,3.263,3.849,3.137c2.549,2.111,5.217,4.074,7.884,6.028s5.446,3.755,8.2,5.581c2.83,1.712,5.587,3.523,8.464,5.138s5.71,3.289,8.641,4.79c2.905,1.541,5.8,3.093,8.771,4.532a72.133,72.133,0,0,0,18.74,6.624,17.108,17.108,0,0,0,10.358-1.047,11.786,11.786,0,0,0,4.248-3.614A17.353,17.353,0,0,0-1.22,128.03a34.706,34.706,0,0,0,1.2-10.373,69.834,69.834,0,0,0-1.016-10.118,117.875,117.875,0,0,0-5.224-19.3c-2.189-6.257-4.691-12.374-7.408-18.38-1.33-3.015-2.777-5.977-4.233-8.926s-2.967-5.873-4.534-8.764C-25.561,46.388-28.854,40.7-32.5,35.209Z" transform="translate(-91 138)"/>
    <path id="Path-12" data-name="Path" d="M0,8C-9.2,6.658-18.421,5.638-27.653,4.731c-9.23-.927-18.475-1.663-27.722-2.362C-64.627,1.73-73.882,1.133-83.152.726-92.421.3-101.7-.013-111,0c9.2,1.346,18.421,2.368,27.652,3.274,9.23.926,18.475,1.662,27.723,2.357,9.252.634,18.508,1.231,27.778,1.637C-18.579,7.7-9.3,8.009,0,8Z" transform="translate(-44 85)"/>
    <path id="Path-13" data-name="Path" d="M-35.506,178c1.323-11.732,2.6-23.483,3.735-35.246l.436-4.411.218-2.205c.022-.172.029-.394.063-.526a2.311,2.311,0,0,0,.1-.32,9,9,0,0,1,.377-.866c1.3-2.47,3.014-4.94,4.6-7.407,3.239-4.935,6.363-10,9.156-15.266,1.382-2.644,2.683-5.339,3.821-8.12,1.125-2.817,2.069-5.622,3.047-8.391,1.963-5.561,3.909-11.127,5.782-16.719l2.842-8.376.711-2.094A11.04,11.04,0,0,0-.068,65.6a10.022,10.022,0,0,0-.7-5A7.454,7.454,0,0,0-4.247,56.7a7.145,7.145,0,0,0-5.213-.209,22.891,22.891,0,0,0-7.848,4.954l1.756.987a84.641,84.641,0,0,0,.781-8.591c.055-1.435.064-2.885.007-4.322-.122-1.448-.18-2.919-.424-4.356a10.463,10.463,0,0,0-1.6-4.289,3.769,3.769,0,0,0-2.1-1.489,4.838,4.838,0,0,0-2.462.136,12.3,12.3,0,0,0-6.761,5.618l.51-.278h-.016l-.331,0-.176.27a47.453,47.453,0,0,0-2.66,4.878A16.347,16.347,0,0,1-32.069,52.3c-.3.358-.3.353-.728.378a.667.667,0,0,1-.39-.08.665.665,0,0,1-.274-.288,5.394,5.394,0,0,1-.349-2.406,25.551,25.551,0,0,1,.211-2.682,39.044,39.044,0,0,1,1.06-5.328,52.475,52.475,0,0,0,1.173-5.408,17.2,17.2,0,0,0,.077-5.642,7.839,7.839,0,0,0-1.062-2.735,6.126,6.126,0,0,0-2.185-2.029A10.953,10.953,0,0,0-40.161,25l.1,0a9.645,9.645,0,0,0-2.48.082,10.644,10.644,0,0,0-2.364.669,9.156,9.156,0,0,0-3.851,3.038l.062-.072a.78.78,0,0,0-.21.5l.012,2.724,1.25-2.424.016-.031.016-.03.027-.076a78.143,78.143,0,0,0,4.489-18.4,22.341,22.341,0,0,0-.067-4.9A7.732,7.732,0,0,0-45.38,1.271,5.3,5.3,0,0,0-48.021.044a6.542,6.542,0,0,0-2.812.286,12.814,12.814,0,0,0-4.346,2.726,39.368,39.368,0,0,0-6.144,7.481,90.258,90.258,0,0,0-4.806,8.236,85.068,85.068,0,0,0-7.134,17.682c-1.628,6.082-3.165,12.108-5.253,17.924-2.106,5.743-4.647,11.523-8.69,15.711a12.361,12.361,0,0,1-7.136,3.867,14.7,14.7,0,0,1-4.227-.172,34.386,34.386,0,0,1-4.4-.9,37.919,37.919,0,0,1-8.331-3.358,33.9,33.9,0,0,1-7.158-5.233l-1.724-1.712-.918,2.1a23.423,23.423,0,0,0-1.791,7.4,31.157,31.157,0,0,0,.263,7.408,37.634,37.634,0,0,0,5.164,13.663,27.685,27.685,0,0,0,4.664,5.757,34.446,34.446,0,0,0,5.986,4.267c2.108,1.184,4.268,2.168,6.247,3.271a12.27,12.27,0,0,1,4.794,4.136,13.618,13.618,0,0,1,1.554,6.231q.232,3.465.27,6.977c.058,4.674-.031,9.363-.2,14.049s-.363,9.377-.667,14.061c-.332,4.676-.59,9.384-1.377,13.991l.311.072c1-4.624,1.468-9.306,2.011-13.982.5-4.679.947-9.365,1.257-14.063s.547-9.4.634-14.125q.067-3.543-.057-7.113a15.757,15.757,0,0,0-1.673-7.323,14.665,14.665,0,0,0-5.6-5.11c-2.1-1.222-4.21-2.228-6.178-3.385a31.663,31.663,0,0,1-5.4-3.995,24.754,24.754,0,0,1-4.076-5.24,34.725,34.725,0,0,1-4.513-12.617,27.963,27.963,0,0,1-.211-6.64,20.821,20.821,0,0,1,1.489-6.24l-2.644.383A39.165,39.165,0,0,0-103.844,76.1a37.69,37.69,0,0,0,4.8,1c.827.089,1.585.245,2.47.277l1.329.04c.444-.026.889-.078,1.334-.12a15.378,15.378,0,0,0,9.109-4.85c4.65-4.966,7.129-11.049,9.274-17.014,2.087-6.015,3.584-12.172,5.135-18.213.394-1.505.789-3,1.265-4.424.485-1.448,1.033-2.891,1.606-4.326,1.147-2.87,2.412-5.7,3.792-8.476a88.02,88.02,0,0,1,4.519-8.084,38.917,38.917,0,0,1,5.6-7.143,10.742,10.742,0,0,1,3.479-2.362A4.429,4.429,0,0,1-48.31,2.15a3.2,3.2,0,0,1,1.584.68,5.841,5.841,0,0,1,1.659,3.543,20.554,20.554,0,0,1,.18,4.48A76.381,76.381,0,0,1-48.86,29l.041-.106-.015.032,1.262.3a.589.589,0,0,1-.043.236.589.589,0,0,1-.134.2l.062-.072a7.849,7.849,0,0,1,3.264-2.714,8.8,8.8,0,0,1,4.208-.717l.063.006h.037a9.871,9.871,0,0,1,5.041.9,5.561,5.561,0,0,1,1.83,1.684,5.561,5.561,0,0,1,.913,2.313,16.24,16.24,0,0,1-.037,5.289,51.581,51.581,0,0,1-1.108,5.329A44.41,44.41,0,0,0-34.6,47.1a26.6,26.6,0,0,0-.252,2.787A6.154,6.154,0,0,0-34.4,52.85a1.925,1.925,0,0,0,.664.662,1.922,1.922,0,0,0,.9.269,1.925,1.925,0,0,0,.919-.187,1.925,1.925,0,0,0,.721-.6,16.848,16.848,0,0,0,1.438-2.466A46.431,46.431,0,0,1-27.109,45.8l-.506.272h.016l.329,0,.181-.28A10.656,10.656,0,0,1-21,40.85a2.426,2.426,0,0,1,1.664-.095,2.427,2.427,0,0,1,1.332,1A9.069,9.069,0,0,1-16.8,45.428c.189,1.368.2,2.745.274,4.125.014,1.4-.037,2.79-.133,4.189a83.889,83.889,0,0,1-1.005,8.337l-.49,2.845,2.246-1.859A20.888,20.888,0,0,1-8.794,58.8a4.7,4.7,0,0,1,3.423.169A5.109,5.109,0,0,1-3.2,61.622a7.368,7.368,0,0,1,.468,3.68,8.334,8.334,0,0,1-.438,1.854l-.731,2.09-2.924,8.36c-1.971,5.566-3.869,11.158-5.75,16.754-.953,2.806-1.863,5.607-2.9,8.28-1.066,2.694-2.3,5.332-3.623,7.933-2.657,5.2-5.739,10.2-8.833,15.211-1.53,2.541-3.136,4.971-4.511,7.759a10.136,10.136,0,0,0-.463,1.177c-.061.251-.114.505-.159.756-.035.23-.032.38-.05.574l-.156,2.2-.311,4.407c-.855,11.756-1.578,23.522-2.249,35.309Z" transform="translate(-122 70)"/>
    <path id="Path-14" data-name="Path" d="M-7,18,0,.582-1.44,0Z" transform="translate(-169 99)"/>
    <path id="Shape" d="M-183.2,83.5l22.626-6.818,22.688-6.619c7.562-2.207,15.143-4.348,22.758-6.347q5.7-1.543,11.44-2.91c1.922-.4,3.831-.914,5.765-1.219l2.9-.52,2.884-.227c5.913,2.511,12.074,4.622,18.246,6.558A175.285,175.285,0,0,0-55.018,70.1a95.285,95.285,0,0,0,19.483,1.946,53.256,53.256,0,0,0,9.887-1.017,28.177,28.177,0,0,0,9.379-3.616c4.881-2.442,9.79-4.832,14.645-7.328L0,59.251l-.977-1.41a2.115,2.115,0,0,0-.437-.5,2.072,2.072,0,0,0-.264-.211c-.147-.1-.321-.235-.45-.3-.271-.149-.56-.333-.816-.443-.53-.263-1.053-.487-1.568-.683-1.035-.4-2.062-.763-3.094-1.069-2.057-.654-4.126-1.148-6.2-1.633q-6.207-1.435-12.457-2.427c-4.164-.7-8.334-1.318-12.509-1.886-4.062-.577-8.132-1.059-12.2-1.569l-8.306-9.528c-2.852-3.27-5.6-6.591-8.549-9.824A85.382,85.382,0,0,0-88.279,11.615a90.1,90.1,0,0,0-11.862-5.523A98.446,98.446,0,0,0-112.7,2.4,77.438,77.438,0,0,0-138.864.32,53.636,53.636,0,0,0-163.5,9.945a57.28,57.28,0,0,0-17.23,20.218,61.093,61.093,0,0,0-4.7,12.548l-.715,3.283c-.2,1.087-.39,2.166-.554,3.256q-.52,3.26-.843,6.558a81.1,81.1,0,0,0-.323,13.289,52.437,52.437,0,0,0,2.435,13.235l.553,1.667Z" transform="translate(-321)"/>
    <path id="Path-15" data-name="Path" d="M-37,0c3.036,3.583,6.148,7.066,9.274,10.529L-18.358,20.9q4.683,5.178,9.293,10.421C-6.015,34.842-3,38.38,0,42A88.5,88.5,0,0,0-7.631,30.153c-2.806-3.771-5.856-7.341-8.97-10.846-3.157-3.468-6.412-6.84-9.807-10.07A135.037,135.037,0,0,0-37,0Z" transform="translate(-416 10)"/>
    <path id="Path-16" data-name="Path" d="M0,0A123.949,123.949,0,0,0-6.669,14.167,154.86,154.86,0,0,0-11.79,28.985a124.546,124.546,0,0,0-3.38,15.34A71.024,71.024,0,0,0-15.834,60a149.714,149.714,0,0,1,2.49-15.343c1.111-5.045,2.418-10.044,3.837-15.015,1.4-4.978,2.99-9.905,4.576-14.842C-3.3,9.879-1.694,4.938,0,0Z" transform="translate(-469 12)"/>
    <path id="Path-17" data-name="Path" d="M0,0A75.183,75.183,0,0,0-8.415.59c-2.785.313-5.544.763-8.3,1.24-2.747.52-5.487,1.07-8.2,1.757A74.376,74.376,0,0,0-33,6a74.384,74.384,0,0,0,8.416-.586c2.784-.314,5.543-.764,8.3-1.243,2.745-.523,5.486-1.073,8.2-1.76A75.219,75.219,0,0,0,0,0Z" transform="translate(-373 48)"/>
    <path id="Path-18" data-name="Path" d="M-21.991,0c-.044,2.385.08,4.766.247,7.151a46.371,46.371,0,0,0,1.012,7.15,11.388,11.388,0,0,0,1.4,3.6c.6.907,1.181,1.967,1.762,2.977,1.169,2.039,2.3,4.114,3.427,6.188q3.418,6.2,6.725,12.464c1.081,2.1,2.2,4.171,3.237,6.279.52,1.052,1.014,2.113,1.5,3.167.235.528.462,1.058.656,1.58.087.256.191.525.242.754a1.472,1.472,0,0,1,.065.3c0,.019.019.115.019.073a.241.241,0,0,1,.029-.114.225.225,0,0,1,.08-.085l.43-.306a8.7,8.7,0,0,1-2.441.233,13.762,13.762,0,0,1-2.6-.356,21.332,21.332,0,0,1-2.565-.783,24.605,24.605,0,0,1-2.482-1.121l-.118-.06-.078.016A5.031,5.031,0,0,0-13.7,50.153,4,4,0,0,0-14.967,52.2a3.8,3.8,0,0,1,1.49-1.74,4.549,4.549,0,0,1,2.09-.7l-.2-.045A20.09,20.09,0,0,0-6.543,52.28a15.132,15.132,0,0,0,2.822.634,8.859,8.859,0,0,0,3.049-.1l.288-.065.141-.242a1.918,1.918,0,0,0,.23-.628,1.784,1.784,0,0,0,0-.369,2.88,2.88,0,0,0-.075-.579,9.706,9.706,0,0,0-.242-.957c-.184-.6-.389-1.177-.6-1.745-.426-1.135-.908-2.233-1.4-3.325-.985-2.179-2-4.331-3.09-6.445-2.141-4.246-4.428-8.4-6.785-12.525q-1.795-3.075-3.671-6.109c-.641-1.016-1.268-1.992-2.032-3.018a10.408,10.408,0,0,1-1.317-2.94A99.341,99.341,0,0,1-21.991,0Z" transform="translate(-351 69)"/>
    <path id="Path-19" data-name="Path" d="M-16.936,69.04C-10.1,58.494-.231,63.117-.231,63.117S3.581,115.5-19.786,116.925c-17.782,1.086-33.083-9.716-43.842-21.347A39.215,39.215,0,0,1-73.709,73.7c-1.459-11.931-3.652-29.955-4.209-35.155-.854-7.981-4.088-28.877-15.673-27.6,0,0-24.221.241-11.683,42.141,0,0,3.419,26.223-18.807,23.087,0,0,4.56-13.111-1.424-23.087s-13.853-22.588-13.481-31.246c0,0,78.452-23.194,87.286-21.769A28.739,28.739,0,0,0-64.179,13.014a28.756,28.756,0,0,0-2.34,17.832c2.607,16.943,15.142,39.681,20.961,49.54a10.074,10.074,0,0,0,3.851,3.742,10.087,10.087,0,0,0,5.227,1.235c3.369-.135,7.234-.629,9.073-2.071C-23.776,80.441-16.936,69.04-16.936,69.04Z" transform="translate(-362 58)"/>
    <path id="Path-20" data-name="Path" d="M0,3.592A15.514,15.514,0,0,0-5.657.669,16.153,16.153,0,0,0-12.083.1a12.363,12.363,0,0,0-6.083,2.554A11.994,11.994,0,0,0-22,8a23.285,23.285,0,0,1,4.832-3.676,15.29,15.29,0,0,1,5.383-1.716A25.3,25.3,0,0,1-6,2.6,60.323,60.323,0,0,1,0,3.592Z" transform="translate(-378 74)"/>
    <path id="Path-21" data-name="Path" d="M0,34.911c-3.777,1.492-8.148,1.324-10.946-1.174a13.31,13.31,0,0,1-3.3-4.544,32.323,32.323,0,0,1-1.972-5.545,51.971,51.971,0,0,1-1.919-11.789,44.04,44.04,0,0,1,.149-6.007,29.873,29.873,0,0,1,.432-2.991c.089-.5.214-.987.345-1.477A3.824,3.824,0,0,1-16.624,0a7.135,7.135,0,0,0-1.559,2.672,24.577,24.577,0,0,0-.945,2.98,32.589,32.589,0,0,0-.846,6.2,40.459,40.459,0,0,0,1.49,12.426c1.13,3.923,2.772,8.265,6.434,10.919a9.5,9.5,0,0,0,6.2,1.776A11.494,11.494,0,0,0,0,34.911Z" transform="translate(-445 71)"/>
    <path id="Path-22" data-name="Path" d="M0,0A21.567,21.567,0,0,0-3.992,3.075,31.321,31.321,0,0,0-7.326,6.769,24.24,24.24,0,0,0-9.958,11.03,8.159,8.159,0,0,0-10.941,16a19.783,19.783,0,0,1,2.633-4c.976-1.259,2-2.5,2.955-3.783.976-1.278,1.926-2.586,2.833-3.938A33.527,33.527,0,0,0,0,0Z" transform="translate(-417 161)"/>
    <path id="Path-23" data-name="Path" d="M-.015,0a72.671,72.671,0,0,0-4.33,7.267c-.656,1.195-1.3,2.374-2.035,3.5A15.769,15.769,0,0,1-9,14a7.029,7.029,0,0,0,4.128-2.06A13.614,13.614,0,0,0-2.137,8.374,17.816,17.816,0,0,0-.52,4.323,13.379,13.379,0,0,0-.015,0Z" transform="translate(-485 134)"/>
    <path id="Shape-2" data-name="Shape" d="M-238.875,317c-2.85-29.828-8.312-62.983-8.312-62.983-12.284-.671-24.535-1.855-36.738-3.471q-18.313-2.349-36.449-5.948a323,323,0,0,1-35.825-9.149,149.876,149.876,0,0,1-17.265-6.765,72.879,72.879,0,0,1-8.1-4.527,33.455,33.455,0,0,1-7.111-5.884,53.829,53.829,0,0,0,15.855,8.972,182.809,182.809,0,0,0,17.359,5.82q8.817,2.489,17.776,4.527c5.943,1.423,11.948,2.671,17.954,3.871,12,2.447,24.086,4.559,36.177,6.62,12.106,2.016,24.215,4.031,36.369,5.935C-97.178,264.8-26.728,243.8-23.316,235.865c3.411-7.95,13.628-89.662,16.479-101.016,1.73-6.925,4.307-15.755,6.053-21.576a17.139,17.139,0,0,0,.508-8.188A17.145,17.145,0,0,0-3.634,97.6c-5.477-6.781-10.586-1.328-10.586-1.328s9.656,6.8-7.96,4.526C-39.8,98.543-98.89,93.424-73.314,86.612c0,0,1.7-11.917-11.933-11.917s-15.34,17.386-15.34,26.566c0,9.2-3.988,44.941-8.536,46.077-4.532,1.136-72.162-41.423-141.474-52.779-4.5-1.136-8.922-2.479-13.373-3.7-4.5-1.07-8.953-2.254-13.437-3.294-2.258-.463-4.5-.943-6.757-1.439l-3.364-.736-3.395-.56-6.79-1.2-6.821-.879a191.861,191.861,0,0,0-27.434-1.551c-2.29.113-4.581.191-6.871.336-2.272.207-4.578.32-6.854.671a74.285,74.285,0,0,0-13.531,2.7,60.587,60.587,0,0,1,13.275-4.237c2.274-.544,4.6-.815,6.886-1.215,2.324-.337,4.645-.48,6.968-.736a144.385,144.385,0,0,1,27.946.864,186.9,186.9,0,0,1,27.369,5.55c4.469,1.263,8.856,2.8,13.277,4.222,4.307,1.743,8.647,3.375,12.908,5.2,0,0-15.488-40.129-41.912-47.6,0,0-60.936-27.878-71.169-29.573-10.216-1.711-1.906-11.419,12.8-4.11l3.059,1.568.832-1.568C-351.619,2.357-379.021.357-379.021.357-455.716-5.592-486.4,64.2-483.854,96.543c2.562,32.356,30.685,19.577,30.685,19.577s-1.7,31.508,0,98.456c.9,34.706.85,73.3.625,102.424ZM-401.81,96.3c-5.429,2.862-10.939,5.518-16.511,8.061-5.6,2.494-11.242,4.926-17.023,7-2.9,1.04-5.8,2.047-8.76,2.9a50.348,50.348,0,0,1-9.065,1.855c5.83-1.936,11.291-4.59,16.88-7.052l16.638-7.614c5.589-2.479,11.147-5,16.769-7.389,5.62-2.415,11.274-4.765,17.054-6.877C-391.016,90.481-396.382,93.472-401.81,96.3Z" transform="translate(-141 128)"/>
    <path id="Path-24" data-name="Path" d="M0,2.5Q-78.622,1.05-157.249.555C-183.457.326-209.667.273-235.874.138L-314.5,0l-78.628.131c-26.207.14-52.415.184-78.625.417Q-550.377,1.04-629,2.5q78.626,1.458,157.249,1.952c26.21.233,52.417.277,78.625.417L-314.5,5l78.625-.138c26.207-.135,52.417-.186,78.625-.417Q-78.623,3.95,0,2.5Z" transform="translate(-39 443)"/>
    <path id="Path-25" data-name="Path" d="M-4.5,10c-6,0-6.006-10,0-10S1.5,10-4.5,10Z" transform="translate(-379 85)"/>
  </g>
</svg>
