<svg xmlns="http://www.w3.org/2000/svg" width="356" height="239" viewBox="0 0 356 239">
  <g id="Illustration" transform="translate(356 0)">
    <path id="Path" d="M-83.913,7.492h.008a.077.077,0,0,0,.039-.009l.006,0a33.6,33.6,0,0,1,3.393-1.513c1.148-.442,2.338-.871,3.494-1.214l-.094.014h.017a.266.266,0,0,0,.085-.011l.023-.007A69.107,69.107,0,0,1-58.08,1.528a76.815,76.815,0,0,1,9.563.309l9.634.825c6.425.525,12.862.9,19.3,1.316,6.435.4,12.868.824,19.291,1.366l-.137-.5a18.775,18.775,0,0,0-3.1,2.876A17.474,17.474,0,0,0-5.85,11.283,22.065,22.065,0,0,0-7.284,15.3a25.18,25.18,0,0,0-.632,4.218A35.232,35.232,0,0,0-7.354,28a41.825,41.825,0,0,0,2.343,8.2l.765-1c-4.52-.866-9.038-1.739-13.564-2.571L-31.381,30.1l.741.678-.1-.3.03.08a9.6,9.6,0,0,0-3.829-5.132,9.979,9.979,0,0,0-6.119-1.674,9.573,9.573,0,0,0-5.851,2.507,3.492,3.492,0,0,0-.567.583l-.524.625a14.612,14.612,0,0,0-.868,1.371c-.251.469-.422.952-.635,1.427-.1.239-.208.476-.3.717l-.224.737a36.048,36.048,0,0,0-1.228,12,63.643,63.643,0,0,0,1.648,11.83l.678-.69-9.123-1.934-9.142-1.853a.089.089,0,0,0-.067.013.091.091,0,0,0-.039.056.092.092,0,0,0,.011.068.091.091,0,0,0,.055.041l9.016,2.4,9.033,2.328a.559.559,0,0,0,.277,0,.561.561,0,0,0,.242-.136.567.567,0,0,0,.148-.237.574.574,0,0,0,.018-.281l-.007-.037a71.925,71.925,0,0,1-1.245-11.614A34.427,34.427,0,0,1-47.922,32.3l.214-.673c.085-.217.186-.427.278-.64.195-.418.358-.868.575-1.26.246-.364.439-.77.718-1.105l.428-.5a2.418,2.418,0,0,1,.458-.462,7.693,7.693,0,0,1,4.706-1.95A8.076,8.076,0,0,1-35.6,27.054a7.857,7.857,0,0,1,3.1,4.1l.03.081a.336.336,0,0,0,.021.067l.06.139a.931.931,0,0,0,.274.355.914.914,0,0,0,.407.183l13.6,2.335c4.533.788,9.074,1.535,13.612,2.29a.7.7,0,0,0,.374-.04.71.71,0,0,0,.3-.228.724.724,0,0,0,.144-.352.728.728,0,0,0-.054-.377A44.212,44.212,0,0,1-6.238,27.77a33.116,33.116,0,0,1-.825-8.212,24.4,24.4,0,0,1,.481-4.1,18.667,18.667,0,0,1,1.309-3.895A16.865,16.865,0,0,1-3.079,8.111,18.219,18.219,0,0,1-.113,5.293l.008-.006a.276.276,0,0,0,.092-.134.28.28,0,0,0,0-.163A.276.276,0,0,0-.1,4.855.27.27,0,0,0-.25,4.794C-6.675,4.265-13.09,3.626-19.5,2.947c-6.414-.659-12.825-1.357-19.248-1.9L-48.388.257A68.982,68.982,0,0,0-58.142.105a63.954,63.954,0,0,0-9.666,1.288,60.343,60.343,0,0,0-9.349,2.72l.108-.018h-.042a.228.228,0,0,0-.069.013c-1.2.436-2.332.921-3.479,1.441A28.336,28.336,0,0,0-83.95,7.321l.045-.012h-.008a.09.09,0,0,0-.061.028A.092.092,0,0,0-84,7.4a.092.092,0,0,0,.025.063.09.09,0,0,0,.061.028Z" transform="translate(-5 41)"/>
    <path id="Path-2" data-name="Path" d="M-25.987,18a19.716,19.716,0,0,1,3.01-7.245,17.488,17.488,0,0,1,2.525-2.867A22.634,22.634,0,0,1-17.395,5.6a31.7,31.7,0,0,1,7.054-3.1A48.536,48.536,0,0,1-2.7.808l.05,0Q-1.318.427,0,0C-.922.046-1.839.113-2.754.195l.049,0a28.8,28.8,0,0,0-8.042.778,24.994,24.994,0,0,0-7.572,3.111A16.765,16.765,0,0,0-24.1,10.033,15.089,15.089,0,0,0-25.987,18Z" transform="translate(-102 54)"/>
    <path id="Path-3" data-name="Path" d="M0,5.042c-1.6-.591-3.22-1.105-4.85-1.572s-3.266-.91-4.911-1.31c-1.641-.422-3.3-.765-4.951-1.137-1.661-.332-3.32-.68-4.993-.959L-20.093,0l-.243.177a13.18,13.18,0,0,0-1.891,1.7,16.632,16.632,0,0,0-1.559,1.887,16.968,16.968,0,0,0-1.267,2.055A14.887,14.887,0,0,0-26,8q.719-.96,1.481-1.858c.515-.6,1.035-1.194,1.577-1.736s1.12-1.08,1.708-1.58a20.881,20.881,0,0,1,1.8-1.353l-.63.113c1.641.419,3.3.771,4.949,1.144,1.661.332,3.316.691,4.989.973q2.5.458,5.03.8C-3.407,4.741-1.713,4.93,0,5.042Z" transform="translate(-43 60)"/>
    <path id="Path-4" data-name="Path" d="M0,0A18.055,18.055,0,0,0-4.109,6.346a26.667,26.667,0,0,0-1.809,7.58,29.916,29.916,0,0,0,.442,7.791c.059.318.1.639.174.954l.249.935.523,1.855C-4.108,26.671-3.614,27.85-3.1,29c-.169-1.283-.447-2.513-.641-3.758l-.245-1.87-.135-.927c-.036-.31-.047-.624-.072-.935-.04-.623-.087-1.243-.147-1.861-.043-.619-.02-1.241-.034-1.86a36.014,36.014,0,0,1,.113-3.7A36.926,36.926,0,0,1-2.9,6.841,31.454,31.454,0,0,1,0,0Z" transform="translate(-20 45)"/>
    <path id="Path-5" data-name="Path" d="M-2.768,1.284C-4.17.843-5.58.41-7,0a9.743,9.743,0,0,1,.124,1.47q1.823.481,3.673.925c.834.2,1.668.4,2.511.6q.173-.224.346-.425c.115-.142.24-.276.346-.4C-.923,1.866-1.845,1.575-2.768,1.284Z" transform="translate(-67 62)"/>
    <path id="Path-6" data-name="Path" d="M-4,1.8c.982.4,1.948.805,2.93,1.2h.008A9.622,9.622,0,0,1,0,1.4l-.362-.144C-1.449.834-2.535.412-3.622,0-3.75.652-3.887,1.256-4,1.8Z" transform="translate(-79 59)"/>
    <path id="Path-7" data-name="Path" d="M-18.885,1.675C-20.587,1.111-22.289.547-24,0a5.636,5.636,0,0,1,.263,1.805c1.431.521,2.879,1.015,4.319,1.519,3.193,1.067,6.4,2.118,9.637,3.064q2.249.677,4.522,1.293C-3.514,8.158-1.77,8.609,0,9c-.7-.321-1.406-.642-2.117-.955-.008,0-.008,0-.017-.009C-4.522,7-6.944,6.032-9.366,5.1-12.517,3.888-15.7,2.777-18.885,1.675Z" transform="translate(-58 53)"/>
    <path id="Path-8" data-name="Path" d="M-1,.848C-.914.9-.827.955-.741,1A2.771,2.771,0,0,1,0,.341L-.822,0C-.888.318-.949.606-1,.848Z" transform="translate(-89 51)"/>
    <path id="Path-9" data-name="Path" d="M-9.818,30C9.536,12.685-5.7,0-5.7,0-19.223,9.6-9.818,30-9.818,30Z" transform="translate(0 46)"/>
    <path id="Path-10" data-name="Path" d="M-17.49,30.471C-1.269,35.232,0,6.28,0,6.28Q-.029,6.19-.058,6.1C-2.5-1.269-12.95-2.222-16.557,4.67-21.444,14.01-17.49,30.471-17.49,30.471Z" transform="translate(-37 66)"/>
    <path id="Path-11" data-name="Path" d="M-17.753,19.052c2.642,6.523,5.344,12.979,7.831,19.5A168.039,168.039,0,0,1-3.509,58.271a44.282,44.282,0,0,1,.939,4.992,16.574,16.574,0,0,1-.022,4.9,6.922,6.922,0,0,1-.765,2.179A4.713,4.713,0,0,1-4.9,71.932a7.512,7.512,0,0,1-4.692.7,29.634,29.634,0,0,1-9.654-3.485c-.76-.422-1.521-.838-2.271-1.279l-2.218-1.383c-1.5-.89-2.9-1.932-4.336-2.909s-2.792-2.077-4.187-3.106l-2.026-1.637c-.674-.545-1.368-1.064-2.019-1.638-1.308-1.14-2.669-2.209-3.941-3.386l-1.939-1.726-1.889-1.78q-3.763-3.573-7.24-7.43c-2.334-2.551-4.575-5.187-6.762-7.868A187.033,187.033,0,0,1-70.311,18.192q-2.832-4.38-5.434-8.923C-77.482,6.242-79.145,3.16-80.659,0L-81,.121a100.24,100.24,0,0,0,8.238,19.528A125.927,125.927,0,0,0-61.088,37.432a119.09,119.09,0,0,0,14.7,15.406l2.008,1.75,2.065,1.682c1.367,1.132,2.8,2.185,4.229,3.233s2.921,2.014,4.4,2.993c1.518.918,3,1.889,4.54,2.755s3.063,1.764,4.635,2.569c1.558.826,3.112,1.658,4.7,2.43A38.7,38.7,0,0,0-9.754,73.8,9.18,9.18,0,0,0-4.2,73.24,6.322,6.322,0,0,0-1.919,71.3,9.3,9.3,0,0,0-.655,68.654a18.6,18.6,0,0,0,.643-5.562,37.434,37.434,0,0,0-.545-5.426,63.19,63.19,0,0,0-2.8-10.347c-1.174-3.355-2.517-6.635-3.974-9.856-.714-1.617-1.489-3.2-2.27-4.787s-1.591-3.15-2.432-4.7c-1.676-3.1-3.442-6.155-5.4-9.1Z" transform="translate(-48 74)"/>
    <path id="Path-12" data-name="Path" d="M0,4c-4.889-.671-9.791-1.181-14.7-1.635s-9.82-.832-14.735-1.181C-34.351.865-39.271.567-44.2.363S-54.056-.006-59,0c4.889.673,9.791,1.184,14.7,1.637s9.82.831,14.736,1.179c4.918.317,9.837.616,14.765.819S-4.944,4,0,4Z" transform="translate(-24 45)"/>
    <path id="Path-13" data-name="Path" d="M-19.052,95c.71-6.261,1.393-12.533,2-18.811l.234-2.354.117-1.177c.012-.092.015-.21.034-.281a1.228,1.228,0,0,0,.052-.171,4.793,4.793,0,0,1,.2-.462c.7-1.318,1.617-2.637,2.469-3.953,1.738-2.634,3.415-5.336,4.913-8.148.741-1.411,1.44-2.85,2.05-4.334.6-1.5,1.11-3,1.635-4.479,1.053-2.968,2.1-5.939,3.1-8.923l1.525-4.471.381-1.118a5.865,5.865,0,0,0,.3-1.307,5.323,5.323,0,0,0-.373-2.667,3.985,3.985,0,0,0-1.869-2.085,3.853,3.853,0,0,0-2.8-.112,12.292,12.292,0,0,0-4.211,2.644l.942.527a44.938,44.938,0,0,0,.419-4.585c.03-.766.034-1.54,0-2.306-.065-.773-.1-1.558-.227-2.325a5.566,5.566,0,0,0-.858-2.289,2.022,2.022,0,0,0-1.126-.795,2.609,2.609,0,0,0-1.321.072,6.589,6.589,0,0,0-3.628,3l.273-.148h-.186l-.094.144a25.284,25.284,0,0,0-1.428,2.6,8.712,8.712,0,0,1-.691,1.223c-.162.191-.16.188-.39.2a.359.359,0,0,1-.209-.043.356.356,0,0,1-.147-.154,2.865,2.865,0,0,1-.187-1.284,13.565,13.565,0,0,1,.113-1.431,20.739,20.739,0,0,1,.569-2.843,27.876,27.876,0,0,0,.629-2.886,9.133,9.133,0,0,0,.041-3.011,4.17,4.17,0,0,0-.57-1.46,3.28,3.28,0,0,0-1.172-1.083,5.9,5.9,0,0,0-3.019-.579l.053,0a5.2,5.2,0,0,0-1.33.044,5.735,5.735,0,0,0-1.269.357,4.909,4.909,0,0,0-2.066,1.622l.033-.038a.415.415,0,0,0-.113.266l.006,1.454.671-1.294.009-.017.008-.016.014-.041a41.521,41.521,0,0,0,2.409-9.823,11.86,11.86,0,0,0-.036-2.615A4.117,4.117,0,0,0-24.35.678,2.848,2.848,0,0,0-25.767.024a3.528,3.528,0,0,0-1.509.153,6.881,6.881,0,0,0-2.332,1.455,21.035,21.035,0,0,0-3.3,3.992,48.11,48.11,0,0,0-2.579,4.4,45.262,45.262,0,0,0-3.828,9.437c-.874,3.246-1.7,6.462-2.819,9.566-1.13,3.065-2.493,6.15-4.663,8.385a6.643,6.643,0,0,1-3.829,2.064,7.929,7.929,0,0,1-2.268-.092,18.539,18.539,0,0,1-2.36-.482,20.41,20.41,0,0,1-4.47-1.792,18.187,18.187,0,0,1-3.841-2.793l-.925-.914-.493,1.118a12.446,12.446,0,0,0-.961,3.951,16.54,16.54,0,0,0,.141,3.954,20.02,20.02,0,0,0,2.771,7.292,14.791,14.791,0,0,0,2.5,3.073,18.482,18.482,0,0,0,3.212,2.278c1.131.632,2.29,1.157,3.352,1.746a6.574,6.574,0,0,1,2.573,2.207,7.237,7.237,0,0,1,.834,3.326q.125,1.85.145,3.724c.031,2.494-.017,5-.106,7.5s-.195,5-.358,7.5-.316,5.008-.739,7.467l.167.039c.539-2.468.788-4.967,1.079-7.462.266-2.5.508-5,.674-7.505s.293-5.018.34-7.538q.036-1.891-.03-3.8a8.372,8.372,0,0,0-.9-3.908,7.854,7.854,0,0,0-3-2.727c-1.129-.652-2.259-1.189-3.315-1.806A16.984,16.984,0,0,1-59.5,51.7a13.221,13.221,0,0,1-2.187-2.8A18.469,18.469,0,0,1-64.1,42.168a14.845,14.845,0,0,1-.113-3.544,11.063,11.063,0,0,1,.8-3.33l-1.419.2a21.045,21.045,0,0,0,9.117,5.114,20.318,20.318,0,0,0,2.574.536c.444.048.85.131,1.326.148l.713.021c.238-.014.477-.041.716-.064A8.265,8.265,0,0,0-45.5,38.666c2.5-2.65,3.825-5.9,4.976-9.08,1.12-3.21,1.923-6.5,2.755-9.721.211-.8.423-1.6.679-2.361s.554-1.543.862-2.309c.615-1.532,1.294-3.045,2.035-4.524a46.906,46.906,0,0,1,2.425-4.315,20.787,20.787,0,0,1,3.007-3.812A5.766,5.766,0,0,1-26.9,1.284a2.388,2.388,0,0,1,.976-.136,1.723,1.723,0,0,1,.85.363,3.11,3.11,0,0,1,.89,1.891,10.912,10.912,0,0,1,.1,2.391,40.578,40.578,0,0,1-2.132,9.683l.022-.057-.008.017.677.16a.313.313,0,0,1-.023.126.314.314,0,0,1-.072.106l.033-.039a4.207,4.207,0,0,1,1.751-1.448,4.743,4.743,0,0,1,2.258-.383l.034,0h.02a5.322,5.322,0,0,1,2.7.479,2.978,2.978,0,0,1,.982.9,2.959,2.959,0,0,1,.49,1.235,8.621,8.621,0,0,1-.02,2.823,27.4,27.4,0,0,1-.594,2.844,23.591,23.591,0,0,0-.605,2.9,14.121,14.121,0,0,0-.135,1.487,3.268,3.268,0,0,0,.246,1.583,1.03,1.03,0,0,0,.356.353,1.035,1.035,0,0,0,.482.144,1.038,1.038,0,0,0,.493-.1,1.032,1.032,0,0,0,.387-.32,8.981,8.981,0,0,0,.772-1.316,24.743,24.743,0,0,1,1.421-2.523l-.271.145h.185l.1-.149A5.712,5.712,0,0,1-11.269,21.8a1.308,1.308,0,0,1,.893-.051,1.3,1.3,0,0,1,.715.534,4.822,4.822,0,0,1,.647,1.96c.1.73.105,1.465.147,2.2.007.748-.02,1.489-.071,2.236a44.543,44.543,0,0,1-.54,4.449l-.263,1.518,1.205-.992A11.22,11.22,0,0,1-4.719,31.38a2.535,2.535,0,0,1,1.837.09,2.73,2.73,0,0,1,1.165,1.418,3.913,3.913,0,0,1,.251,1.964,4.428,4.428,0,0,1-.235.99l-.392,1.115-1.569,4.462c-1.057,2.971-2.076,5.955-3.085,8.942-.511,1.5-1,2.992-1.555,4.419-.572,1.438-1.235,2.846-1.944,4.234-1.426,2.776-3.079,5.441-4.74,8.118-.821,1.356-1.683,2.653-2.421,4.141a5.392,5.392,0,0,0-.248.628c-.033.134-.061.27-.085.4s-.017.2-.027.306l-.084,1.176-.167,2.352c-.459,6.274-.847,12.554-1.207,18.845Z" transform="translate(-65 37)"/>
    <path id="Path-14" data-name="Path" d="M-4,9,0,.291-.823,0Z" transform="translate(-90 53)"/>
    <path id="Shape" d="M-97.448,44.73l12.035-3.652,12.068-3.547c4.022-1.182,8.055-2.328,12.105-3.4q3.032-.826,6.086-1.559c1.021-.214,2.038-.49,3.066-.653l1.541-.279,1.535-.122c3.145,1.345,6.421,2.476,9.7,3.514a92.947,92.947,0,0,0,10.043,2.522A50.371,50.371,0,0,0-18.9,38.6a28.13,28.13,0,0,0,5.26-.545,14.918,14.918,0,0,0,4.989-1.937c2.6-1.308,5.207-2.588,7.789-3.926L0,31.741l-.519-.755a1.106,1.106,0,0,0-.232-.268,1.067,1.067,0,0,0-.14-.114c-.078-.054-.171-.125-.24-.162-.144-.08-.3-.178-.434-.238-.282-.14-.56-.261-.833-.365-.551-.217-1.1-.409-1.646-.573-1.094-.35-2.2-.615-3.3-.875q-3.3-.768-6.626-1.3c-2.215-.375-4.433-.706-6.654-1.01-2.16-.309-4.326-.568-6.489-.84l-4.418-5.1c-1.517-1.752-2.979-3.531-4.548-5.263a45.451,45.451,0,0,0-10.882-8.65,47.744,47.744,0,0,0-6.309-2.959,52.172,52.172,0,0,0-6.68-1.978A40.9,40.9,0,0,0-73.864.172a28.4,28.4,0,0,0-13.1,5.156A30.627,30.627,0,0,0-96.133,16.16a32.894,32.894,0,0,0-2.5,6.721l-.38,1.759c-.106.583-.208,1.161-.3,1.745q-.277,1.747-.449,3.514a43.837,43.837,0,0,0-.171,7.119,28.231,28.231,0,0,0,1.3,7.09l.294.893Z" transform="translate(-171)"/>
    <path id="Path-15" data-name="Path" d="M-20,0c1.641,1.877,3.323,3.7,5.013,5.515l5.064,5.435q2.532,2.712,5.023,5.459C-3.251,18.251-1.621,20.1,0,22a46.213,46.213,0,0,0-4.125-6.205c-1.517-1.975-3.166-3.845-4.849-5.681-1.706-1.817-3.466-3.583-5.3-5.275A72.369,72.369,0,0,0-20,0Z" transform="translate(-222 6)"/>
    <path id="Path-16" data-name="Path" d="M0,0A64.609,64.609,0,0,0-3.752,7.556a79.726,79.726,0,0,0-2.88,7.9,63.479,63.479,0,0,0-1.9,8.181A35.938,35.938,0,0,0-8.907,32a76.041,76.041,0,0,1,1.4-8.183c.625-2.691,1.36-5.357,2.158-8.008s1.682-5.283,2.574-7.916C-1.857,5.269-.953,2.634,0,0Z" transform="translate(-250 7)"/>
    <path id="Path-17" data-name="Path" d="M0,0A44.679,44.679,0,0,0-4.59.295c-1.519.157-3.024.382-4.526.62-1.5.26-2.993.535-4.474.878A43.387,43.387,0,0,0-18,3a44.2,44.2,0,0,0,4.591-.293c1.518-.157,3.023-.382,4.526-.622,1.5-.262,2.992-.537,4.474-.88A43.88,43.88,0,0,0,0,0Z" transform="translate(-199 26)"/>
    <path id="Path-18" data-name="Path" d="M-12,0c-.024,1.26.044,2.518.135,3.778a23.776,23.776,0,0,0,.552,3.778,5.9,5.9,0,0,0,.761,1.9c.326.479.644,1.039.961,1.573C-8.948,12.1-8.331,13.2-7.716,14.3q1.864,3.276,3.668,6.585c.589,1.107,1.2,2.2,1.765,3.317.284.556.553,1.116.817,1.673.128.279.252.559.358.835a4.184,4.184,0,0,1,.132.4.757.757,0,0,1,.035.157c0,.01.01.061.01.038a.124.124,0,0,1,.016-.06.121.121,0,0,1,.044-.045l.234-.162a4.894,4.894,0,0,1-1.331.123,7.736,7.736,0,0,1-1.42-.188,11.917,11.917,0,0,1-1.4-.414,13.639,13.639,0,0,1-1.354-.592l-.064-.032-.043.008A2.784,2.784,0,0,0-7.47,26.5a2.106,2.106,0,0,0-.694,1.079,2.028,2.028,0,0,1,.813-.919,2.536,2.536,0,0,1,1.14-.372l-.108-.024a11.1,11.1,0,0,0,2.751,1.36,8.482,8.482,0,0,0,1.54.335A4.986,4.986,0,0,0-.366,27.9l.157-.034.077-.128a.993.993,0,0,0,.126-.332.913.913,0,0,0,0-.2,1.476,1.476,0,0,0-.041-.306A5,5,0,0,0-.177,26.4c-.1-.318-.212-.622-.328-.922-.232-.6-.5-1.18-.761-1.756-.537-1.151-1.091-2.288-1.685-3.4-1.168-2.243-2.415-4.44-3.7-6.617q-.979-1.625-2-3.227c-.35-.537-.692-1.053-1.108-1.595a5.416,5.416,0,0,1-.719-1.553A51.029,51.029,0,0,1-12,0Z" transform="translate(-187 37)"/>
    <path id="Path-19" data-name="Path" d="M-9.016,36.585C-5.376,31-.123,33.447-.123,33.447S1.906,61.205-10.534,61.96c-9.467.575-17.613-5.149-23.34-11.312a20.738,20.738,0,0,1-5.367-11.595c-.777-6.322-1.944-15.874-2.241-18.629-.455-4.229-2.176-15.3-8.344-14.628,0,0-12.895.128-6.22,22.331,0,0,1.82,13.9-10.012,12.234,0,0,2.428-6.948-.758-12.234s-7.375-11.97-7.177-16.558c0,0,41.766-12.291,46.469-11.536A15.261,15.261,0,0,0-34.167,6.9a15.175,15.175,0,0,0-1.246,9.45c1.388,8.979,8.061,21.027,11.159,26.252a5.352,5.352,0,0,0,2.05,1.983,5.39,5.39,0,0,0,2.783.654c1.794-.072,3.851-.333,4.83-1.1C-12.658,42.627-9.016,36.585-9.016,36.585Z" transform="translate(-193 31)"/>
    <path id="Path-20" data-name="Path" d="M0,1.8A8.76,8.76,0,0,0-3.086.334,9.579,9.579,0,0,0-6.591.052,7.079,7.079,0,0,0-9.909,1.329,6.044,6.044,0,0,0-12,4,12.654,12.654,0,0,1-9.364,2.162,8.887,8.887,0,0,1-6.428,1.3,15.049,15.049,0,0,1-3.275,1.3C-2.2,1.407-1.121,1.576,0,1.8Z" transform="translate(-201 39)"/>
    <path id="Path-21" data-name="Path" d="M0,18.871a5.954,5.954,0,0,1-6.02-.635A7.2,7.2,0,0,1-7.837,15.78a17.275,17.275,0,0,1-1.085-3A27.65,27.65,0,0,1-9.978,6.41,23.4,23.4,0,0,1-9.9,3.163a15.888,15.888,0,0,1,.238-1.617c.049-.27.118-.533.19-.8A2.048,2.048,0,0,1-9.143,0,3.842,3.842,0,0,0-10,1.444a13.12,13.12,0,0,0-.52,1.611,17.331,17.331,0,0,0-.465,3.354,21.514,21.514,0,0,0,.82,6.717c.621,2.121,1.525,4.468,3.538,5.9a5.29,5.29,0,0,0,3.412.96A6.392,6.392,0,0,0,0,18.871Z" transform="translate(-237 38)"/>
    <path id="Path-22" data-name="Path" d="M0,0A11.815,11.815,0,0,0-2.177,1.73,17.443,17.443,0,0,0-4,3.808,13.714,13.714,0,0,0-5.432,6.2,4.71,4.71,0,0,0-5.968,9,11.166,11.166,0,0,1-4.532,6.748C-4,6.04-3.443,5.344-2.92,4.62s1.051-1.454,1.545-2.215A19,19,0,0,0,0,0Z" transform="translate(-222 86)"/>
    <path id="Path-23" data-name="Path" d="M-.008,0A35.765,35.765,0,0,0-2.414,3.633c-.364.6-.725,1.187-1.131,1.749A8.108,8.108,0,0,1-5,7,4.079,4.079,0,0,0-2.707,5.97,6.943,6.943,0,0,0-1.187,4.187a8.413,8.413,0,0,0,.9-2.026A6.058,6.058,0,0,0-.008,0Z" transform="translate(-258 72)"/>
    <path id="Shape-2" data-name="Shape" d="M-127.335,169c-1.519-15.9-4.431-33.578-4.431-33.578-6.548-.357-13.079-.989-19.583-1.85q-9.762-1.253-19.43-3.172a172.1,172.1,0,0,1-19.1-4.877,79.932,79.932,0,0,1-9.2-3.607,38.925,38.925,0,0,1-4.32-2.413,17.862,17.862,0,0,1-3.79-3.137,28.7,28.7,0,0,0,8.452,4.784,97.572,97.572,0,0,0,9.253,3.1q4.7,1.327,9.476,2.413c3.168.759,6.369,1.424,9.571,2.064,6.394,1.3,12.839,2.431,19.284,3.53,6.454,1.075,12.908,2.149,19.387,3.163,79.964,5.747,117.517-5.449,119.336-9.677s7.265-47.8,8.784-53.854c.922-3.692,2.3-8.4,3.227-11.5a9.143,9.143,0,0,0,.27-4.366,9.131,9.131,0,0,0-1.79-3.991c-2.92-3.615-5.643-.708-5.643-.708s5.148,3.624-4.243,2.413-40.892-3.93-27.257-7.562c0,0,.9-6.353-6.36-6.353s-8.178,9.268-8.178,14.163-2.126,23.959-4.55,24.565-38.466-22.084-75.414-28.138c-2.4-.606-4.756-1.322-7.129-1.97-2.4-.571-4.772-1.2-7.162-1.757-1.2-.247-2.4-.5-3.6-.767l-1.794-.392-1.81-.3-3.619-.639-3.636-.469a102.374,102.374,0,0,0-14.624-.827c-1.221.06-2.442.1-3.663.179-1.211.11-2.441.171-3.653.358a39.555,39.555,0,0,0-7.214,1.44,32.324,32.324,0,0,1,7.077-2.259c1.212-.29,2.45-.435,3.671-.647,1.238-.18,2.475-.256,3.713-.393a76.96,76.96,0,0,1,14.9.461,99.542,99.542,0,0,1,14.589,2.959c2.382.673,4.721,1.492,7.078,2.251,2.3.929,4.61,1.8,6.88,2.771,0,0-8.256-21.394-22.342-25.376,0,0-32.482-14.862-37.937-15.765s-1.016-6.089,6.82-2.191l1.631.835.444-.835C-187.433,1.256-202.04.191-202.04.191c-40.883-3.173-57.239,34.038-55.882,51.278s16.356,10.437,16.356,10.437-.9,16.8,0,52.489c.479,18.5.454,39.078.334,54.6ZM-214.188,51.341c-2.893,1.526-5.83,2.942-8.8,4.3-2.988,1.329-5.993,2.625-9.075,3.734-1.545.554-3.091,1.091-4.67,1.543a26.86,26.86,0,0,1-4.832.989c3.109-1.032,6.019-2.447,9-3.76l8.87-4.059c2.979-1.321,5.942-2.669,8.938-3.939,3-1.287,6.01-2.541,9.091-3.667C-208.434,48.237-211.295,49.832-214.188,51.341Z" transform="translate(-75 69)"/>
    <path id="Path-24" data-name="Path" d="M0,1.5Q-41.873.63-83.75.333C-97.707.2-111.667.164-125.624.083L-167.5,0l-41.876.079c-13.958.084-27.916.11-41.875.25Q-293.126.624-335,1.5q41.876.875,83.75,1.171c13.959.14,27.917.166,41.875.25L-167.5,3l41.875-.083c13.958-.081,27.917-.111,41.875-.25Q-41.874,2.37,0,1.5Z" transform="translate(-21 236)"/>
    <path id="Path-25" data-name="Path" d="M-2.5,5a2.5,2.5,0,1,1,0-5A2.5,2.5,0,0,1-2.5,5Z" transform="translate(-202 46)"/>
  </g>
</svg>
