<svg id="Group_6" data-name="Group 6" xmlns="http://www.w3.org/2000/svg" width="32" height="32" viewBox="0 0 32 32">
  <circle id="Background" cx="16" cy="16" r="16" fill="#ffe0e3"/>
  <g id="Icon" transform="translate(10 10)">
    <rect id="Icons_Tabler_Lock_Closed_background" data-name="Icons/Tabler/Lock Closed background" width="12" height="12" fill="none"/>
    <path id="Color" d="M1.623,12A1.661,1.661,0,0,1,0,10.307V6.615A1.661,1.661,0,0,1,1.623,4.923h.148v-2A2.865,2.865,0,0,1,4.575,0a2.861,2.861,0,0,1,2.8,2.835V4.923h.148A1.661,1.661,0,0,1,9.15,6.615v3.692A1.661,1.661,0,0,1,7.527,12ZM.886,6.615v3.692a.755.755,0,0,0,.738.769h5.9a.755.755,0,0,0,.738-.769V6.615a.755.755,0,0,0-.738-.769h-5.9A.755.755,0,0,0,.886,6.615ZM6.493,4.923v-2a1.96,1.96,0,0,0-1.918-2A1.957,1.957,0,0,0,2.657,2.848V4.923ZM3.542,8.461A1.057,1.057,0,0,1,4.574,7.385a1.078,1.078,0,0,1,0,2.154A1.057,1.057,0,0,1,3.542,8.461Zm.886,0a.148.148,0,1,0,.147-.153A.151.151,0,0,0,4.427,8.461Z" transform="translate(1.5)" fill="#e25563"/>
  </g>
</svg>
