<?xml version="1.0" encoding="UTF-8"?>
<svg width="31px" height="38px" viewBox="0 0 31 38" version="1.1" xmlns="http://www.w3.org/2000/svg" xmlns:xlink="http://www.w3.org/1999/xlink">
    <title>Color</title>
    <g id="🧠-Symbols" stroke="none" stroke-width="1" fill="none" fill-rule="evenodd">
        <g id="UI/Logo/Software/Code" transform="translate(-5.000000, -2.000000)" fill="#495057">
            <path d="M24.2956991,2.125 C24.3605405,2.125 24.4249257,2.12942428 24.4884512,2.13810567 C24.5169938,2.14180407 24.5452931,2.14651864 24.5732972,2.15205465 C24.5781031,2.1532795 24.5834822,2.15437928 24.5888535,2.15550984 C24.629856,2.16382569 24.6695572,2.17399676 24.7085513,2.18579589 C24.7131334,2.18757199 24.7185572,2.18924776 24.7239701,2.19095569 C24.7628616,2.20283878 24.8002309,2.216414 24.8368343,2.23147088 C24.8398122,2.23309818 24.8431635,2.23448955 24.8465094,2.23589372 C24.8781208,2.24845419 24.918433,2.26732255 24.9576637,2.28796882 C24.9676979,2.29355801 24.9781473,2.29920976 24.9885279,2.30499349 C25.0191791,2.3218268 25.0487572,2.33980441 25.0776032,2.35880303 C25.0870633,2.36520538 25.0964808,2.37155849 25.1058266,2.37802761 C25.1303028,2.39485158 25.1542106,2.412564 25.1775279,2.43099072 C25.22096,2.46533444 25.2626177,2.50233236 25.3021858,2.54190043 L25.2246349,2.46987985 C25.2433402,2.48600564 25.2616215,2.50260977 25.2794598,2.51967327 L25.3021858,2.54190043 L34.7914332,12.0311479 C34.7952833,12.0349979 34.799109,12.0388677 34.8029103,12.0427571 C34.8246413,12.0649862 34.8457002,12.0879833 34.865995,12.1116547 C34.8787686,12.1266029 34.8911695,12.1417017 34.9032382,12.1570271 C34.9160212,12.1731457 34.928544,12.1897537 34.940706,12.2066389 C34.9554953,12.2273889 34.9696248,12.2481946 34.9831794,12.2693351 C34.9965253,12.2897843 35.0093586,12.3109371 35.0216472,12.3324413 C35.0299588,12.3475132 35.0380369,12.3622934 35.0458476,12.3772066 C35.06103,12.4054933 35.0752026,12.4348826 35.0883747,12.4648117 C35.0930873,12.4764344 35.0978181,12.4875926 35.1024057,12.4988096 C35.1131941,12.5241563 35.1230116,12.5502892 35.13207,12.5767741 C35.1384078,12.5965075 35.1445881,12.6159385 35.1503509,12.6355038 C35.1860827,12.7555846 35.206041,12.8828179 35.2081477,13.0143888 L35.2083337,13.0376345 L35.2083337,33.9139789 C35.2083337,36.7964005 32.8716692,39.1330649 29.9892476,39.1330649 L29.9892476,39.1330649 L11.0107527,39.1330649 C8.1283311,39.1330649 5.79166667,36.7964005 5.79166667,33.9139789 L5.79166667,33.9139789 L5.79166667,7.34408608 C5.79166667,4.46166443 8.1283311,2.125 11.0107527,2.125 L11.0107527,2.125 Z M22.8716667,4.971 L11.0107527,4.97177423 C9.70056109,4.97177423 8.63844089,6.03389442 8.63844089,7.34408608 L8.63844089,7.34408608 L8.63844089,33.9139789 C8.63844089,35.2241705 9.70056109,36.2862907 11.0107527,36.2862907 L11.0107527,36.2862907 L29.9892476,36.2862907 C31.2994392,36.2862907 32.3615594,35.2241705 32.3615594,33.9139789 L32.3615594,33.9139789 L32.3606667,14.461 L26.1935486,14.4610216 C24.4225309,14.4610216 22.9752745,13.0748348 22.8775696,11.3282513 L22.872312,11.139785 L22.8716667,4.971 Z M17.3408593,21.2537658 C18.0000367,21.5833545 18.2917208,22.3554101 18.0359287,23.0299848 L17.9774173,23.16344 L16.3965045,26.3215457 L17.9774173,29.4817218 C18.3070061,30.1408993 18.0771199,30.9335542 17.4677415,31.3197387 L17.3408593,31.391396 C16.6816818,31.7209848 15.8890269,31.4910986 15.5028424,30.8817202 L15.4311851,30.754838 L13.5333356,26.959139 C13.3580194,26.6085067 13.3361049,26.2035546 13.467592,25.8393424 L13.5333356,25.6860229 L15.4311851,21.8903239 C15.7827464,21.1872013 16.6377366,20.9022045 17.3408593,21.2537658 Z M25.497158,21.7634416 L25.5688153,21.8903239 L27.4666648,25.6860229 C27.6419809,26.0366551 27.6638954,26.4416072 27.5324083,26.8058195 L27.4666648,26.959139 L25.5688153,30.754838 C25.217254,31.4579606 24.3622637,31.7429573 23.6591411,31.391396 C22.9999636,31.0618073 22.7082796,30.2897517 22.9640716,29.615177 L23.022583,29.4817218 L24.6024606,26.3215457 L23.022583,23.16344 C22.6929943,22.5042626 22.9228804,21.7116077 23.5322588,21.3254231 L23.6591411,21.2537658 C24.3183185,20.9241771 25.1109734,21.1540632 25.497158,21.7634416 Z M25.7186667,6.984 L25.7190862,11.139785 C25.7190862,11.372708 25.8869275,11.5664296 26.1082634,11.6066032 L26.1935486,11.6142474 L30.3496667,11.614 L25.7186667,6.984 Z" id="Color"></path>
        </g>
    </g>
</svg>