<?xml version="1.0" encoding="UTF-8"?>
<svg width="33px" height="40px" viewBox="0 0 33 40" version="1.1" xmlns="http://www.w3.org/2000/svg" xmlns:xlink="http://www.w3.org/1999/xlink">
    <title>svg0 2</title>
    <g id="🧠-Symbols" stroke="none" stroke-width="1" fill="none" fill-rule="evenodd">
        <g id="UI/Logo/Software/PDF" transform="translate(-4.000000, 0.000000)" fill-rule="nonzero">
            <g id="svg0-2" transform="translate(4.000000, 0.000000)">
                <path d="M4.11351145,-1.59539783e-07 C1.84589692,-1.59539783e-07 3.83101936e-08,1.84736315 3.83101936e-08,4.11489661 L3.83101936e-08,35.7149861 C3.83101936e-08,37.9825259 1.84589692,39.8297488 4.11351145,39.8297488 L28.2771153,39.8297488 C30.5447292,39.8297488 32.3906261,37.9826025 32.3906261,35.7149861 L32.3906261,9.73091452 C32.3906261,9.73091452 32.455331,8.97005 32.1250376,8.22965293 C31.8154281,7.53563003 31.310814,7.05258278 31.310814,7.05258278 C31.3095665,7.05087447 31.308311,7.04917202 31.3070474,7.0474755 L25.3119696,1.16711077 C25.3086792,1.16375644 25.305354,1.16043653 25.3019944,1.15715156 C25.3019944,1.15715156 24.7901553,0.669763126 24.031407,0.344173554 C23.1380176,-0.0391922062 22.2171729,0.00127666231 22.2171729,0.00127666231 L22.2308885,-1.59539783e-07 L4.11351145,-1.59539783e-07 Z" id="path890" fill="#FF2116"></path>
                <path d="M4.11351145,1.35177113 L22.2309149,1.35177113 C22.2354867,1.35177113 22.2400588,1.35177113 22.2446306,1.35177113 C22.2446306,1.35177113 22.9691021,1.35879365 23.4990083,1.58618924 C24.0090333,1.80504927 24.3706753,2.13634624 24.3730826,2.13856791 C24.3730906,2.13857429 24.3755788,2.14112155 24.3755788,2.14112155 L30.3556932,8.00776682 C30.3556932,8.00776682 30.715983,8.38814482 30.890612,8.77959925 C31.0315597,9.0955552 31.0402395,9.67362352 31.0402395,9.67362352 C31.0396111,9.68316829 31.0391854,9.69272533 31.0389627,9.70228817 L31.0389627,35.7150372 C31.0389627,37.2573869 29.8194331,38.4781626 28.2770874,38.4781626 L4.11351145,38.4781626 C2.57116556,38.4781626 1.35163599,37.2574635 1.35163599,35.7150372 L1.35163599,4.11494768 C1.35163599,2.57252773 2.57116556,1.35177113 4.11351145,1.35177113 L4.11351145,1.35177113 Z" id="rect2684" fill="#F5F5F5"></path>
                <path d="M8.0877165,23.7143737 C7.15774969,22.7844069 8.16390446,21.5064998 10.8944774,20.1495063 L12.6125944,19.2956764 L13.2819363,17.8311681 C13.650076,17.0256914 14.199518,15.711414 14.5029227,14.9105658 L15.0545736,13.4544654 L14.6744255,12.3768724 C14.2070001,11.0518697 14.0403174,9.0607235 14.3368848,8.34474565 C14.7385921,7.374942 16.0543954,7.47444472 16.5753195,8.5140203 C16.9821596,9.32592578 16.9405672,10.7962628 16.4583052,12.6505784 L16.0629373,14.1707944 L16.4111905,14.7619884 C16.6027329,15.0871439 17.1622171,15.8592061 17.6544957,16.4776731 L18.5797064,17.6285492 L19.7309993,17.478312 C23.388458,17.0010488 24.6411755,17.8122009 24.6411755,18.9752324 C24.6411755,20.4430732 21.7692895,20.5642308 19.3576315,18.8703862 C18.8150035,18.4892676 18.442367,18.1106708 18.442367,18.1106708 C18.442367,18.1106708 16.9315467,18.4182444 16.1876885,18.6187373 C15.4198672,18.825691 15.0367996,18.9553012 13.912067,19.334945 C13.912067,19.334945 13.5174397,19.9080274 13.2602878,20.3246479 C12.303578,21.8746458 11.1865184,23.1591797 10.3887601,23.6267008 C9.49555942,24.150153 8.55917658,24.1858338 8.0877165,23.7143737 L8.0877165,23.7143737 Z M9.54715579,23.1929963 C10.0699058,22.8699157 11.1279634,21.6185154 11.8603803,20.4570671 L12.1569158,19.9868264 L10.8066959,20.6657062 C8.72129465,21.7142259 7.76726614,22.7024477 8.26335611,23.3001983 C8.54204163,23.6359897 8.8754262,23.6081486 9.54715579,23.1929963 L9.54715579,23.1929963 Z M23.0930163,19.3907613 C23.6043132,19.0326319 23.5300915,18.3109403 22.9520424,18.0199654 C22.5021797,17.7935146 22.1395959,17.7469872 20.9709528,17.7642371 C20.2528043,17.8132032 19.0980053,17.957931 18.9022877,18.0019622 C18.9022877,18.0019622 19.5366868,18.44041 19.818341,18.6015705 C20.1932861,18.815719 21.1044301,19.2132384 21.7696542,19.4168595 C22.4258449,19.61771 22.8054121,19.5965339 23.0930163,19.3907485 L23.0930163,19.3907613 Z M17.6464007,17.1269945 C17.3369629,16.8017113 16.810791,16.1227996 16.4771383,15.6183018 C16.0407653,15.0460111 15.8219436,14.6422545 15.8219436,14.6422545 C15.8219436,14.6422545 15.5029935,15.6681425 15.2413216,16.2854859 L14.4249472,18.3033496 L14.1882564,18.7610583 C14.1882564,18.7610583 15.4465918,18.3484725 16.0868202,18.1812407 C16.7649191,18.00412 18.1411436,17.7334976 18.1411436,17.7334976 L17.6464007,17.1269945 Z M15.8911665,10.088048 C15.9700932,9.42569664 16.0035906,8.76432846 15.7907827,8.43081621 C15.200508,7.7855296 14.4880605,8.32364617 14.6087394,9.85777315 C14.6493423,10.3738645 14.7775544,11.2561038 14.9489613,11.7998766 L15.2606144,12.788539 L15.4799596,12.0439092 C15.6006001,11.6343622 15.7856435,10.7542234 15.8911665,10.088048 L15.8911665,10.088048 Z" id="path2697" fill="#FF2116"></path>
                <g id="g858" transform="translate(9.624793, 27.485473)" fill="#2C2C2C">
                    <path d="M0.0444187169,0.53538417 L1.55425162,0.53538417 C2.03668343,0.53538417 2.42828746,0.58154128 2.7290637,0.673855499 C3.02983951,0.763194724 3.28296711,0.964209044 3.48844647,1.27689846 C3.69392754,1.58660862 3.79666807,1.96034502 3.79666807,2.39810765 C3.79666807,2.80013203 3.7132848,3.14557618 3.54651824,3.4344401 C3.37975127,3.72330402 3.154914,3.93176221 2.87200646,4.05981467 C2.59207604,4.18786714 2.16026978,4.25189337 1.5765877,4.25189337 L1.05395196,4.25189337 L1.05395196,6.63278945 L0.0444187169,6.63278945 L0.0444187169,0.53538417 Z M1.05395196,1.31709919 L1.05395196,3.44337785 L1.55425162,3.44337785 C2.00094859,3.44337785 2.30916913,3.35999287 2.47891323,3.19322292 C2.65163573,3.02645721 2.73799698,2.75546242 2.73799698,2.38023852 C2.73799698,2.1003081 2.68141526,1.87398079 2.56825182,1.70125658 C2.45508965,1.52555739 2.33001495,1.41835117 2.19302771,1.37963793 C2.05901845,1.33792842 1.84609308,1.31707366 1.55425162,1.31707366 L1.05395196,1.31709919 Z" id="path845"></path>
                    <path d="M4.56945109,0.53538417 L5.94081011,0.53538417 C6.6048992,0.53538417 7.13497855,0.653013511 7.53104818,0.888272192 C7.93009727,1.12353087 8.23087336,1.4734439 8.43337646,1.93801128 C8.63885582,2.40257439 8.74159551,2.9177635 8.74159551,3.48357859 C8.74159551,4.07917342 8.64927807,4.61074202 8.46464321,5.07828439 C8.28298768,5.54284751 8.00305836,5.9180714 7.62485526,6.20395607 C7.24962996,6.48984499 6.71359436,6.63278945 6.01674845,6.63278945 L4.56945109,6.63278945 L4.56945109,0.53538417 Z M5.57898689,1.34389969 L5.57898689,5.82426756 L5.99887933,5.82426756 C6.58554109,5.82426756 7.01139182,5.62176361 7.27643152,5.21675572 C7.54147118,4.80877709 7.67399101,4.26529787 7.67399101,3.58631806 C7.67399101,2.09137248 7.11562045,1.34389969 5.99887933,1.34389969 L5.57898689,1.34389969 Z" id="path847"></path>
                    <polygon id="path849" points="9.71092629 0.53538417 13.0968851 0.53538417 13.0968851 1.34389969 10.7204617 1.34389969 10.7204617 3.16642243 12.6233875 3.16642243 12.6233875 3.97494432 10.7204617 3.97494432 10.7204617 6.63278945 9.71092629 6.63278945"></polygon>
                </g>
            </g>
        </g>
    </g>
</svg>