<?xml version="1.0" encoding="UTF-8"?>
<svg width="641px" height="375px" viewBox="0 0 641 375" version="1.1" xmlns="http://www.w3.org/2000/svg" xmlns:xlink="http://www.w3.org/1999/xlink">
    <title>Illustration</title>
    <defs>
        <path d="M0,0.46558307 L133,0.46558307 L0,0.46558307 Z" id="path-1"></path>
        <path d="M0,0.46558307 L133,0.46558307 L0,0.46558307 Z" id="path-3"></path>
        <path d="M0,0.46558307 L133,0.46558307 L0,0.46558307 Z" id="path-5"></path>
        <path d="M0,0.46558307 L133,0.46558307 L0,0.46558307 Z" id="path-7"></path>
        <path d="M0,0.46558307 L133,0.46558307 L0,0.46558307 Z" id="path-9"></path>
    </defs>
    <g id="🧠-Symbols" stroke="none" stroke-width="1" fill="none" fill-rule="evenodd">
        <g id="Cards/Banner/04" transform="translate(-142.000000, -70.000000)">
            <g id="Illustration" transform="translate(144.000000, 71.000000)">
                <path d="M83.2849464,0.0969030391 C70.7457888,-0.238428108 60.3628429,10.0880059 60.7454146,22.592779 C61.8318959,58.1086996 63.7224199,126.97888 63.7224199,176.187513 C63.7224199,245.237198 60,353 60,353 L583,353 C583,353 577.41637,270.858766 577.41637,176.187513 C577.41637,112.149835 579.970881,53.8457087 581.624566,22.8183193 C582.295532,10.2299199 572.15473,-0.316717522 559.518975,0.00727163806 C498.615532,1.56897605 332.431817,5.32522508 219.133452,3.08762361 C144.86373,1.6208132 104.682068,0.669135075 83.2849464,0.0969030391 Z" id="Path" stroke="#1C1C1D" stroke-width="2" fill="#1E1E1E"></path>
                <path d="M79.7913326,22.004526 C78.1810314,21.9820459 76.9268304,23.2713977 77.0053341,24.8796505 C77.7896278,40.9492662 81.5063363,119.87785 81.5063363,172.482105 C81.5063363,225.13002 77.7833103,304.148338 77,320.124039 C76.9256226,321.717151 78.1983115,323 79.7930049,323 L562.209901,323 C563.779975,323 565.041608,321.755237 565,320.186278 C564.57709,304.620234 562.56851,227.900083 562.518342,176.800691 C562.465387,122.543873 564.56687,41.012712 565,24.8175982 C565.041608,23.2340549 563.864518,21.9795378 562.280508,22 C539.889769,22.2930509 388.019033,24.2208549 287.987677,23.9919671 C212.866611,23.8202083 99.3827884,22.2775378 79.7913326,22.004526 Z" id="Path" stroke="#40424C" fill="#343A40"></path>
                <path d="M0,365.026548 C0,365.026548 0.00710608029,365.459614 0,365.762947 C-0.0282536281,367.007078 3.5295822,373 24.8554948,373 C24.8554948,373 589.154869,373 612.186111,373 C635.218283,373 637.969309,366.531079 638,365.762947 C637.969309,365.311214 638,365.732147 638,365.026548 C638,365.026548 457.782671,364.966815 367.650755,365.026548 C337.016525,365.047081 306.318123,365.006015 275.684823,365.026548 C245.050592,365.047081 214.431242,365.006015 183.797942,365.026548 C122.530412,365.067615 0,365.026548 0,365.026548 Z" id="Path" stroke="#1C1C1D" stroke-width="2" fill="#1E1E1E"></path>
                <polygon id="Path" stroke="#1C1C1D" stroke-width="2" fill="#343A40" points="0 353 0 365 638 365 638 353"></polygon>
                <path d="M274,355 C274,355 274.370483,360 279.125785,360 C279.125785,360 336.49522,359.995 357.714381,360 C359.306257,360.000833 362.037298,358.948333 363,355 L274.59961,355" id="Path" stroke="#1C1C1D" stroke-width="2"></path>
                <rect id="Rectangle" stroke="#1C1C1D" stroke-width="2" fill="#FFC107" fill-rule="nonzero" x="88" y="39" width="293" height="43" rx="10"></rect>
                <rect id="Rectangle" stroke="#1C1C1D" fill="#FFFFFF" fill-rule="nonzero" x="102" y="47" width="29" height="29" rx="14.5"></rect>
                <path d="M122,68 L122,66.66664 C122,65.95944 121.710418,65.28112 121.19478,64.78104 C120.679142,64.28096 119.979524,64 119.250206,64 L113.749794,64 C113.020476,64 112.320858,64.28096 111.80522,64.78104 C111.289582,65.28112 111,65.95944 111,66.66664 L111,68" id="Path" stroke="#1C1C1D" stroke-width="2" stroke-linecap="round" stroke-linejoin="round"></path>
                <path d="M116.499475,61 C118.432428,61 120,59.4329878 120,57.4999475 C120,55.5670122 118.432428,54 116.499475,54 C114.566522,54 113,55.5670122 113,57.4999475 C113,59.4329878 114.566522,61 116.499475,61 Z" id="Path" stroke="#1C1C1D" stroke-width="2" stroke-linecap="round" stroke-linejoin="round"></path>
                <path d="M147.793424,64.5924765 C146.88656,64.5924765 146.065756,64.4001791 145.331936,64.015674 C144.606445,63.6227497 144.036416,63.0877743 143.62185,62.4106583 C143.207283,61.7252127 143,60.9561129 143,60.1034483 C143,59.2507837 143.207283,58.4858934 143.62185,57.8087774 C144.036416,57.1233318 144.611072,56.5882669 145.344891,56.2037618 C146.078711,55.8108374 146.899516,55.6144201 147.80638,55.6144201 C148.514289,55.6144201 149.162049,55.7314823 149.74966,55.9655172 C150.337271,56.1912226 150.837897,56.5297806 151.252463,56.9811912 L150.410375,57.7711599 C149.728376,57.0772951 148.877034,56.7304075 147.8582,56.7304075 C147.18453,56.7304075 146.575636,56.8766682 146.031517,57.169279 C145.487399,57.4618898 145.059877,57.8672638 144.748952,58.3855799 C144.446356,58.8954769 144.29552,59.4681594 144.29552,60.1034483 C144.29552,60.7387371 144.446356,61.3155396 144.748952,61.8338558 C145.059877,62.3437528 145.487399,62.7450067 146.031517,63.0376176 C146.575636,63.3302284 147.18453,63.476489 147.8582,63.476489 C148.868706,63.476489 149.719123,63.1253918 150.410375,62.4231975 L151.252463,63.2131661 C150.837897,63.6645768 150.332644,64.0073444 149.736705,64.2413793 C149.149094,64.4754142 148.501334,64.5924765 147.793424,64.5924765 Z M154.481084,58.9623824 C154.697621,58.5778773 155.016874,58.2852665 155.439769,58.0846395 C155.863589,57.8840125 156.377171,57.7836991 156.981438,57.7836991 L156.981438,58.9498433 C156.912961,58.9415137 156.817647,58.9373041 156.696424,58.9373041 C156.022753,58.9373041 155.49159,59.1337215 155.102934,59.5266458 C154.723532,59.9111509 154.532905,60.4628751 154.532905,61.1818182 L154.532905,64.492163 L153.289206,64.492163 L153.289206,57.846395 L154.481084,57.846395 L154.481084,58.9623824 Z M158.884927,57.846395 L160.128627,57.846395 L160.128627,64.492163 L158.884927,64.492163 L158.884927,57.846395 Z M159.506777,56.5673981 C159.26433,56.5673981 159.061673,56.492163 158.897883,56.3416928 C158.74242,56.1912226 158.664689,56.0073444 158.664689,55.7899687 C158.664689,55.5725929 158.74242,55.3887147 158.897883,55.2382445 C159.061673,55.0794447 159.26433,55 159.506777,55 C159.748299,55 159.947254,55.0752351 160.102716,55.2257053 C160.266507,55.3678459 160.348865,55.5475146 160.348865,55.7648903 C160.348865,55.9905956 160.266507,56.182893 160.102716,56.3416928 C159.947254,56.492163 159.748299,56.5673981 159.506777,56.5673981 Z M164.842469,64.5673981 C164.280769,64.5673981 163.741277,64.4963726 163.223069,64.354232 C162.704861,64.2037618 162.298623,64.015674 162.00528,63.7899687 L162.523488,62.8369906 C162.825159,63.0459472 163.192532,63.2131661 163.62468,63.338558 C164.055903,63.4639498 164.492679,63.5266458 164.933156,63.5266458 C166.021392,63.5266458 166.565511,63.2257053 166.565511,62.6238245 C166.565511,62.4231975 166.491481,62.2643977 166.345272,62.1473354 C166.198138,62.0302732 166.012139,61.9467085 165.788199,61.8965517 C165.571662,61.8380654 165.260737,61.7753695 164.855424,61.7084639 C164.302052,61.6248992 163.84862,61.5287058 163.495128,61.4200627 C163.149039,61.3114196 162.85107,61.1274519 162.601219,60.8683386 C162.350444,60.6092253 162.225518,60.2455889 162.225518,59.7774295 C162.225518,59.1755486 162.484623,58.69485 163.002831,58.3354232 C163.521039,57.9675773 164.215993,57.7836991 165.088618,57.7836991 C165.545751,57.7836991 166.00381,57.8380654 166.461869,57.9467085 C166.919003,58.0553515 167.294704,58.2017017 167.588972,58.3855799 L167.057809,59.338558 C166.496108,58.9874608 165.835393,58.8119122 165.075663,58.8119122 C164.548201,58.8119122 164.14659,58.8954769 163.870829,59.0626959 C163.594143,59.2299149 163.456263,59.4514107 163.456263,59.7272727 C163.456263,59.9446485 163.533994,60.1159875 163.689456,60.2413793 C163.844919,60.3667712 164.03462,60.458755 164.259485,60.5172414 C164.492679,60.5757277 164.816559,60.6426332 165.231125,60.7178683 C165.783572,60.8098522 166.228676,60.9101657 166.565511,61.0188088 C166.910674,61.1191223 167.204017,61.2946708 167.446465,61.5454545 C167.687987,61.7962382 167.80921,62.1473354 167.80921,62.5987461 C167.80921,63.200627 167.540852,63.6813256 167.005988,64.0407524 C166.478526,64.3918495 165.757662,64.5673981 164.842469,64.5673981 Z M171.703173,64.5673981 C171.141473,64.5673981 170.601981,64.4963726 170.083773,64.354232 C169.565565,64.2037618 169.159327,64.015674 168.865984,63.7899687 L169.384192,62.8369906 C169.685864,63.0459472 170.053236,63.2131661 170.485385,63.338558 C170.916608,63.4639498 171.353383,63.5266458 171.79386,63.5266458 C172.882097,63.5266458 173.426215,63.2257053 173.426215,62.6238245 C173.426215,62.4231975 173.352186,62.2643977 173.205977,62.1473354 C173.058843,62.0302732 172.872843,61.9467085 172.648903,61.8965517 C172.432366,61.8380654 172.121441,61.7753695 171.716129,61.7084639 C171.162757,61.6248992 170.709324,61.5287058 170.355833,61.4200627 C170.009744,61.3114196 169.711774,61.1274519 169.461924,60.8683386 C169.211148,60.6092253 169.086223,60.2455889 169.086223,59.7774295 C169.086223,59.1755486 169.345327,58.69485 169.863535,58.3354232 C170.381743,57.9675773 171.076697,57.7836991 171.949322,57.7836991 C172.406456,57.7836991 172.864515,57.8380654 173.322574,57.9467085 C173.779707,58.0553515 174.155408,58.2017017 174.449676,58.3855799 L173.918513,59.338558 C173.356812,58.9874608 172.696097,58.8119122 171.936367,58.8119122 C171.408905,58.8119122 171.007294,58.8954769 170.731533,59.0626959 C170.454847,59.2299149 170.316967,59.4514107 170.316967,59.7272727 C170.316967,59.9446485 170.394698,60.1159875 170.550161,60.2413793 C170.705623,60.3667712 170.895324,60.458755 171.120189,60.5172414 C171.353383,60.5757277 171.677263,60.6426332 172.09183,60.7178683 C172.644276,60.8098522 173.08938,60.9101657 173.426215,61.0188088 C173.771379,61.1191223 174.064722,61.2946708 174.307169,61.5454545 C174.548691,61.7962382 174.669915,62.1473354 174.669915,62.5987461 C174.669915,63.200627 174.401557,63.6813256 173.866692,64.0407524 C173.33923,64.3918495 172.618366,64.5673981 171.703173,64.5673981 Z M182.425453,56.8056426 L179.316205,56.8056426 L179.316205,55.7147335 L186.817266,55.7147335 L186.817266,56.8056426 L183.708018,56.8056426 L183.708018,64.492163 L182.425453,64.492163 L182.425453,56.8056426 Z M194.062925,57.846395 L190.733439,65.1567398 C190.440096,65.8338558 190.094007,66.3103448 189.697022,66.5862069 C189.308366,66.862069 188.837352,67 188.284906,67 C187.94807,67 187.619563,66.9456337 187.30031,66.8369906 C186.989385,66.7366771 186.730281,66.5862069 186.522998,66.3855799 L187.054161,65.4827586 C187.408579,65.8087774 187.818518,65.9717868 188.284906,65.9717868 C188.587502,65.9717868 188.837352,65.8923421 189.036307,65.7335423 C189.24359,65.5830721 189.42959,65.3197492 189.593381,64.9435737 L189.813619,64.4796238 L186.782102,57.846395 L188.077622,57.846395 L190.474335,63.1630094 L192.845136,57.846395 L194.062925,57.846395 Z M199.233901,57.7836991 C199.899243,57.7836991 200.495183,57.9258397 201.021719,58.2100313 C201.549181,58.494223 201.95912,58.8913569 202.252463,59.4012539 C202.55506,59.9111509 202.705895,60.5004926 202.705895,61.169279 C202.705895,61.8380654 202.55506,62.4315271 202.252463,62.9498433 C201.95912,63.4597403 201.549181,63.8568742 201.021719,64.1410658 C200.495183,64.4252575 199.899243,64.5673981 199.233901,64.5673981 C198.741604,64.5673981 198.288172,64.4754142 197.873605,64.2915361 C197.468292,64.1076579 197.122203,63.8401254 196.837189,63.4890282 L196.837189,66.9247649 L195.59349,66.9247649 L195.59349,57.846395 L196.785368,57.846395 L196.785368,58.8996865 C197.062054,58.5318406 197.411845,58.2559785 197.83474,58.0721003 C198.25856,57.879803 198.724947,57.7836991 199.233901,57.7836991 Z M199.13026,63.5141066 C199.570736,63.5141066 199.964019,63.4180027 200.309183,63.2257053 C200.6636,63.0250784 200.940286,62.7492163 201.138316,62.3981191 C201.345599,62.0386923 201.449241,61.6290193 201.449241,61.169279 C201.449241,60.7095387 201.345599,60.3040752 201.138316,59.9529781 C200.940286,59.5935513 200.6636,59.3176892 200.309183,59.1253918 C199.964019,58.9330945 199.570736,58.8369906 199.13026,58.8369906 C198.699037,58.8369906 198.305754,58.9373041 197.951336,59.137931 C197.606173,59.3302284 197.329487,59.6018809 197.122203,59.9529781 C196.924174,60.3040752 196.824234,60.7095387 196.824234,61.169279 C196.824234,61.6290193 196.924174,62.0386923 197.122203,62.3981191 C197.321158,62.7492163 197.597844,63.0250784 197.951336,63.2257053 C198.305754,63.4180027 198.699037,63.5141066 199.13026,63.5141066 Z M211,61.2068966 C211,61.2988804 210.991672,61.4200627 210.97409,61.5705329 L205.403353,61.5705329 C205.481084,62.155665 205.744815,62.628034 206.19362,62.9874608 C206.651679,63.338558 207.217081,63.5141066 207.890752,63.5141066 C208.711556,63.5141066 209.372272,63.2465741 209.872898,62.7115987 L210.559523,63.4890282 C210.248598,63.8401254 209.859942,64.1076579 209.393555,64.2915361 C208.936422,64.4754142 208.421915,64.5673981 207.851886,64.5673981 C207.126395,64.5673981 206.483262,64.4252575 205.921561,64.1410658 C205.360786,63.848455 204.924011,63.4430811 204.613086,62.9247649 C204.311415,62.4064487 204.159654,61.8213166 204.159654,61.169279 C204.159654,60.525571 204.306788,59.9446485 204.600131,59.4263323 C204.902727,58.9080161 205.312667,58.5067622 205.830875,58.2225705 C206.358337,57.9299597 206.949649,57.7836991 207.605737,57.7836991 C208.262751,57.7836991 208.845735,57.9299597 209.354689,58.2225705 C209.872898,58.5067622 210.274509,58.9080161 210.559523,59.4263323 C210.853791,59.9446485 211,60.5381102 211,61.2068966 Z M207.605737,58.799373 C207.009798,58.799373 206.509172,58.9749216 206.102934,59.3260188 C205.70595,59.677116 205.472756,60.1368562 205.403353,60.7053292 L209.808121,60.7053292 C209.739644,60.1452754 209.501824,59.6896552 209.095585,59.338558 C208.698601,58.9791312 208.201677,58.799373 207.605737,58.799373 Z" id="Shape" fill="#1C1C1D" fill-rule="nonzero"></path>
                <path d="M364,59.5555686 C364.002647,60.7288112 363.72887,61.8861428 363.199982,62.9333412 C362.572427,64.1882726 361.608872,65.2437376 360.415096,65.9816031 C359.222209,66.7194686 357.847099,67.1105792 356.444434,67.1111125 C355.271102,67.1142236 354.11377,66.8400907 353.066661,66.3111137 L348,68 L349.688887,62.9333412 C349.159999,61.8861428 348.886221,60.7288112 348.888888,59.5555686 C348.889777,58.1527263 349.280887,56.7777062 350.018664,55.5845525 C350.756441,54.3913988 351.811551,53.4272225 353.066661,52.8000235 C354.11377,52.2711354 355.271102,51.9970025 356.444434,52 L356.888878,52 C358.74132,52.1022468 360.49154,52.88429 361.803539,54.1963769 C363.115537,55.5084637 363.897759,57.2584166 364,59.1111248 L364,59.5555686 Z" id="Path" stroke="#1C1C1D" stroke-width="2" stroke-linecap="round" stroke-linejoin="round"></path>
                <rect id="Rectangle" stroke="#1C1C1D" stroke-width="2" fill="#E26666" fill-rule="nonzero" x="88" y="163" width="293" height="145" rx="10"></rect>
                <rect id="Rectangle" stroke="#1C1C1D" stroke-width="2" fill="#FFFFFF" fill-rule="nonzero" x="122" y="182" width="10" height="99" rx="4.28531"></rect>
                <rect id="Rectangle" stroke="#1C1C1D" stroke-width="2" fill="#FFFFFF" fill-rule="nonzero" x="230" y="182" width="10" height="99" rx="4.28531"></rect>
                <rect id="Rectangle" stroke="#1C1C1D" stroke-width="2" fill="#FFFFFF" fill-rule="nonzero" x="143" y="224" width="10" height="57" rx="4.28531"></rect>
                <rect id="Rectangle" stroke="#1C1C1D" stroke-width="2" fill="#FFFFFF" fill-rule="nonzero" x="251" y="224" width="10" height="57" rx="4.28531"></rect>
                <rect id="Rectangle" stroke="#1C1C1D" stroke-width="2" fill="#FFFFFF" fill-rule="nonzero" x="316" y="208" width="10" height="73" rx="4.28531"></rect>
                <rect id="Rectangle" stroke="#1C1C1D" stroke-width="2" fill="#FFFFFF" fill-rule="nonzero" x="209" y="233" width="10" height="48" rx="4.28531"></rect>
                <rect id="Rectangle" stroke="#1C1C1D" stroke-width="2" fill="#FFFFFF" fill-rule="nonzero" x="338" y="233" width="10" height="48" rx="4.28531"></rect>
                <rect id="Rectangle" stroke="#1C1C1D" stroke-width="2" fill="#FFFFFF" fill-rule="nonzero" x="165" y="197" width="10" height="84" rx="4.28531"></rect>
                <rect id="Rectangle" stroke="#1C1C1D" stroke-width="2" fill="#FFFFFF" fill-rule="nonzero" x="273" y="197" width="10" height="84" rx="4.28531"></rect>
                <rect id="Rectangle" stroke="#1C1C1D" stroke-width="2" fill="#FFFFFF" fill-rule="nonzero" x="187" y="185" width="10" height="96" rx="4.28531"></rect>
                <rect id="Rectangle" stroke="#1C1C1D" stroke-width="2" fill="#FFFFFF" fill-rule="nonzero" x="294" y="185" width="10" height="96" rx="4.28531"></rect>
                <polygon id="Path" fill="#1C1C1D" fill-rule="nonzero" points="128 289 128 296 126.390038 296 126.390038 290.299905 125 290.299905 125 289"></polygon>
                <path d="M151,294.70174 L151,296 L146.284992,296 L146.284992,294.967716 L148.6914,292.460476 C148.94688,292.19171 149.118887,291.962933 149.208263,291.772286 C149.297639,291.57606 149.342327,291.382623 149.342327,291.192906 C149.342327,290.91763 149.255481,290.707453 149.083474,290.563305 C148.917369,290.412648 148.67032,290.337319 148.344013,290.337319 C148.070826,290.337319 147.823777,290.395908 147.60371,290.514016 C147.384486,290.625614 147.199831,290.795802 147.051433,291.025508 L146,290.2778 C146.243676,289.878836 146.579258,289.567291 147.006745,289.344095 C147.435076,289.115318 147.924958,289 148.477234,289 C148.940978,289 149.344857,289.085559 149.689713,289.255746 C150.040472,289.419423 150.310287,289.65564 150.500843,289.963465 C150.696459,290.26478 150.79511,290.621895 150.79511,291.034808 C150.79511,291.408662 150.72344,291.759267 150.580944,292.086621 C150.438449,292.414906 150.161889,292.78876 149.752108,293.208184 L148.317032,294.70174 L151,294.70174 Z" id="Path" fill="#1C1C1D" fill-rule="nonzero"></path>
                <path d="M171.293988,291.802418 C171.845109,291.90008 172.267154,292.127026 172.560122,292.480468 C172.853091,292.828328 173,293.260829 173,293.77797 C173,294.177917 172.904042,294.54903 172.712976,294.88945 C172.52106,295.223359 172.228091,295.492161 171.83322,295.695854 C171.444293,295.898618 170.965353,296 170.396399,296 C169.953974,296 169.516644,295.938613 169.086107,295.813978 C168.661515,295.682833 168.298913,295.498671 168,295.263354 L168.565557,294.043981 C168.805027,294.240234 169.080163,294.394632 169.390965,294.506245 C169.70856,294.610417 170.032099,294.663433 170.360734,294.663433 C170.725883,294.663433 171.012908,294.588095 171.222656,294.437417 C171.432405,294.280229 171.536855,294.060723 171.536855,293.77797 C171.536855,293.214324 171.144531,292.932501 170.360734,292.932501 L169.696671,292.932501 L169.696671,291.880547 L170.98913,290.27797 L168.314198,290.27797 L168.314198,289 L172.712976,289 L172.712976,290.032421 L171.293988,291.802418 Z" id="Path" fill="#1C1C1D" fill-rule="nonzero"></path>
                <polygon id="Path" fill="#1C1C1D" fill-rule="nonzero" points="195 294.53 193.770408 294.53 193.770408 296 192.066327 296 192.066327 294.53 188 294.53 188 293.44027 191.559184 289 193.392857 289 190.092857 293.209459 192.120408 293.209459 192.120408 291.90027 193.770408 291.90027 193.770408 293.209459 195 293.209459"></polygon>
                <path d="M213.410139,291.585703 C214.294337,291.585703 214.945405,291.779166 215.363344,292.166091 C215.788064,292.553016 216,293.070157 216,293.719373 C216,294.138852 215.904205,294.522057 215.713462,294.869918 C215.521872,295.210337 215.2294,295.48565 214.835198,295.695854 C214.446931,295.898618 213.965412,296 213.392336,296 C212.949813,296 212.514073,295.937683 212.084266,295.813978 C211.659546,295.682833 211.298406,295.498671 211,295.263354 L211.573076,294.043981 C211.81214,294.240234 212.086809,294.394632 212.397932,294.506245 C212.708206,294.610417 213.027806,294.663433 213.356731,294.663433 C213.721261,294.663433 214.007799,294.584374 214.216345,294.427186 C214.425738,294.269997 214.53001,294.050492 214.53001,293.768669 C214.53001,293.473824 214.419803,293.250598 214.198542,293.09992 C213.984062,292.949243 213.607664,292.873904 213.069346,292.873904 L211.465412,292.873904 L211.788403,289 L215.614276,289 L215.614276,290.27797 L212.998135,290.27797 L212.899797,291.585703 L213.410139,291.585703 Z" id="Path" fill="#1C1C1D" fill-rule="nonzero"></path>
                <path d="M235.914894,291.016856 C236.301964,291.016856 236.653028,291.116164 236.97054,291.314779 C237.288052,291.514439 237.538462,291.797726 237.723404,292.165687 C237.907529,292.527375 238,292.946557 238,293.425323 C238,293.941722 237.899345,294.394355 237.697218,294.785313 C237.49509,295.175225 237.218494,295.477329 236.866612,295.690579 C236.520458,295.897557 236.134206,296 235.707856,296 C234.860065,296 234.196399,295.668627 233.717676,295.00588 C233.239771,294.343133 233,293.396054 233,292.165687 C233,291.28969 233.130115,290.53809 233.389525,289.91193 C233.648936,289.28577 234.009002,288.81014 234.47054,288.486084 C234.937807,288.162028 235.477087,288 236.08838,288 C236.410802,288 236.719313,288.048086 237.013912,288.144257 C237.313421,288.232066 237.567103,288.361688 237.774959,288.531034 L237.256137,289.846073 C236.95581,289.587874 236.57856,289.459297 236.12275,289.459297 C235.609656,289.459297 235.202946,289.650595 234.903437,290.03319 C234.60311,290.41683 234.441899,290.972952 234.418985,291.701555 C234.776596,291.245786 235.274959,291.016856 235.914894,291.016856 Z M235.630115,294.663008 C235.929624,294.663008 236.171849,294.560564 236.355974,294.353587 C236.546645,294.147655 236.641571,293.867503 236.641571,293.514177 C236.641571,293.160852 236.546645,292.8807 236.355974,292.674768 C236.171849,292.460473 235.923895,292.353848 235.612111,292.353848 C235.306874,292.353848 235.055646,292.464654 234.860065,292.685221 C234.663666,292.899517 234.565466,293.175487 234.565466,293.514177 C234.565466,293.852868 234.661211,294.128838 234.851064,294.343133 C235.041735,294.556383 235.301146,294.663008 235.630115,294.663008 Z" id="Shape" fill="#1C1C1D" fill-rule="nonzero"></path>
                <polygon id="Path" fill="#1C1C1D" fill-rule="nonzero" points="258 289 258 290.050142 255.682125 296 254.113828 296 256.350759 290.319773 254.283305 290.319773 254.283305 291.459792 253 291.459792 253 289"></polygon>
                <path d="M280.093169,291.801908 C280.387428,291.993205 280.610327,292.243042 280.762668,292.552463 C280.921424,292.861884 281,293.219391 281,293.624984 C281,294.10375 280.895767,294.522932 280.686498,294.88462 C280.477229,295.237946 280.183772,295.513916 279.805324,295.713576 C279.426876,295.904874 278.989096,296 278.49118,296 C277.994067,296 277.556286,295.904874 277.177838,295.713576 C276.805003,295.513916 276.513951,295.237946 276.304682,294.88462 C276.101026,294.522932 276,294.10375 276,293.624984 C276,293.219391 276.076171,292.861884 276.228512,292.552463 C276.386466,292.243042 276.610167,291.993205 276.898012,291.801908 C276.677518,291.6242 276.508339,291.403633 276.389673,291.138116 C276.271007,290.866327 276.211674,290.556906 276.211674,290.209852 C276.211674,289.761401 276.30789,289.370443 276.499519,289.03907 C276.69195,288.707696 276.960552,288.453678 277.305324,288.277016 C277.649294,288.09199 278.045382,288 278.49118,288 C278.943393,288 279.341886,288.09199 279.686658,288.277016 C280.037043,288.453678 280.30805,288.707696 280.500481,289.03907 C280.69211,289.370443 280.788326,289.761401 280.788326,290.209852 C280.788326,290.556906 280.728993,290.866327 280.610327,291.138116 C280.491661,291.403633 280.319275,291.6242 280.093169,291.801908 Z M278.49118,289.31504 C278.214561,289.31504 277.991661,289.403894 277.821681,289.580557 C277.658114,289.749902 277.576331,289.985104 277.576331,290.287208 C277.576331,290.581994 277.658114,290.81406 277.821681,290.983405 C277.986049,291.152751 278.208948,291.237423 278.49118,291.237423 C278.774214,291.237423 279.000321,291.152751 279.1695,290.983405 C279.338679,290.81406 279.423669,290.581994 279.423669,290.287208 C279.423669,289.985104 279.338679,289.749902 279.1695,289.580557 C279.000321,289.403894 278.774214,289.31504 278.49118,289.31504 Z M278.49118,294.686005 C278.835953,294.686005 279.107761,294.585653 279.305003,294.387038 C279.508659,294.181105 279.610487,293.908271 279.610487,293.569581 C279.610487,293.23089 279.508659,292.962237 279.305003,292.762577 C279.107761,292.563962 278.835953,292.464654 278.49118,292.464654 C278.152822,292.464654 277.884221,292.563962 277.686177,292.762577 C277.488935,292.962237 277.389513,293.23089 277.389513,293.569581 C277.389513,293.915589 277.488935,294.188423 277.686177,294.387038 C277.884221,294.585653 278.152822,294.686005 278.49118,294.686005 Z" id="Shape" fill="#1C1C1D" fill-rule="nonzero"></path>
                <path d="M299.292144,288 C300.139935,288 300.802782,288.331373 301.281506,288.995165 C301.760229,289.650595 302,290.596629 302,291.834313 C302,292.711355 301.869885,293.462956 301.610475,294.089115 C301.356792,294.715275 300.995908,295.18986 300.52946,295.513916 C300.062193,295.837972 299.522913,296 298.91162,296 C298.58838,296 298.279869,295.956096 297.986088,295.867242 C297.691489,295.772116 297.44108,295.639357 297.233224,295.470012 L297.752046,294.154972 C298.046645,294.413171 298.423895,294.541748 298.885434,294.541748 C299.398527,294.541748 299.805237,294.350451 300.105565,293.96681 C300.405074,293.576898 300.566285,293.016595 300.590016,292.287992 C300.226678,292.752123 299.725041,292.984189 299.084288,292.984189 C298.698036,292.984189 298.346154,292.883836 298.02946,292.685221 C297.711948,292.486607 297.461538,292.206455 297.276596,291.845812 C297.092471,291.476806 297,291.053443 297,290.574677 C297,290.059323 297.100655,289.605645 297.302782,289.215732 C297.504092,288.824775 297.778232,288.526852 298.124386,288.32092 C298.476268,288.106625 298.865794,288 299.292144,288 Z M299.396072,291.646152 C299.701309,291.646152 299.949264,291.539527 300.139935,291.326277 C300.336334,291.10571 300.433715,290.825559 300.433715,290.486868 C300.433715,290.147132 300.338789,289.871162 300.148936,289.657912 C299.963993,289.443617 299.707038,289.336992 299.378887,289.336992 C299.07856,289.336992 298.833879,289.440481 298.643208,289.646413 C298.459083,289.853391 298.366612,290.132497 298.366612,290.486868 C298.366612,290.840193 298.459083,291.123481 298.643208,291.337776 C298.833879,291.543708 299.084288,291.646152 299.396072,291.646152 Z" id="Shape" fill="#1C1C1D" fill-rule="nonzero"></path>
                <path d="M318.123988,288.132758 L318.123988,295.867242 L316.448012,295.867242 L316.448012,289.569058 L315,289.569058 L315,288.132758 L318.123988,288.132758 Z M322.897536,296 C322.297785,296 321.763586,295.842153 321.294939,295.525415 C320.825314,295.207631 320.456462,294.751862 320.188384,294.154972 C319.926176,293.550764 319.795072,292.832615 319.795072,291.999477 C319.795072,291.167385 319.926176,290.453417 320.188384,289.856527 C320.456462,289.252319 320.825314,288.791324 321.294939,288.474585 C321.763586,288.157847 322.297785,288 322.897536,288 C323.497287,288 324.031486,288.157847 324.500133,288.474585 C324.969759,288.791324 325.334697,289.252319 325.596905,289.856527 C325.865961,290.453417 326,291.167385 326,291.999477 C326,292.832615 325.865961,293.550764 325.596905,294.154972 C325.334697,294.751862 324.969759,295.207631 324.500133,295.525415 C324.031486,295.842153 323.497287,296 322.897536,296 Z M322.897536,294.486345 C323.338789,294.486345 323.683181,294.283549 323.931691,293.879002 C324.18705,293.473409 324.31424,292.847249 324.31424,291.999477 C324.31424,291.152751 324.18705,290.526591 323.931691,290.120998 C323.683181,289.716451 323.338789,289.513655 322.897536,289.513655 C322.463133,289.513655 322.118741,289.716451 321.863382,290.120998 C321.614871,290.526591 321.490616,291.152751 321.490616,291.999477 C321.490616,292.847249 321.614871,293.473409 321.863382,293.879002 C322.118741,294.283549 322.463133,294.486345 322.897536,294.486345 Z" id="Shape" fill="#1C1C1D" fill-rule="nonzero"></path>
                <path d="M342.292843,289 L342.292843,296 L340.526757,296 L340.526757,290.299905 L339,290.299905 L339,289 L342.292843,289 Z M347,289 L347,296 L345.232882,296 L345.232882,290.299905 L343.706125,290.299905 L343.706125,289 L347,289 Z" id="Shape" fill="#1C1C1D" fill-rule="nonzero"></path>
                <rect id="Rectangle" stroke="#1C1C1D" stroke-width="2" fill="#FFFFFF" fill-rule="nonzero" x="391" y="40" width="158" height="109" rx="9"></rect>
                <path d="M417.24947,55.5614973 L413.272457,64.9197861 L411.989968,64.9197861 L408,55.5614973 L409.39908,55.5614973 L412.663599,63.2486631 L415.954026,55.5614973 L417.24947,55.5614973 Z M421.016437,65 C420.334478,65 419.720993,64.8440604 419.176906,64.5320856 C418.63282,64.2201108 418.205323,63.7923033 417.894416,63.2486631 C417.592763,62.6960466 417.441011,62.0721925 417.441011,61.3770053 C417.441011,60.6818182 417.592763,60.0623568 417.894416,59.5187166 C418.205323,58.9661001 418.63282,58.5382926 419.176906,58.2352941 C419.720993,57.9233193 420.334478,57.7673797 421.016437,57.7673797 C421.699321,57.7673797 422.308179,57.9233193 422.843013,58.2352941 C423.387099,58.5382926 423.810894,58.9661001 424.112548,59.5187166 C424.423454,60.0623568 424.578908,60.6818182 424.578908,61.3770053 C424.578908,62.0721925 424.423454,62.6960466 424.112548,63.2486631 C423.810894,63.7923033 423.387099,64.2201108 422.843013,64.5320856 C422.308179,64.8440604 421.699321,65 421.016437,65 Z M421.016437,63.8770053 C421.456888,63.8770053 421.850147,63.7745416 422.195291,63.5695187 C422.549687,63.355615 422.826357,63.0614973 423.024375,62.6871658 C423.223318,62.3039534 423.322327,61.8671696 423.322327,61.3770053 C423.322327,60.8868411 423.223318,60.4545455 423.024375,60.0802139 C422.826357,59.6970015 422.549687,59.4028839 422.195291,59.197861 C421.850147,58.992838 421.456888,58.8903743 421.016437,58.8903743 C420.575986,58.8903743 420.179025,58.992838 419.824628,59.197861 C419.479485,59.4028839 419.202815,59.6970015 418.995544,60.0802139 C418.797526,60.4545455 418.697592,60.8868411 418.697592,61.3770053 C418.697592,61.8671696 418.797526,62.3039534 418.995544,62.6871658 C419.202815,63.0614973 419.479485,63.355615 419.824628,63.5695187 C420.179025,63.7745416 420.575986,63.8770053 421.016437,63.8770053 Z M426.669199,55 L427.912825,55 L427.912825,64.9197861 L426.669199,64.9197861 L426.669199,55 Z M437.05681,57.8342246 L437.05681,64.9197861 L435.877956,64.9197861 L435.877956,63.8502674 C435.627195,64.2157181 435.295006,64.5008594 434.880464,64.7058824 C434.474249,64.901929 434.030097,65 433.546156,65 C432.631018,65 431.90927,64.7415011 431.382765,64.2245989 C430.856259,63.6987204 430.592544,62.9278075 430.592544,61.9117647 L430.592544,57.8342246 L431.83617,57.8342246 L431.83617,61.7647059 C431.83617,62.4510122 431.99625,62.9724026 432.315484,63.328877 C432.634719,63.6764706 433.092751,63.8502674 433.688655,63.8502674 C434.344705,63.8502674 434.862883,63.6452445 435.243188,63.2352941 C435.623493,62.8253438 435.813183,62.2459893 435.813183,61.4973262 L435.813183,57.8342246 L437.05681,57.8342246 Z M446,61.4171123 C446,61.5151833 445.990747,61.644385 445.974091,61.8048128 L440.403682,61.8048128 C440.481408,62.4286669 440.744199,62.9322956 441.193903,63.315508 C441.651009,63.6898396 442.217303,63.8770053 442.890934,63.8770053 C443.710765,63.8770053 444.371442,63.5917685 444.872964,63.0213904 L445.559549,63.8502674 C445.248642,64.2245989 444.860009,64.5098358 444.393649,64.7058824 C443.935617,64.901929 443.422066,65 442.852071,65 C442.126622,65 441.482602,64.848453 440.921859,64.5454545 C440.360192,64.2334798 439.924367,63.8012796 439.613461,63.2486631 C439.310882,62.6960466 439.160056,62.0721925 439.160056,61.3770053 C439.160056,60.690699 439.306256,60.0713331 439.600506,59.5187166 C439.90216,58.9661001 440.313001,58.5382926 440.831178,58.2352941 C441.357684,57.9233193 441.948961,57.7673797 442.605937,57.7673797 C443.261987,57.7673797 443.844936,57.9233193 444.354786,58.2352941 C444.872964,58.5382926 445.274551,58.9661001 445.559549,59.5187166 C445.852875,60.0713331 446,60.704068 446,61.4171123 Z M442.605937,58.8502674 C442.010032,58.8502674 441.50851,59.0374332 441.103222,59.4117647 C440.705335,59.7860963 440.472155,60.2762605 440.403682,60.8823529 L444.808191,60.8823529 C444.738793,60.2852368 444.500986,59.7994652 444.095697,59.4251337 C443.697811,59.0419213 443.201841,58.8502674 442.605937,58.8502674 Z" id="Shape" fill="#1C1C1D" fill-rule="nonzero"></path>
                <path d="M415.13085,106.163827 C415.659885,106.312676 416.076418,106.583224 416.38045,106.976409 C416.684483,107.361168 416.836034,107.849841 416.836034,108.444299 C416.836034,109.239094 416.53665,109.851339 415.937884,110.279161 C415.347485,110.706984 414.484666,110.921363 413.347567,110.921363 L409,110.921363 L409,101.747051 L413.087234,101.747051 C414.128567,101.747051 414.930952,101.95675 415.495317,102.376147 C416.06805,102.795544 416.354417,103.376896 416.354417,104.119266 C416.354417,104.599513 416.241916,105.015166 416.015984,105.364351 C415.799349,105.713537 415.503685,105.980341 415.13085,106.163827 Z M410.301667,102.80865 L410.301667,105.74443 L412.970084,105.74443 C413.638582,105.74443 414.149951,105.621794 414.50605,105.377457 C414.870517,105.12376 415.05275,104.756787 415.05275,104.27654 C415.05275,103.796293 414.870517,103.433065 414.50605,103.188729 C414.149951,102.935031 413.638582,102.80865 412.970084,102.80865 L410.301667,102.80865 Z M413.2955,109.859764 C414.032801,109.859764 414.588799,109.737128 414.961634,109.492792 C415.334468,109.248455 415.52135,108.863696 415.52135,108.33945 C415.52135,107.317169 414.7794,106.806029 413.2955,106.806029 L410.301667,106.806029 L410.301667,109.859764 L413.2955,109.859764 Z M425.276413,107.487549 C425.276413,107.583973 425.267115,107.710354 425.250379,107.867628 L419.653212,107.867628 C419.731312,108.478937 419.995365,108.973226 420.447229,109.348624 C420.906532,109.715596 421.475546,109.899083 422.152413,109.899083 C422.976182,109.899083 423.640032,109.619172 424.143963,109.060288 L424.833846,109.87287 C424.521446,110.239843 424.130946,110.519753 423.662346,110.711664 C423.202114,110.903576 422.686096,111 422.113363,111 C421.384429,111 420.737315,110.851151 420.173879,110.554391 C419.609514,110.248268 419.171596,109.825126 418.859196,109.283093 C418.555164,108.74106 418.403612,108.129751 418.403612,107.448231 C418.403612,106.775136 418.550515,106.168508 418.846179,105.626474 C419.149281,105.084441 419.562096,104.665044 420.082762,104.368283 C420.611797,104.062161 421.205915,103.909567 421.866046,103.909567 C422.525247,103.909567 423.110997,104.062161 423.623296,104.368283 C424.143963,104.665044 424.547479,105.084441 424.833846,105.626474 C425.128581,106.168508 425.276413,106.788242 425.276413,107.487549 Z M421.866046,104.971166 C421.267279,104.971166 420.763348,105.154653 420.356113,105.521625 C419.956315,105.888598 419.722015,106.368845 419.653212,106.963303 L424.078879,106.963303 C424.009147,106.378206 423.770198,105.901704 423.362963,105.534731 C422.963165,105.159333 422.464813,104.971166 421.866046,104.971166 Z M429.361787,111 C428.797421,111 428.25537,110.926044 427.734703,110.777195 C427.214037,110.619921 426.805871,110.423329 426.511137,110.187418 L427.031803,109.19135 C427.335835,109.409474 427.704021,109.584535 428.13822,109.715596 C428.572419,109.846658 429.010337,109.912189 429.452903,109.912189 C430.546304,109.912189 431.093004,109.597641 431.093004,108.968545 C431.093004,108.758847 431.019552,108.593147 430.87172,108.470511 C430.723888,108.347875 430.537936,108.260813 430.312004,108.208388 C430.095369,108.147538 429.782969,108.082007 429.374803,108.011796 C428.819736,107.924733 428.364152,107.823629 428.008053,107.710354 C427.661252,107.597079 427.361869,107.404231 427.109903,107.133683 C426.857938,106.863134 426.73242,106.483056 426.73242,105.993447 C426.73242,105.364351 426.992753,104.861636 427.51342,104.486239 C428.034087,104.101479 428.732338,103.909567 429.609103,103.909567 C430.069336,103.909567 430.528638,103.966673 430.98887,104.079948 C431.449102,104.193222 431.826586,104.346752 432.12132,104.538663 L431.587637,105.534731 C431.023271,105.167759 430.359421,104.984273 429.596087,104.984273 C429.067052,104.984273 428.663536,105.071335 428.385537,105.246396 C428.107538,105.421457 427.969003,105.652687 427.969003,105.941022 C427.969003,106.168508 428.047103,106.347313 428.203303,106.478375 C428.359503,106.609436 428.550105,106.70586 428.776037,106.76671 C429.010337,106.82756 429.335753,106.897772 429.752287,106.976409 C430.307355,107.072833 430.75457,107.177682 431.093004,107.290957 C431.439805,107.395806 431.735469,107.579292 431.978137,107.841415 C432.220805,108.103539 432.342604,108.470511 432.342604,108.942333 C432.342604,109.571429 432.073902,110.074143 431.53557,110.449541 C431.006536,110.816514 430.281321,111 429.361787,111 Z M438.155475,110.515072 C437.973242,110.672346 437.74731,110.794982 437.478609,110.882045 C437.208978,110.960682 436.931909,111 436.645542,111 C435.95101,111 435.412678,110.811833 435.031475,110.436435 C434.649343,110.061037 434.458742,109.523685 434.458742,108.824377 L434.458742,105.010485 L433.287242,105.010485 L433.287242,103.975098 L434.458742,103.975098 L434.458742,102.454784 L435.708342,102.454784 L435.708342,103.975098 L437.686875,103.975098 L437.686875,105.010485 L435.708342,105.010485 L435.708342,108.771953 C435.708342,109.147351 435.799459,109.435686 435.981692,109.636959 C436.172293,109.838233 436.440994,109.938401 436.788725,109.938401 C437.169928,109.938401 437.495344,109.828871 437.764975,109.610747 L438.155475,110.515072 Z M447.640907,101.747051 C448.821704,101.747051 449.749607,102.030706 450.426474,102.598952 C451.10334,103.167197 451.441774,103.948886 451.441774,104.944954 C451.441774,105.941022 451.10334,106.722711 450.426474,107.290957 C449.749607,107.859202 448.821704,108.142857 447.640907,108.142857 L445.389023,108.142857 L445.389023,110.921363 L444.087357,110.921363 L444.087357,101.747051 L447.640907,101.747051 Z M447.601857,107.002621 C448.426556,107.002621 449.056004,106.82756 449.489274,106.478375 C449.923472,106.119828 450.140107,105.608688 450.140107,104.944954 C450.140107,104.281221 449.923472,103.773825 449.489274,103.42464 C449.056004,103.066092 448.426556,102.887287 447.601857,102.887287 L445.389023,102.887287 L445.389023,107.002621 L447.601857,107.002621 Z M454.627138,105.141547 C454.843773,104.739936 455.16547,104.433814 455.590371,104.224115 C456.015273,104.014417 456.53222,103.909567 457.139355,103.909567 L457.139355,105.12844 C457.069623,105.120015 456.974787,105.115334 456.852988,105.115334 C456.176122,105.115334 455.642438,105.320352 455.251938,105.731324 C454.869806,106.132934 454.679205,106.709605 454.679205,107.461337 L454.679205,110.921363 L453.429605,110.921363 L453.429605,103.975098 L454.627138,103.975098 L454.627138,105.141547 Z M459.051875,103.975098 L460.301475,103.975098 L460.301475,110.921363 L459.051875,110.921363 L459.051875,103.975098 Z M459.676675,102.63827 C459.433078,102.63827 459.22946,102.559633 459.064892,102.402359 C458.908692,102.245085 458.830592,102.053174 458.830592,101.825688 C458.830592,101.598203 458.908692,101.406291 459.064892,101.249017 C459.22946,101.083318 459.433078,101 459.676675,101 C459.919343,101 460.119242,101.078637 460.275442,101.235911 C460.44001,101.384759 460.522759,101.57199 460.522759,101.799476 C460.522759,102.035387 460.44001,102.23666 460.275442,102.402359 C460.119242,102.559633 459.919343,102.63827 459.676675,102.63827 Z M466.065999,111 C465.363099,111 464.733651,110.847407 464.178583,110.541284 C463.631883,110.235162 463.202333,109.815765 462.889933,109.283093 C462.577533,108.74106 462.421333,108.129751 462.421333,107.448231 C462.421333,106.76671 462.577533,106.159146 462.889933,105.626474 C463.202333,105.084441 463.631883,104.665044 464.178583,104.368283 C464.733651,104.062161 465.363099,103.909567 466.065999,103.909567 C466.690799,103.909567 467.245867,104.035948 467.732133,104.289646 C468.226766,104.543344 468.607969,104.910316 468.8776,105.390564 L467.927383,106.006553 C467.709819,105.674218 467.441117,105.425201 467.120349,105.259502 C466.798652,105.093803 466.443483,105.010485 466.052983,105.010485 C465.601118,105.010485 465.193883,105.110653 464.829416,105.311927 C464.473317,105.5132 464.191599,105.801535 463.983333,106.176933 C463.783434,106.543906 463.683949,106.967984 463.683949,107.448231 C463.683949,107.937839 463.783434,108.370343 463.983333,108.74574 C464.191599,109.112713 464.473317,109.396368 464.829416,109.597641 C465.193883,109.798914 465.601118,109.899083 466.052983,109.899083 C466.443483,109.899083 466.798652,109.815765 467.120349,109.650066 C467.441117,109.484366 467.709819,109.235349 467.927383,108.903014 L468.8776,109.505898 C468.607969,109.986145 468.226766,110.357798 467.732133,110.619921 C467.245867,110.873619 466.690799,111 466.065999,111 Z M477,107.487549 C477,107.583973 476.991632,107.710354 476.973967,107.867628 L471.3768,107.867628 C471.4549,108.478937 471.719882,108.973226 472.170816,109.348624 C472.631049,109.715596 473.199133,109.899083 473.876,109.899083 C474.700699,109.899083 475.364549,109.619172 475.86755,109.060288 L476.557433,109.87287 C476.245033,110.239843 475.854533,110.519753 475.385933,110.711664 C474.926631,110.903576 474.409683,111 473.83695,111 C473.108016,111 472.461832,110.851151 471.897466,110.554391 C471.334031,110.248268 470.895183,109.825126 470.582783,109.283093 C470.279681,108.74106 470.1272,108.129751 470.1272,107.448231 C470.1272,106.775136 470.275032,106.168508 470.569766,105.626474 C470.873798,105.084441 471.285683,104.665044 471.80635,104.368283 C472.336314,104.062161 472.930432,103.909567 473.589633,103.909567 C474.249764,103.909567 474.835514,104.062161 475.346883,104.368283 C475.86755,104.665044 476.271067,105.084441 476.557433,105.626474 C476.853098,106.168508 477,106.788242 477,107.487549 Z M473.589633,104.971166 C472.990866,104.971166 472.487865,105.154653 472.0797,105.521625 C471.680832,105.888598 471.446532,106.368845 471.3768,106.963303 L475.802467,106.963303 C475.733664,106.378206 475.494715,105.901704 475.08655,105.534731 C474.687682,105.159333 474.1884,104.971166 473.589633,104.971166 Z" id="Shape" fill="#1C1C1D" fill-rule="nonzero"></path>
                <path d="M413.592932,73.2154696 L413.592932,85.7845304 L410.59275,85.7845304 L410.59275,75.5497238 L408,75.5497238 L408,73.2154696 L413.592932,73.2154696 Z M421.771207,86 C420.697067,86 419.740528,85.7426036 418.900662,85.2279006 C418.060796,84.7131975 417.400571,83.9709945 416.91906,83.0013812 C416.449587,82.0198273 416.215314,80.8527003 416.215314,79.5 C416.215314,78.1472997 416.449587,76.9861878 416.91906,76.0165746 C417.400571,75.0350207 418.060796,74.2868025 418.900662,73.7720994 C419.740528,73.2573964 420.697067,73 421.771207,73 C422.845346,73 423.801885,73.2573964 424.641751,73.7720994 C425.481617,74.2868025 426.13536,75.0350207 426.604833,76.0165746 C427.086344,76.9861878 427.327099,78.1472997 427.327099,79.5 C427.327099,80.8527003 427.086344,82.0198273 426.604833,83.0013812 C426.13536,83.9709945 425.481617,84.7131975 424.641751,85.2279006 C423.801885,85.7426036 422.845346,86 421.771207,86 Z M421.771207,83.5400552 C422.561069,83.5400552 423.178699,83.2108356 423.623171,82.5524862 C424.07968,81.8941367 424.308398,80.8765815 424.308398,79.5 C424.308398,78.1234185 424.07968,77.1058633 423.623171,76.4475138 C423.178699,75.7891644 422.561069,75.4599448 421.771207,75.4599448 C420.993382,75.4599448 420.375751,75.7891644 419.919242,76.4475138 C419.474771,77.1058633 419.252535,78.1234185 419.252535,79.5 C419.252535,80.8765815 419.474771,81.8941367 419.919242,82.5524862 C420.375751,83.2108356 420.993382,83.5400552 421.771207,83.5400552 Z M440.826067,78.3328729 C441.962247,78.5124309 442.83267,78.9254144 443.437337,79.5718232 C444.042929,80.2062914 444.344799,80.9963467 444.344799,81.941989 C444.344799,82.6721616 444.147565,83.3485566 443.752171,83.9709945 C443.357702,84.5814917 442.75211,85.0723135 441.937246,85.4433702 C441.135345,85.8144268 440.147322,86 438.974103,86 C438.061084,86 437.159178,85.88625 436.270235,85.6588398 C435.394256,85.4193992 434.646988,85.0842541 434.029358,84.6533149 L435.196096,82.4267956 C435.69057,82.7859116 436.258197,83.0671892 436.899903,83.2707182 C437.554572,83.4622169 438.221279,83.558011 438.900024,83.558011 C439.653774,83.558011 440.246402,83.4203798 440.67791,83.1450276 C441.110344,82.8577348 441.326098,82.456692 441.326098,81.941989 C441.326098,80.9124931 440.517715,80.3977901 438.900024,80.3977901 L437.529571,80.3977901 L437.529571,78.4765193 L440.196399,75.5497238 L434.677546,75.5497238 L434.677546,73.2154696 L443.752171,73.2154696 L443.752171,75.1008287 L440.826067,78.3328729 Z M457.971553,83.1450276 L455.860313,83.1450276 L455.860313,85.7845304 L452.93421,85.7845304 L452.93421,83.1450276 L445.952304,83.1450276 L445.952304,81.1878453 L452.063787,73.2154696 L455.212126,73.2154696 L449.545115,80.7748619 L453.026808,80.7748619 L453.026808,78.4226519 L455.860313,78.4226519 L455.860313,80.7748619 L457.971553,80.7748619 L457.971553,83.1450276 Z M463.647823,77.9378453 C465.475712,77.9378453 466.821164,78.2909461 467.685105,78.9972376 C468.56201,79.703529 469,80.6491713 469,81.8342541 C469,82.6003384 468.802766,83.3006146 468.407371,83.9350829 C468.012903,84.5575207 467.407311,85.0602831 466.592446,85.4433702 C465.790546,85.8144268 464.796041,86 463.610784,86 C462.697765,86 461.795859,85.88625 460.906916,85.6588398 C460.030937,85.4193992 459.283669,85.0842541 458.666039,84.6533149 L459.851296,82.4267956 C460.345771,82.7859116 460.913398,83.0671892 461.555104,83.2707182 C462.197735,83.4622169 462.85796,83.558011 463.536705,83.558011 C464.290455,83.558011 464.883083,83.4143646 465.314591,83.1270718 C465.747025,82.839779 465.962779,82.4387362 465.962779,81.9240331 C465.962779,81.3853591 465.734987,80.9783909 465.277552,80.7030387 C464.83308,80.4276865 464.055255,80.2900552 462.944077,80.2900552 L459.629061,80.2900552 L460.295768,73.2154696 L468.203655,73.2154696 L468.203655,75.5497238 L462.79592,75.5497238 L462.592204,77.9378453 L463.647823,77.9378453 Z" id="Shape" fill="#1C1C1D" fill-rule="nonzero"></path>
                <path d="M418.438487,129.414365 L418.438487,131.78453 L408.595422,131.78453 L408.595422,129.899171 L413.619292,125.320442 C414.152381,124.829351 414.512425,124.410981 414.698494,124.063536 C414.884564,123.70442 414.977598,123.351588 414.977598,123.004144 C414.977598,122.501381 414.798041,122.118025 414.437997,121.854972 C414.090978,121.579351 413.575566,121.441989 412.893622,121.441989 C412.32332,121.441989 411.807908,121.549724 411.349247,121.765193 C410.890586,121.968992 410.505423,122.279627 410.195618,122.698895 L408,121.334254 C408.508899,120.604351 409.20945,120.035152 410.102583,119.628453 C410.995716,119.209185 412.019097,119 413.172726,119 C414.140286,119 414.984111,119.155318 415.703268,119.466851 C416.435451,119.765815 416.999241,120.196754 417.396499,120.759669 C417.805851,121.310014 418.010528,121.962707 418.010528,122.716851 C418.010528,123.399171 417.861672,124.039296 417.563961,124.638122 C417.26625,125.236948 416.689436,125.919268 415.833517,126.685083 L412.837801,129.414365 L418.438487,129.414365 Z M426.138964,124.332873 C427.280499,124.512431 428.155025,124.925414 428.762541,125.571823 C429.370058,126.206561 429.674281,126.996616 429.674281,127.941989 C429.674281,128.671892 429.476117,129.348826 429.078859,129.970994 C428.681601,130.581492 428.074085,131.072583 427.25538,131.44337 C426.44877,131.814157 425.45702,132 424.278272,132 C423.36002,132 422.454793,131.885981 421.56166,131.65884 C420.680622,131.41913 419.930763,131.084254 419.310222,130.653315 L420.482458,128.426796 C420.978333,128.785912 421.549565,129.06692 422.194296,129.270718 C422.85205,129.461948 423.5219,129.558011 424.203844,129.558011 C424.960215,129.558011 425.555637,129.420649 425.990109,129.145028 C426.424581,128.857735 426.641351,128.456423 426.641351,127.941989 C426.641351,126.912224 425.829159,126.39779 424.203844,126.39779 L422.826931,126.39779 L422.826931,124.476519 L425.506329,121.549724 L419.961464,121.549724 L419.961464,119.21547 L429.078859,119.21547 L429.078859,121.100829 L426.138964,124.332873 Z M436.462088,119.21547 L436.462088,131.78453 L433.447766,131.78453 L433.447766,121.549724 L430.842796,121.549724 L430.842796,119.21547 L436.462088,119.21547 Z M449.204113,123.937845 C451.039687,123.937845 452.39241,124.290677 453.260424,124.997238 C454.141462,125.703798 454.581515,126.649171 454.581515,127.834254 C454.581515,128.600069 454.383352,129.300345 453.986094,129.935083 C453.588836,130.557251 452.98132,131.060014 452.162615,131.44337 C451.356004,131.814157 450.357743,132 449.166899,132 C448.248647,132 447.34342,131.885981 446.450288,131.65884 C445.56925,131.41913 444.81939,131.084254 444.198849,130.653315 L445.389693,128.426796 C445.885567,128.785912 446.4568,129.06692 447.10153,129.270718 C447.74626,129.461948 448.410528,129.558011 449.092472,129.558011 C449.848843,129.558011 450.444265,129.414365 450.878737,129.127072 C451.313208,128.839779 451.529979,128.438467 451.529979,127.924033 C451.529979,127.385359 451.300184,126.97866 450.841523,126.703039 C450.394957,126.427417 449.613466,126.290055 448.49705,126.290055 L445.16641,126.290055 L445.836259,119.21547 L453.781418,119.21547 L453.781418,121.549724 L448.348194,121.549724 L448.143518,123.937845 L449.204113,123.937845 Z M462.446664,123.901934 C463.278394,123.901934 464.034766,124.063536 464.71671,124.38674 C465.399584,124.709945 465.939185,125.170511 466.335512,125.769337 C466.73277,126.355594 466.930934,127.037914 466.930934,127.816298 C466.930934,128.653936 466.714163,129.390124 466.279692,130.024862 C465.84615,130.659599 465.250728,131.149793 464.493426,131.497238 C463.749149,131.832113 462.91835,132 462.000098,132 C460.176619,132 458.750398,131.461326 457.720504,130.383978 C456.691541,129.30663 456.176129,127.768715 456.176129,125.769337 C456.176129,124.344544 456.455233,123.12355 457.013441,122.106354 C457.571649,121.089157 458.347558,120.317058 459.339307,119.790055 C460.344081,119.263052 461.504223,119 462.818803,119 C463.513772,119 464.177109,119.078108 464.809744,119.233425 C465.455405,119.377072 466.000588,119.586257 466.447154,119.861878 L465.330738,121.998619 C464.686008,121.579351 463.873816,121.370166 462.893231,121.370166 C461.78984,121.370166 460.915314,121.681699 460.269654,122.303867 C459.624923,122.926036 459.277904,123.83011 459.227666,125.015193 C459.997062,124.272721 461.069751,123.901934 462.446664,123.901934 Z M461.832636,129.827348 C462.478296,129.827348 462.99929,129.659461 463.395618,129.324586 C463.80497,128.98971 464.009646,128.53453 464.009646,127.959945 C464.009646,127.385359 463.80497,126.93018 463.395618,126.595304 C462.99929,126.247859 462.465271,126.074586 461.795422,126.074586 C461.138597,126.074586 460.598996,126.254144 460.176619,126.61326 C459.755172,126.960704 459.543983,127.409599 459.543983,127.959945 C459.543983,128.51029 459.74866,128.959185 460.158012,129.30663 C460.567364,129.654075 461.125572,129.827348 461.832636,129.827348 Z M478.52026,119.21547 L478.52026,121.100829 L473.682458,131.78453 L470.407639,131.78453 L475.077978,121.585635 L470.76117,121.585635 L470.76117,123.632597 L468.081773,123.632597 L468.081773,119.21547 L478.52026,119.21547 Z M491.457657,132 C490.378455,132 489.417407,131.742334 488.573583,131.227901 C487.729759,130.713467 487.066422,129.970994 486.582642,129.001381 C486.110956,128.020097 485.875578,126.85297 485.875578,125.5 C485.875578,124.14703 486.110956,122.986188 486.582642,122.016575 C487.066422,121.03529 487.729759,120.286533 488.573583,119.772099 C489.417407,119.257666 490.378455,119 491.457657,119 C492.536859,119 493.497907,119.257666 494.341731,119.772099 C495.185555,120.286533 495.84238,121.03529 496.314065,122.016575 C496.797846,122.986188 497.039736,124.14703 497.039736,125.5 C497.039736,126.85297 496.797846,128.020097 496.314065,129.001381 C495.84238,129.970994 495.185555,130.713467 494.341731,131.227901 C493.497907,131.742334 492.536859,132 491.457657,132 Z M491.457657,129.540055 C492.251243,129.540055 492.871784,129.210566 493.31835,128.552486 C493.777011,127.894406 494.006806,126.876312 494.006806,125.5 C494.006806,124.123688 493.777011,123.105594 493.31835,122.447514 C492.871784,121.789434 492.251243,121.459945 491.457657,121.459945 C490.676166,121.459945 490.055625,121.789434 489.596964,122.447514 C489.150398,123.105594 488.927115,124.123688 488.927115,125.5 C488.927115,126.876312 489.150398,127.894406 489.596964,128.552486 C490.055625,129.210566 490.676166,129.540055 491.457657,129.540055 Z M503.453544,119 C505.277023,119 506.704174,119.538674 507.733137,120.616022 C508.763031,121.681699 509.277513,123.219613 509.277513,125.230663 C509.277513,126.655456 508.998409,127.87645 508.440201,128.893646 C507.895018,129.910843 507.119109,130.682942 506.114335,131.209945 C505.109561,131.736948 503.950349,132 502.634839,132 C501.940801,132 501.276533,131.928177 500.643898,131.78453 C500.011262,131.629213 499.471661,131.413743 499.025095,131.138122 L500.141511,129.001381 C500.774146,129.420649 501.587269,129.629834 502.579018,129.629834 C503.683339,129.629834 504.557865,129.318301 505.202595,128.696133 C505.848256,128.061395 506.195275,127.151934 506.244583,125.966851 C505.463092,126.720994 504.38389,127.098066 503.006978,127.098066 C502.176178,127.098066 501.419807,126.936464 500.736932,126.61326 C500.054988,126.290055 499.515387,125.834876 499.11813,125.248619 C498.721802,124.649793 498.522708,123.962086 498.522708,123.183702 C498.522708,122.346064 498.740409,121.609876 499.17395,120.975138 C499.608422,120.340401 500.197331,119.855594 500.941609,119.520718 C501.698911,119.173273 502.536222,119 503.453544,119 Z M503.676827,124.925414 C504.334582,124.925414 504.86767,124.752141 505.277023,124.404696 C505.6994,124.04558 505.909658,123.590401 505.909658,123.040055 C505.909658,122.48971 505.704982,122.040815 505.29563,121.69337 C504.899302,121.345925 504.346676,121.172652 503.639613,121.172652 C502.994883,121.172652 502.467377,121.340539 502.058024,121.675414 C501.661697,122.01029 501.462603,122.46547 501.462603,123.040055 C501.462603,123.614641 501.661697,124.075207 502.058024,124.422652 C502.467377,124.757528 503.006978,124.925414 503.676827,124.925414 Z M520.009059,125.176796 C520.653789,125.488329 521.144081,125.895028 521.479006,126.39779 C521.826025,126.900552 522,127.481423 522,128.139503 C522,128.917887 521.770204,129.600207 521.311544,130.186464 C520.851953,130.76105 520.207222,131.209945 519.376423,131.533149 C518.544693,131.844682 517.583645,132 516.492349,132 C515.400122,132 514.439075,131.844682 513.608275,131.533149 C512.78957,131.209945 512.150422,130.76105 511.691762,130.186464 C511.245195,129.600207 511.021912,128.917887 511.021912,128.139503 C511.021912,127.481423 511.189374,126.900552 511.524299,126.39779 C511.871318,125.895028 512.361611,125.488329 512.994247,125.176796 C512.510466,124.889503 512.138328,124.530387 511.877831,124.099448 C511.617334,123.656837 511.487085,123.154075 511.487085,122.59116 C511.487085,121.861257 511.697344,121.226519 512.119721,120.687845 C512.541168,120.149171 513.130077,119.736188 513.887379,119.448895 C514.643751,119.149931 515.511764,119 516.492349,119 C517.484098,119 518.358624,119.149931 519.115926,119.448895 C519.884392,119.736188 520.479814,120.149171 520.902191,120.687845 C521.323638,121.226519 521.534827,121.861257 521.534827,122.59116 C521.534827,123.154075 521.404578,123.656837 521.144081,124.099448 C520.883584,124.530387 520.504933,124.889503 520.009059,125.176796 Z M516.492349,121.13674 C515.883903,121.13674 515.39454,121.280387 515.022402,121.56768 C514.662358,121.843301 514.482801,122.22576 514.482801,122.716851 C514.482801,123.195373 514.662358,123.572445 515.022402,123.848066 C515.381515,124.123688 515.871808,124.26105 516.492349,124.26105 C517.11196,124.26105 517.608765,124.123688 517.980903,123.848066 C518.353042,123.572445 518.539111,123.195373 518.539111,122.716851 C518.539111,122.22576 518.353042,121.843301 517.980903,121.56768 C517.608765,121.280387 517.11196,121.13674 516.492349,121.13674 Z M516.492349,129.86326 C517.248721,129.86326 517.844142,129.701657 518.278614,129.378453 C518.725181,129.043577 518.948464,128.600069 518.948464,128.049724 C518.948464,127.499378 518.725181,127.062155 518.278614,126.73895 C517.844142,126.415746 517.248721,126.254144 516.492349,126.254144 C515.748072,126.254144 515.158232,126.415746 514.724691,126.73895 C514.290219,127.062155 514.073448,127.499378 514.073448,128.049724 C514.073448,128.612638 514.290219,129.055249 514.724691,129.378453 C515.158232,129.701657 515.748072,129.86326 516.492349,129.86326 Z" id="Shape" fill="#1C1C1D" fill-rule="nonzero"></path>
                <rect id="Rectangle" stroke="#1C1C1D" stroke-width="2" fill="#FFFFFF" fill-rule="nonzero" x="391" y="162" width="158" height="145" rx="9"></rect>
                <g id="Group" opacity="0.5" transform="translate(404.000000, 197.000000)">
                    <g id="Clipped" transform="translate(0.000000, 94.978946)">
                        <mask id="mask-2" fill="white">
                            <use xlink:href="#path-1"></use>
                        </mask>
                        <g id="Path"></g>
                        <path d="M1.81188398e-13,-0.46558307 C-0.513398601,-0.46558307 -0.93006993,-0.0484206392 -0.93006993,0.46558307 C-0.93006993,0.979586779 -0.513398601,1.39674921 1.81188398e-13,1.39674921 L1.81188398e-13,-0.46558307 Z M133,1.39674921 C133.513399,1.39674921 133.93007,0.979586779 133.93007,0.46558307 C133.93007,-0.0484206392 133.513399,-0.46558307 133,-0.46558307 L133,1.39674921 Z M1.84741111e-13,1.39674921 L133,1.39674921 L133,-0.46558307 L1.84741111e-13,-0.46558307 L1.84741111e-13,1.39674921 Z" id="Shape" fill="#E7E7E7" fill-rule="nonzero" mask="url(#mask-2)"></path>
                    </g>
                    <g id="Clipped" transform="translate(0.000000, 68.906294)">
                        <mask id="mask-4" fill="white">
                            <use xlink:href="#path-3"></use>
                        </mask>
                        <g id="Path"></g>
                        <path d="M1.81188398e-13,-0.46558307 C-0.513398601,-0.46558307 -0.93006993,-0.0484206392 -0.93006993,0.46558307 C-0.93006993,0.979586779 -0.513398601,1.39674921 1.81188398e-13,1.39674921 L1.81188398e-13,-0.46558307 Z M133,1.39674921 C133.513399,1.39674921 133.93007,0.979586779 133.93007,0.46558307 C133.93007,-0.0484206392 133.513399,-0.46558307 133,-0.46558307 L133,1.39674921 Z M1.84741111e-13,1.39674921 L133,1.39674921 L133,-0.46558307 L1.84741111e-13,-0.46558307 L1.84741111e-13,1.39674921 Z" id="Shape" fill="#E7E7E7" fill-rule="nonzero" mask="url(#mask-4)"></path>
                    </g>
                    <g id="Clipped" transform="translate(0.000000, 46.558307)">
                        <mask id="mask-6" fill="white">
                            <use xlink:href="#path-5"></use>
                        </mask>
                        <g id="Path"></g>
                        <path d="M1.81188398e-13,-0.46558307 C-0.513398601,-0.46558307 -0.93006993,-0.0484206392 -0.93006993,0.46558307 C-0.93006993,0.979586779 -0.513398601,1.39674921 1.81188398e-13,1.39674921 L1.81188398e-13,-0.46558307 Z M133,1.39674921 C133.513399,1.39674921 133.93007,0.979586779 133.93007,0.46558307 C133.93007,-0.0484206392 133.513399,-0.46558307 133,-0.46558307 L133,1.39674921 Z M1.84741111e-13,1.39674921 L133,1.39674921 L133,-0.46558307 L1.84741111e-13,-0.46558307 L1.84741111e-13,1.39674921 Z" id="Shape" fill="#E7E7E7" fill-rule="nonzero" mask="url(#mask-6)"></path>
                    </g>
                    <g id="Clipped" transform="translate(0.000000, 24.210320)">
                        <mask id="mask-8" fill="white">
                            <use xlink:href="#path-7"></use>
                        </mask>
                        <g id="Path"></g>
                        <path d="M1.81188398e-13,-0.46558307 C-0.513398601,-0.46558307 -0.93006993,-0.0484206392 -0.93006993,0.46558307 C-0.93006993,0.979586779 -0.513398601,1.39674921 1.81188398e-13,1.39674921 L1.81188398e-13,-0.46558307 Z M133,1.39674921 C133.513399,1.39674921 133.93007,0.979586779 133.93007,0.46558307 C133.93007,-0.0484206392 133.513399,-0.46558307 133,-0.46558307 L133,1.39674921 Z M1.84741111e-13,1.39674921 L133,1.39674921 L133,-0.46558307 L1.84741111e-13,-0.46558307 L1.84741111e-13,1.39674921 Z" id="Shape" fill="#E7E7E7" fill-rule="nonzero" mask="url(#mask-8)"></path>
                    </g>
                    <g id="Clipped">
                        <mask id="mask-10" fill="white">
                            <use xlink:href="#path-9"></use>
                        </mask>
                        <g id="Path"></g>
                        <path d="M1.81188398e-13,-0.46558307 C-0.513398601,-0.46558307 -0.93006993,-0.0484206392 -0.93006993,0.46558307 C-0.93006993,0.979586779 -0.513398601,1.39674921 1.81188398e-13,1.39674921 L1.81188398e-13,-0.46558307 Z M133,1.39674921 C133.513399,1.39674921 133.93007,0.979586779 133.93007,0.46558307 C133.93007,-0.0484206392 133.513399,-0.46558307 133,-0.46558307 L133,1.39674921 Z M1.84741111e-13,1.39674921 L133,1.39674921 L133,-0.46558307 L1.84741111e-13,-0.46558307 L1.84741111e-13,1.39674921 Z" id="Shape" fill="#E7E7E7" fill-rule="nonzero" mask="url(#mask-10)"></path>
                    </g>
                </g>
                <path d="M403,292 C403,292 417.985915,260.449346 428.288732,260.449346 C438.591549,260.449346 438.591549,289.266124 450.767606,275.322522 C462.943662,261.37892 469.5,214.900245 477.929577,226.9847 C486.359155,239.069156 490.105634,250.224038 503.21831,246.505744 C516.330986,242.78745 536,246.450899 536,246.450899" id="Path" stroke="#1C1C1D" stroke-width="2"></path>
                <path d="M476,230 C478.209,230 480,228.209 480,226 C480,223.791 478.209,222 476,222 C473.791,222 472,223.791 472,226 C472,228.209 473.791,230 476,230 Z" id="Path" stroke="#1C1C1D" stroke-width="2" fill="#F95A2C"></path>
                <path d="M446,282 C448.209,282 450,280.209 450,278 C450,275.791 448.209,274 446,274 C443.791,274 442,275.791 442,278 C442,280.209 443.791,282 446,282 Z" id="Path" stroke="#1C1C1D" stroke-width="2" fill="#F95A2C"></path>
                <path d="M528,249 C530.209,249 532,247.209 532,245 C532,242.791 530.209,241 528,241 C525.791,241 524,242.791 524,245 C524,247.209 525.791,249 528,249 Z" id="Path" stroke="#1C1C1D" stroke-width="2" fill="#F95A2C"></path>
                <rect id="Rectangle" stroke="#1C1C1D" stroke-width="1.40149" fill="#FFFFFF" fill-rule="nonzero" x="88" y="95" width="284" height="12" rx="6"></rect>
                <rect id="Rectangle" stroke="#1C1C1D" stroke-width="1.40149" fill="#FFFFFF" fill-rule="nonzero" x="88" y="112" width="268" height="12" rx="6"></rect>
                <rect id="Rectangle" stroke="#1C1C1D" stroke-width="1.40149" fill="#FFFFFF" fill-rule="nonzero" x="88" y="128" width="196" height="12" rx="6"></rect>
            </g>
        </g>
    </g>
</svg>