<?xml version="1.0" encoding="UTF-8"?>
<svg width="29px" height="38px" viewBox="0 0 29 38" version="1.1" xmlns="http://www.w3.org/2000/svg" xmlns:xlink="http://www.w3.org/1999/xlink">
    <title>Color</title>
    <g id="🧠-Symbols" stroke="none" stroke-width="1" fill="none" fill-rule="evenodd">
        <g id="UI/Logo/Software/Zip" transform="translate(-6.000000, -1.000000)" fill="#495057">
            <path d="M18.375004,26.6666667 C21.1594396,26.6666667 23.4166707,28.9238977 23.4166707,31.7083333 L23.4166707,31.7083333 L23.4166707,35.375 C23.4166707,37.1469136 21.9802509,38.5833333 20.2083373,38.5833333 L20.2083373,38.5833333 L16.5416707,38.5833333 C14.7697571,38.5833333 13.3333373,37.1469136 13.3333373,35.375 L13.3333373,35.375 L13.3333373,31.7083333 C13.3333373,28.9238977 15.5905684,26.6666667 18.375004,26.6666667 Z M23.875,1 C24.1875765,1 24.4891796,1.10643185 24.7313585,1.29922659 L24.8472716,1.40272796 L34.0139423,10.5693946 C34.2349674,10.7904197 34.3729744,11.0789441 34.4078942,11.3865171 L34.4166707,11.5416667 L34.4166707,31.7083333 C34.4166707,34.4194952 32.2766773,36.6308333 29.5936973,36.745342 L29.375,36.75 L27.5416707,36.75 C26.7822791,36.75 26.1666707,36.1343915 26.1666707,35.375 C26.1666707,34.6602786 26.7119847,34.072922 27.409249,34.0062944 L27.5416707,34 L29.375,34 C30.5879205,34 31.5807534,33.0577061 31.6613837,31.8652349 L31.6666707,31.7083333 L31.6663373,12.11 L23.3053373,3.75 L11.0416707,3.75 C9.82875246,3.75 8.83591744,4.69229534 8.75528695,5.88476524 L8.75,6.04166667 L8.74999851,31.7103558 C8.74887859,32.471732 9.12555871,33.1797938 9.74791434,33.6053058 L9.89583584,33.6983809 C10.5534887,34.0780758 10.7788181,34.9190123 10.3991231,35.5766652 C10.0194282,36.234318 9.17849166,36.4596474 8.52083883,36.0799525 C7.02656257,35.2172342 6.08207474,33.6537611 6.00509087,31.9425448 L6,31.7083333 L6,6.04166667 C6,3.33050597 8.13999611,1.11916675 10.8229736,1.00465801 L11.0416707,1 L23.875,1 Z M18.375004,29.4166667 C17.1093514,29.4166667 16.0833373,30.4426808 16.0833373,31.7083333 L16.0833373,31.7083333 L16.0833373,35.375 C16.0833373,35.6281305 16.2885402,35.8333333 16.5416707,35.8333333 L16.5416707,35.8333333 L20.2083373,35.8333333 C20.4614678,35.8333333 20.6666707,35.6281305 20.6666707,35.375 L20.6666707,35.375 L20.6666707,31.7083333 C20.6666707,30.4426808 19.6406566,29.4166667 18.375004,29.4166667 Z M22.0416707,23 C22.8010622,23 23.4166707,23.6156085 23.4166707,24.375 C23.4166707,25.0897214 22.8713566,25.677078 22.1740923,25.7437056 L22.0416707,25.75 L20.2083373,25.75 C19.4489458,25.75 18.8333373,25.1343915 18.8333373,24.375 C18.8333373,23.6602786 19.3786514,23.072922 20.0759157,23.0062944 L20.2083373,23 L22.0416707,23 Z M18.375004,19.3333333 C19.1343955,19.3333333 19.750004,19.9489418 19.750004,20.7083333 C19.750004,21.4230548 19.2046899,22.0104113 18.5074257,22.077039 L18.375004,22.0833333 L16.5416707,22.0833333 C15.7822791,22.0833333 15.1666707,21.4677249 15.1666707,20.7083333 C15.1666707,19.9936119 15.7119847,19.4062554 16.409249,19.3396277 L16.5416707,19.3333333 L18.375004,19.3333333 Z M22.0416707,15.6666667 C22.8010622,15.6666667 23.4166707,16.2822751 23.4166707,17.0416667 C23.4166707,17.7563881 22.8713566,18.3437446 22.1740923,18.4103723 L22.0416707,18.4166667 L20.2083373,18.4166667 C19.4489458,18.4166667 18.8333373,17.8010582 18.8333373,17.0416667 C18.8333373,16.3269452 19.3786514,15.7395887 20.0759157,15.672961 L20.2083373,15.6666667 L22.0416707,15.6666667 Z M18.375004,12 C19.1343955,12 19.750004,12.6156085 19.750004,13.375 C19.750004,14.0897214 19.2046899,14.677078 18.5074257,14.7437056 L18.375004,14.75 L16.5416707,14.75 C15.7822791,14.75 15.1666707,14.1343915 15.1666707,13.375 C15.1666707,12.6602786 15.7119847,12.072922 16.409249,12.0062944 L16.5416707,12 L18.375004,12 Z M22.0416707,8.33333333 C22.8010622,8.33333333 23.4166707,8.9489418 23.4166707,9.70833333 C23.4166707,10.4230548 22.8713566,11.0104113 22.1740923,11.077039 L22.0416707,11.0833333 L20.2083373,11.0833333 C19.4489458,11.0833333 18.8333373,10.4677249 18.8333373,9.70833333 C18.8333373,8.99361189 19.3786514,8.40625538 20.0759157,8.3396277 L20.2083373,8.33333333 L22.0416707,8.33333333 Z M18.375004,4.66666667 C19.1343955,4.66666667 19.750004,5.28227514 19.750004,6.04166667 C19.750004,6.75638811 19.2046899,7.34374462 18.5074257,7.4103723 L18.375004,7.41666667 L16.5416707,7.41666667 C15.7822791,7.41666667 15.1666707,6.8010582 15.1666707,6.04166667 C15.1666707,5.32694523 15.7119847,4.73958871 16.409249,4.67296103 L16.5416707,4.66666667 L18.375004,4.66666667 Z" id="Color"></path>
        </g>
    </g>
</svg>