<svg id="UI_Logo_Full" data-name="UI/Logo/Full" xmlns="http://www.w3.org/2000/svg" width="150.208" height="70" viewBox="0 0 150.208 70">
  <path id="Color" d="M56.279,30.625a18.711,18.711,0,0,1-5.826-.857,12.081,12.081,0,0,1-4.443-2.532A11.29,11.29,0,0,1,43.2,23.156a14.458,14.458,0,0,1-.987-5.5V0h7.7V18.073a6.563,6.563,0,0,0,1.629,4.561,6.091,6.091,0,0,0,4.739,1.8,6.09,6.09,0,0,0,4.738-1.8,6.563,6.563,0,0,0,1.63-4.561V0h7.7V17.656a13.587,13.587,0,0,1-.987,5.229,11.711,11.711,0,0,1-2.814,4.1A12.976,12.976,0,0,1,62.1,29.663,16.844,16.844,0,0,1,56.279,30.625Zm-48.669-.7H0V0H7.61L17.691,14.626h.495L28.267,0h7.61V29.92h-7.61V16.674l.494-5.015h-.494l-8.055,11.91H15.666L7.61,11.659H7.116l.493,5.015V29.921Zm122.182,0H106.576V0h23.216V6.184H114.249v5.683h13.969v6.186H114.249v5.683h15.543V29.92Zm-28.49,0H74.568V23.4L92.093,6.184H75.361V0H101.1V6.519L83.875,23.737H101.3V29.92Z" transform="translate(0 20.417)" fill="#fff"/>
  <circle id="Oval" cx="6.563" cy="6.563" r="6.563" transform="translate(135.625 36.458)" fill="#ffc107"/>
</svg>
