<svg xmlns="http://www.w3.org/2000/svg" xmlns:xlink="http://www.w3.org/1999/xlink" width="102" height="21" viewBox="0 0 102 21">
  <defs>
    <clipPath id="clip-path">
      <rect width="102" height="21" fill="none"/>
    </clipPath>
  </defs>
  <g id="Repeat_Grid_1" data-name="Repeat Grid 1" clip-path="url(#clip-path)">
    <g id="Group_6" data-name="Group 6" transform="translate(0 -14)">
      <path id="Color" d="M38.591,21a12.83,12.83,0,0,1-4-.588,8.284,8.284,0,0,1-3.046-1.736,7.742,7.742,0,0,1-1.93-2.8,9.914,9.914,0,0,1-.677-3.772V0h5.281V12.393a4.5,4.5,0,0,0,1.117,3.127,4.177,4.177,0,0,0,3.25,1.234,4.176,4.176,0,0,0,3.249-1.234,4.5,4.5,0,0,0,1.118-3.127V0h5.28V12.107a9.317,9.317,0,0,1-.677,3.586,8.03,8.03,0,0,1-1.93,2.812,8.9,8.9,0,0,1-3.047,1.836A11.55,11.55,0,0,1,38.591,21ZM5.218,20.518H0V0H5.218l6.913,10.03h.339L19.383,0H24.6V20.516H19.383V11.434l.338-3.439h-.338L13.86,16.161H10.742L5.218,7.995H4.88l.338,3.439v9.084Zm83.782,0H73.081V0H89V4.241H78.342v3.9h9.579V12.38H78.342v3.9H89v4.24Zm-19.536,0H51.133v-4.47L63.149,4.241H51.676V0H69.328V4.47L57.515,16.277H69.464v4.24Z" transform="translate(0 14)" fill="#fff"/>
      <circle id="Oval" cx="4.5" cy="4.5" r="4.5" transform="translate(93 25)" fill="#ffc107"/>
    </g>
  </g>
</svg>
