<?xml version="1.0" encoding="UTF-8"?>
<svg width="35px" height="42px" viewBox="0 0 35 42" version="1.1" xmlns="http://www.w3.org/2000/svg" xmlns:xlink="http://www.w3.org/1999/xlink">
    <title>apple</title>
    <g id="🧠-Symbols" stroke="none" stroke-width="1" fill="none" fill-rule="evenodd">
        <g id="UI/Logo/Brand/Default/Apple" transform="translate(-4.000000, 0.000000)" fill="#272727" fill-rule="nonzero">
            <g id="apple" transform="translate(4.000000, 0.000000)">
                <path d="M18.8911272,3.65479595 C21.6505936,0.0177313454 25.4869117,0 25.4869117,0 C25.4869117,0 26.0575574,3.41945891 23.3161672,6.71348752 C20.3890464,10.2307793 17.0619698,9.65523501 17.0619698,9.65523501 C17.0619698,9.65523501 16.4372331,6.88900714 18.8911272,3.65479595 Z M17.4129401,12.0505535 C18.8325516,12.0505535 21.4672778,10.0991396 24.8967407,10.0991396 C30.7999679,10.0991396 33.1222912,14.2996746 33.1222912,14.2996746 C33.1222912,14.2996746 28.580238,16.6219289 28.580238,22.2567711 C28.580238,28.6133549 34.2384,30.8040385 34.2384,30.8040385 C34.2384,30.8040385 30.2831371,41.9366326 24.9406896,41.9366326 C22.4869336,41.9366326 20.5792616,40.2830639 17.9938659,40.2830639 C15.3591397,40.2830639 12.7445597,41.9983129 11.0416606,41.9983129 C6.16319487,41.9983129 0,31.4380203 0,22.9491905 C0,14.5973818 5.21674119,10.2161527 10.1098336,10.2161527 C13.2907818,10.2161527 15.7592334,12.0505535 17.4129401,12.0505535 Z" id="Shape"></path>
            </g>
        </g>
    </g>
</svg>