<svg xmlns="http://www.w3.org/2000/svg" width="16" height="16" viewBox="0 0 16 16">
  <g id="Icons_Tabler_Paperclip" data-name="Icons/Tabler/Paperclip" transform="translate(0 0)">
    <rect id="Icons_Tabler_apps_background" data-name="Icons/Tabler/apps background" width="16" height="16" fill="none"/>
    <path id="Color" d="M10.743,16a1.6,1.6,0,0,1-1.6-1.6V10.743a1.6,1.6,0,0,1,1.6-1.6H14.4a1.6,1.6,0,0,1,1.6,1.6V14.4A1.6,1.6,0,0,1,14.4,16Zm-.229-5.257V14.4a.229.229,0,0,0,.229.229H14.4a.229.229,0,0,0,.229-.229V10.743a.229.229,0,0,0-.229-.229H10.743A.229.229,0,0,0,10.515,10.743ZM1.6,16A1.6,1.6,0,0,1,0,14.4V10.743a1.6,1.6,0,0,1,1.6-1.6H5.257a1.6,1.6,0,0,1,1.6,1.6V14.4a1.6,1.6,0,0,1-1.6,1.6Zm-.229-5.257V14.4a.229.229,0,0,0,.229.229H5.257a.229.229,0,0,0,.229-.229V10.743a.229.229,0,0,0-.229-.229H1.6A.229.229,0,0,0,1.372,10.743Zm9.372-3.886a1.6,1.6,0,0,1-1.6-1.6V1.6a1.6,1.6,0,0,1,1.6-1.6H14.4A1.6,1.6,0,0,1,16,1.6V5.257a1.6,1.6,0,0,1-1.6,1.6ZM10.515,1.6V5.257a.229.229,0,0,0,.229.229H14.4a.229.229,0,0,0,.229-.229V1.6a.229.229,0,0,0-.229-.229H10.743A.229.229,0,0,0,10.515,1.6ZM1.6,6.857A1.6,1.6,0,0,1,0,5.257V1.6A1.6,1.6,0,0,1,1.6,0H5.257a1.6,1.6,0,0,1,1.6,1.6V5.257a1.6,1.6,0,0,1-1.6,1.6ZM1.372,1.6V5.257a.229.229,0,0,0,.229.229H5.257a.229.229,0,0,0,.229-.229V1.6a.229.229,0,0,0-.229-.229H1.6A.229.229,0,0,0,1.372,1.6Z" transform="translate(0 0)" fill="#1e1e1e"/>
  </g>
</svg>
