<?xml version="1.0" encoding="UTF-8"?>
<svg width="50px" height="40px" viewBox="0 0 50 40" version="1.1" xmlns="http://www.w3.org/2000/svg" xmlns:xlink="http://www.w3.org/1999/xlink">
    <title>bootstrap-5-1 (1)</title>
    <g id="🧠-Symbols" stroke="none" stroke-width="1" fill="none" fill-rule="evenodd">
        <g id="UI/Logo/Skill/Bootstrap" transform="translate(-20.000000, -25.000000)" fill="#7952B3">
            <g id="bootstrap-5-1-(1)" transform="translate(20.000000, 25.000000)">
                <path d="M10.3851563,0 C7.53222656,0 5.42119141,2.49707031 5.51572266,5.20507812 C5.60644531,7.80673828 5.48857422,11.1762695 4.64033203,13.9241211 C3.7890625,16.6796875 2.35039063,18.4258789 0,18.65 L0,21.1804687 C2.35039063,21.4050781 3.7890625,23.1503906 4.64023437,25.9063477 C5.48857422,28.6541992 5.60634766,32.0237305 5.515625,34.6253906 C5.42109375,37.3330078 7.53212891,39.8304687 10.3855469,39.8304687 L39.6186523,39.8304687 C42.471582,39.8304687 44.5822266,37.3333984 44.4876953,34.6253906 C44.3969727,32.0237305 44.5148437,28.6541992 45.3630859,25.9063477 C46.2143555,23.1503906 47.6495117,21.4043945 50,21.1804687 L50,18.65 C47.6496094,18.4253906 46.2144531,16.6800781 45.3630859,13.9241211 C44.5147461,11.1766602 44.3969727,7.80673828 44.4876953,5.20507812 C44.5822266,2.49746094 42.471582,0 39.6186523,0 L10.3847656,0 L10.3851563,0 Z M33.8983398,24.5182617 C33.8983398,28.2470703 31.1169922,30.5084961 26.5012695,30.5084961 L18.644043,30.5084961 C18.1760032,30.5084961 17.796582,30.1290749 17.796582,29.6610352 L17.796582,10.1695313 C17.796582,9.7014915 18.1760032,9.32207031 18.644043,9.32207031 L26.456543,9.32207031 C30.3052734,9.32207031 32.8311523,11.4068359 32.8311523,14.6076172 C32.8311523,16.8541992 31.1319336,18.8654297 28.9671875,19.2177734 L28.9671875,19.3349609 C31.9140625,19.6582031 33.8983398,21.6992187 33.8983398,24.5182617 L33.8983398,24.5182617 Z M25.6445312,12.0084961 L21.1644531,12.0084961 L21.1644531,18.3366211 L24.937793,18.3366211 C27.8547852,18.3366211 29.4631836,17.1620117 29.4631836,15.0625 C29.4628906,13.0949219 28.0800781,12.0084961 25.6445312,12.0084961 Z M21.1644531,20.8474609 L21.1644531,27.8211914 L25.809375,27.8211914 C28.8464844,27.8211914 30.4551758,26.6025391 30.4551758,24.3123047 C30.4551758,22.0220703 28.8013672,20.8470703 25.6140625,20.8470703 L21.1644531,20.8470703 L21.1644531,20.8474609 Z" id="Shape"></path>
            </g>
        </g>
    </g>
</svg>