<svg id="Icon" xmlns="http://www.w3.org/2000/svg" width="20.001" height="20" viewBox="0 0 20.001 20">
  <rect id="Icons_Tabler_Call_background" data-name="Icons/Tabler/Call background" width="20" height="20" fill="none"/>
  <path id="Color" d="M16.982,20h0A18.076,18.076,0,0,1,5.272,14.723,18.172,18.172,0,0,1,0,2.973,2.966,2.966,0,0,1,2.844,0l.129,0H7.3a.81.81,0,0,1,.719.435L8.05.51l2.162,5.406a.811.811,0,0,1-.27.953l-.065.044L7.837,8.136l.018.033A11.113,11.113,0,0,0,11.6,12.006l.264.159,1.225-2.041a.811.811,0,0,1,.922-.361l.074.026,5.406,2.162a.8.8,0,0,1,.505.67l0,.082v4.325a2.935,2.935,0,0,1-.876,2.1A3.025,3.025,0,0,1,16.982,20ZM2.973,1.622a1.349,1.349,0,0,0-1.353,1.3A16.481,16.481,0,0,0,17.028,18.38a1.354,1.354,0,0,0,1.349-1.259l0-.093V13.253l-4.254-1.7-1.267,2.111a.81.81,0,0,1-.978.343l-.076-.033A12.768,12.768,0,0,1,6.03,8.2.809.809,0,0,1,6.271,7.19l.07-.047L8.451,5.876l-1.7-4.254Z" transform="translate(0 0)" fill="#495057"/>
</svg>
