<svg xmlns="http://www.w3.org/2000/svg" width="24" height="24" viewBox="0 0 24 24">
  <g id="Icons_Tabler_Settings" data-name="Icons/Tabler/Settings" transform="translate(0 0)">
    <rect id="Icons_Tabler_Message_background" data-name="Icons/Tabler/Message background" width="24" height="24" fill="none"/>
    <path id="Color" d="M1.029,24H.976l-.046,0-.1-.014L.74,23.958l-.089-.03-.082-.038-.095-.053-.089-.065-.05-.043-.066-.065-.042-.05-.065-.089a.943.943,0,0,1-.054-.095L.072,23.35l-.016-.045-.022-.073-.015-.065-.007-.039L0,23.07l0-.1V5.144A5.122,5.122,0,0,1,4.967,0l.177,0H18.857A5.122,5.122,0,0,1,24,4.967l0,.177v8.228a5.121,5.121,0,0,1-4.967,5.139l-.177,0H6.939L1.723,23.73l-.072.061-.076.051-.04.024-.046.024-.1.043-.073.024-.093.023-.1.014-.046,0ZM5.144,2.057A3.081,3.081,0,0,0,2.061,4.988l0,.155V20.488l3.73-3.729a1.032,1.032,0,0,1,.61-.3l.116-.007H18.857a3.081,3.081,0,0,0,3.082-2.931l0-.154V5.144a3.081,3.081,0,0,0-2.932-3.082l-.154,0Z" transform="translate(0 0)" fill="#1e1e1e"/>
  </g>
</svg>
