<svg id="Icon" xmlns="http://www.w3.org/2000/svg" width="14" height="14" viewBox="0 0 14 14">
  <rect id="Icons_Tabler_Time_background" data-name="Icons/Tabler/Time background" width="14" height="14" fill="none"/>
  <path id="Color" d="M0,7a7,7,0,1,1,7,7A7.008,7.008,0,0,1,0,7ZM1.077,7A5.923,5.923,0,1,0,7,1.077,5.93,5.93,0,0,0,1.077,7Zm7.74,2.574-.044-.039L6.619,7.38a.54.54,0,0,1-.154-.32l0-.061V3.41a.539.539,0,0,1,1.075-.051l0,.051V6.776l2,2a.538.538,0,0,1,.039.718l-.039.043a.537.537,0,0,1-.717.039Z" fill="#6c757d"/>
</svg>
