<svg xmlns="http://www.w3.org/2000/svg" width="15.999" height="15.999" viewBox="0 0 15.999 15.999">
  <path id="Color" d="M6.171,16a2.517,2.517,0,0,1-2.515-2.514V12.343H2.515A2.514,2.514,0,0,1,0,9.938l0-.109V2.515A2.514,2.514,0,0,1,2.4,0l.11,0H9.829a2.515,2.515,0,0,1,2.512,2.4l0,.11V3.657h1.143A2.517,2.517,0,0,1,16,6.171v7.314A2.515,2.515,0,0,1,13.486,16ZM5.028,13.486a1.144,1.144,0,0,0,1.143,1.142h7.314a1.143,1.143,0,0,0,1.142-1.142V6.171a1.144,1.144,0,0,0-1.142-1.143H6.171A1.145,1.145,0,0,0,5.028,6.171v7.314ZM1.374,2.436l0,.078V9.829a1.143,1.143,0,0,0,1.065,1.14l.078,0H3.657v-4.8A2.518,2.518,0,0,1,6.171,3.657h4.8V2.515a1.142,1.142,0,0,0-1.064-1.14l-.078,0H2.515A1.143,1.143,0,0,0,1.374,2.436Z" fill="#6c757d"/>
</svg>
