<svg id="Icons_Tabler_Notification" data-name="Icons/Tabler/Notification" xmlns="http://www.w3.org/2000/svg" width="24" height="24" viewBox="0 0 24 24">
  <rect id="Icons_Tabler_Contrast_background" data-name="Icons/Tabler/Contrast background" width="24" height="24" fill="none"/>
  <path id="Color" d="M0,12A12,12,0,1,1,12,24,12.014,12.014,0,0,1,0,12Zm1.847,0A10.153,10.153,0,1,0,12,1.847,10.165,10.165,0,0,0,1.847,12Zm9.234,6.242,0-.089V5.845A.923.923,0,0,1,12,4.923a7.077,7.077,0,0,1,0,14.153A.923.923,0,0,1,11.081,18.243Z" fill="#fff"/>
</svg>
