<?xml version="1.0" encoding="UTF-8"?>
<svg width="46px" height="46px" viewBox="0 0 42 42" version="1.1" xmlns="http://www.w3.org/2000/svg" xmlns:xlink="http://www.w3.org/1999/xlink">
    <title>dribbble-icon-1</title>
    <g id="🧠-Symbols" stroke="none" stroke-width="1" fill="none" fill-rule="evenodd">
        <g id="UI/Logo/Brand/Default/Dribbble" fill-rule="nonzero">
            <g id="dribbble-icon-1">
                <path d="M21,1.39453125 C31.828125,1.39453125 40.5890625,10.1554687 40.5890625,20.9671875 C40.5890625,31.7789062 31.828125,40.55625 21,40.55625 C10.171875,40.55625 1.4109375,31.7953125 1.4109375,20.9835938 C1.4109375,10.171875 10.171875,1.39453125 21,1.39453125 Z" id="Path" fill="#E74D89"></path>
                <path d="M21,41.9507812 C9.4171875,41.9507812 0,32.55 0,20.9835937 C0,9.40078125 9.4171875,0 21,0 C32.5828125,0 42,9.40078125 42,20.9671875 C42,32.5335937 32.5828125,41.9507812 21,41.9507812 Z M38.7023437,23.8382812 C38.0953125,23.6414062 33.1570313,22.18125 27.5296875,23.0671875 C29.8757813,29.4984375 30.8273438,34.7484375 31.0078125,35.83125 C35.04375,33.1242187 37.9148437,28.8257812 38.7023437,23.8382812 Z M28.0054688,37.4882812 C27.7429688,35.9132812 26.6929688,30.4335937 24.1828125,23.9039062 C24.15,23.9203125 24.1007813,23.9367187 24.0679688,23.9367187 C13.9453125,27.4640625 10.3195313,34.4695312 9.99140625,35.1257812 C13.0265625,37.4882812 16.8492188,38.8992187 21,38.8992187 C23.4773438,38.915625 25.85625,38.4070312 28.0054688,37.4882812 L28.0054688,37.4882812 Z M7.678125,32.9765625 C8.08828125,32.2875 13.0101562,24.15 22.2632812,21.1476563 C22.4929687,21.065625 22.7390625,21 22.96875,20.934375 C22.5257813,19.9171875 22.0335938,18.9 21.5085937,17.8992188 C12.5507812,20.5734375 3.85546875,20.4585938 3.06796875,20.4421875 C3.06796875,20.6226563 3.0515625,20.803125 3.0515625,20.9835938 C3.06796875,25.59375 4.80703125,29.79375 7.678125,32.9765625 Z M3.4453125,17.325 C4.24921875,17.3414062 11.6320313,17.3742187 20.0320312,15.1429687 C17.0625,9.86015625 13.846875,5.43046875 13.3875,4.790625 C8.35078125,7.153125 4.61015625,11.7796875 3.4453125,17.325 Z M16.8,3.5765625 C17.2921875,4.2328125 20.5570312,8.6625 23.49375,14.0601562 C29.8757812,11.6648437 32.5664062,8.05546875 32.8945312,7.59609375 C29.728125,4.790625 25.5609375,3.084375 21,3.084375 C19.55625,3.084375 18.1453125,3.26484375 16.8,3.5765625 Z M34.8796875,9.66328125 C34.5023437,10.171875 31.5,14.0273437 24.871875,16.734375 C25.2820312,17.5875 25.6921875,18.4570312 26.0695313,19.3265625 C26.2007813,19.6382812 26.3320312,19.95 26.4632813,20.2453125 C32.4351562,19.490625 38.3578125,20.7046875 38.9484375,20.8195312 C38.8992187,16.603125 37.3898437,12.7148437 34.8796875,9.66328125 Z" id="Shape" fill="#B2215A"></path>
            </g>
        </g>
    </g>
</svg>