<?xml version="1.0" encoding="UTF-8"?>
<svg width="42px" height="40px" viewBox="0 0 42 40" version="1.1" xmlns="http://www.w3.org/2000/svg" xmlns:xlink="http://www.w3.org/1999/xlink">
    <title>dropbox-2</title>
    <g id="🧠-Symbols" stroke="none" stroke-width="1" fill="none" fill-rule="evenodd">
        <g id="UI/Logo/Brand/Default/Dropbox" transform="translate(0.000000, -1.000000)" fill="#007EE5" fill-rule="nonzero">
            <g id="dropbox-2" transform="translate(0.000000, 1.000000)">
                <path d="M12.3547694,-4.94117647e-05 L0,8.06671765 L8.54260235,14.9076776 L21,7.21525412 L12.3547694,-4.94117647e-05 Z M0,21.7490824 L12.3547694,29.8158494 L21,22.5996565 L8.54260235,14.9077271 L0,21.7490824 Z M21,22.5996565 L29.6452306,29.8158494 L42,21.7490824 L33.4573976,14.9076776 L21,22.5996565 Z" id="Shape"></path>
                <path d="M42,8.06671765 L29.6452306,-4.94117647e-05 L21,7.21530353 L33.4573976,14.9077271 L42,8.06671765 Z M21.0253482,24.1523224 L12.3547694,31.3471694 L8.64444,28.9246094 L8.64444,31.6402306 L21.0253482,39.0644471 L33.4063059,31.6402306 L33.4063059,28.92456 L29.6959765,31.3471694 L21.0253482,24.1523224 Z" id="Shape"></path>
            </g>
        </g>
    </g>
</svg>