<svg id="Icons_Tabler_Paperclip_Copy_3" data-name="Icons/Tabler/Paperclip Copy 3" xmlns="http://www.w3.org/2000/svg" width="20" height="20" viewBox="0 0 20 20">
  <g id="Germany">
    <path id="Path" d="M0,.87A10,10,0,0,0,9.378,7.391,10,10,0,0,0,18.756.87L9.378,0Z" transform="translate(0.622 12.609)" fill="#ffda44"/>
    <path id="Path-2" data-name="Path" d="M9.378,0A10,10,0,0,0,0,6.522l9.378.87,9.378-.87A10,10,0,0,0,9.378,0Z" transform="translate(0.622)"/>
    <path id="Path-3" data-name="Path" d="M.622,0a10.036,10.036,0,0,0,0,6.956H19.378a10.037,10.037,0,0,0,0-6.956Z" transform="translate(0 6.522)" fill="#d80027"/>
  </g>
</svg>
