<svg id="Icons_Tabler_Edit" data-name="Icons/Tabler/Edit" xmlns="http://www.w3.org/2000/svg" width="12.003" height="12" viewBox="0 0 12.003 12">
  <rect id="Icons_Tabler_Edit_background" data-name="Icons/Tabler/Edit background" width="12" height="12" fill="none"/>
  <path id="Color" d="M.535,12A.532.532,0,0,1,0,11.517l0-.052V8.613A.538.538,0,0,1,.116,8.28l.041-.045L7.644.747a2.552,2.552,0,0,1,3.678,3.536l-.069.072-.713.713L3.765,11.844A.538.538,0,0,1,3.447,12l-.06,0ZM1.07,8.834v2.1h2.1L9.405,4.691l-2.1-2.1Zm9.092-4.9L10.5,3.6a1.482,1.482,0,0,0,.058-2.035L10.5,1.5a1.483,1.483,0,0,0-2.035-.058L8.4,1.5l-.335.335Z" fill="#495057"/>
</svg>
