<svg id="Icons_Tabler_Emoji" data-name="Icons/Tabler/Emoji" xmlns="http://www.w3.org/2000/svg" width="24" height="24" viewBox="0 0 24 24">
  <rect id="Icons_Tabler_Emoji_background" data-name="Icons/Tabler/Emoji background" width="24" height="24" fill="none"/>
  <path id="Combined_Shape" data-name="Combined Shape" d="M0,12A12,12,0,1,1,12,24,12.014,12.014,0,0,1,0,12Zm1.847,0A10.153,10.153,0,1,0,12,1.847,10.165,10.165,0,0,0,1.847,12Zm6.417,4.338a.923.923,0,0,1,1.319-1.292,3.384,3.384,0,0,0,4.836,0,.923.923,0,0,1,1.318,1.292,5.23,5.23,0,0,1-7.472,0Zm6.506-6.8A.923.923,0,0,1,15.6,8.62l.1,0a.923.923,0,0,1,.089,1.841l-.1,0A.923.923,0,0,1,14.769,9.539Zm-7.385,0a.923.923,0,0,1,.834-.919l.1,0a.923.923,0,0,1,.089,1.841l-.1,0A.923.923,0,0,1,7.385,9.539Z" fill="#495057"/>
</svg>
