<?xml version="1.0" encoding="UTF-8"?>
<svg width="39px" height="46px" viewBox="0 0 36 42" version="1.1" xmlns="http://www.w3.org/2000/svg" xmlns:xlink="http://www.w3.org/1999/xlink">
    <title>evernote-icon</title>
    <g id="🧠-Symbols" stroke="none" stroke-width="1" fill="none" fill-rule="evenodd">
        <g id="UI/Logo/Brand/Default/Evernote" transform="translate(-3.000000, 0.000000)">
            <g id="evernote-icon" transform="translate(3.000000, 0.000000)">
                <path d="M26.8569485,17.4426933 C25.1651356,17.3834783 24.6880053,18.8037083 24.5444631,19.9601059 C25.0805897,19.8749392 25.6237299,19.8421285 26.1662101,19.8621377 C27.2317701,19.8993408 28.2086626,20.1244198 28.9979893,20.4756795 C28.9914788,19.2774283 28.7298167,17.5074888 26.8569485,17.4426933 L26.8569485,17.4426933 Z" id="Path"></path>
                <path d="M3.50887638,8.13291695 L7.45271949,8.13291695 C7.67754458,8.13240624 7.85972218,7.95036717 7.86040393,7.72554254 C7.86040393,7.72399241 7.8126599,4.34563705 7.8126599,3.40718779 L7.8126599,3.39571682 C7.8126599,2.62468169 7.97418354,1.9522349 8.25692742,1.38798724 L8.39116876,1.13531589 C8.37397267,1.13852488 8.35823523,1.14709907 8.34621496,1.15980796 L0.68856816,8.75327934 C0.674538684,8.76486416 0.664551112,8.78060544 0.660045751,8.79823314 C0.818469132,8.71979652 1.03517744,8.61221743 1.06556,8.5988863 C1.73180628,8.29754085 2.5406646,8.13291695 3.50887638,8.13291695 L3.50887638,8.13291695 Z" id="Path" fill="#74BB44" fill-rule="nonzero"></path>
                <path d="M34.1741865,7.30607711 C33.8610601,5.6306956 32.8643259,4.80478584 31.9633898,4.47987839 C30.9920777,4.12861872 29.0209312,3.76464798 26.5456822,3.47322337 C24.5534539,3.23822352 22.2118261,3.25744514 20.7974867,3.30053878 C20.6279023,2.13794058 19.8125335,1.07579087 18.8998164,0.70809981 C16.4698311,-0.269722782 12.7126238,-0.0334828281 11.7490624,0.23654998 C10.9823676,0.451088101 10.134136,0.889775155 9.66258615,1.56594227 C9.34604941,2.01827047 9.14081208,2.59677934 9.13926195,3.40563766 C9.13926195,3.86323631 9.15197302,4.94119736 9.16375402,5.8994883 C9.17491496,6.85994942 9.18824608,7.71965204 9.18824608,7.72585256 C9.18704998,8.58308212 8.49224486,9.27760987 7.63501489,9.2784637 L3.69334196,9.2784637 C2.85286097,9.2784637 2.21017668,9.41952562 1.71940523,9.64243445 C1.22801372,9.8656533 0.879854317,10.1663787 0.61540198,10.5222888 C0.0892875417,11.2285284 -0.0021701833,12.1006321 -3.72119738e-05,12.9910273 C-3.72119738e-05,12.9910273 0.00744062847,13.7180387 0.182605424,15.1258676 C0.328627757,16.2146796 1.50982753,23.8233422 2.6318123,26.1373777 C3.06677904,27.0370737 3.35696355,27.4131354 4.21108569,27.809969 C6.11526653,28.6253378 10.4643139,29.5324745 12.5033561,29.7922764 C14.5377479,30.0526984 15.8150558,30.5995846 16.5758601,29.0038798 C16.5783403,28.9989194 16.728703,28.6076663 16.9345604,28.0291575 C17.5955362,26.0276284 17.687614,24.2508683 17.687614,22.9658098 C17.687614,22.8346687 17.8795202,22.8290883 17.8795202,22.9658098 C17.8795202,23.8735665 17.7055955,27.0854378 20.1321705,27.9463805 C21.0904614,28.2855491 23.0767992,28.5887547 25.0966198,28.8256148 C26.9217439,29.0361225 28.2461758,29.7535231 28.2461758,34.4377088 C28.2461758,37.2868494 27.6478253,37.6771724 24.519351,37.6771724 C21.9830268,37.6771724 21.0160551,37.7425879 21.0160551,35.7289678 C21.0160551,34.0997802 22.6269512,34.2709147 23.820552,34.2709147 C24.3541071,34.2709147 23.9665743,33.8747012 23.9665743,32.8692863 C23.9665743,31.8688318 24.5928272,31.291253 24.0006772,31.2769918 C19.8732986,31.1629022 17.4442434,31.2720314 17.4442434,36.4348975 C17.4442434,41.1209433 19.2374349,41.9911868 25.0966198,41.9911868 C29.6896577,41.9911868 31.3076844,41.8411341 33.2047346,35.956217 C33.5801763,34.7945489 34.4885531,31.2497095 35.0369894,25.2965867 C35.3839087,21.5334888 34.7089817,10.1728893 34.1741865,7.30607711 L34.1741865,7.30607711 Z M26.1668302,19.8621377 C25.5994823,19.842606 25.0538362,19.878259 24.5450832,19.9601059 C24.6886253,18.8037083 25.1657556,17.3831683 26.8575685,17.4426933 C28.7304367,17.5074888 28.9920988,19.2774283 28.9986094,20.4756795 C28.2092827,20.1241098 27.2317701,19.8996508 26.1668302,19.8621377 L26.1668302,19.8621377 Z" id="Shape" fill="#74BB44" fill-rule="nonzero"></path>
            </g>
        </g>
    </g>
</svg>