<svg id="Icon" xmlns="http://www.w3.org/2000/svg" width="14" height="14" viewBox="0 0 14 14">
  <rect id="Icons_Tabler_Download_background" data-name="Icons/Tabler/Download background" width="14" height="14" fill="none"/>
  <path id="Color" d="M6.683,13.91h0L6.673,13.9,6.661,13.9h0l-.009-.007,0,0-.009-.007h0l-.009-.007h0l-.01-.008h0q-.02-.017-.04-.036l-3.2-3.2a.6.6,0,0,1,.8-.892l.049.044L6.4,11.951V5.4a.6.6,0,0,1,1.2-.057l0,.057v6.551L9.776,9.776a.6.6,0,0,1,.892.8l-.044.049-3.2,3.2a.606.606,0,0,1-.077.065h0l-.01.007,0,0-.009.006,0,0-.007,0-.007,0,0,0-.009.005h0a.6.6,0,0,1-.608-.015ZM.6,1.2A.6.6,0,0,1,.543,0L.6,0H13.4a.6.6,0,0,1,.057,1.2l-.057,0Z" fill="#fff"/>
</svg>
