<svg id="Icons_Tabler_Share" data-name="Icons/Tabler/Share" xmlns="http://www.w3.org/2000/svg" width="16" height="16" viewBox="0 0 16 16">
  <rect id="Icons_Tabler_Export_background" data-name="Icons/Tabler/Export background" width="16" height="16" fill="none"/>
  <path id="Color" d="M10.318,15.828a.585.585,0,0,1-.042-.78L10.318,15l1.342-1.342H7.61a.585.585,0,0,1-.056-1.168l.056,0h4.05l-1.342-1.342a.583.583,0,0,1-.042-.78l.042-.048a.587.587,0,0,1,.734-.076l.047.034.048.042,2.367,2.369.034.042.021.031.024.042.027.059.022.067.01.049.006.053,0,.044v.04l-.006.054-.014.06-.019.058-.014.032a.625.625,0,0,1-.05.087l-.032.043-.035.039-2.342,2.341a.584.584,0,0,1-.828,0ZM2.147,15.22A2.14,2.14,0,0,1,0,13.166l0-.093V2.147A2.14,2.14,0,0,1,2.053,0l.094,0H7.708l.012,0h0l.01,0h0l.01,0h0l.012,0h0A.573.573,0,0,1,7.929.1l0,0h0a.589.589,0,0,1,.083.068l0,0,3.882,3.883a.583.583,0,0,1,.187.353v.017a.592.592,0,0,1,0,.064v3.9a.585.585,0,0,1-1.168.057l0-.057V5.073H8.39A1.367,1.367,0,0,1,7.026,3.785l0-.077V1.171H2.147a.978.978,0,0,0-.974.909l0,.067V13.073a.978.978,0,0,0,.909.973l.067,0H5.658a.585.585,0,0,1,.057,1.168l-.057,0ZM8.2,3.707a.2.2,0,0,0,.16.193l.034,0H10.1L8.2,2Z" transform="translate(1)" fill="#495057"/>
</svg>
