<?xml version="1.0" encoding="UTF-8"?>
<svg width="10px" height="21px" viewBox="0 0 10 21" version="1.1" xmlns="http://www.w3.org/2000/svg" xmlns:xlink="http://www.w3.org/1999/xlink">
    <title>Path</title>
    <g id="🧠-Symbols" stroke="none" stroke-width="1" fill="none" fill-rule="evenodd">
        <g id="UI/Logo/Brand/Circle/Facebook" transform="translate(-16.000000, -10.000000)" fill="#3C5A9A" fill-rule="nonzero">
            <path d="M25.9851111,10.5227273 L22.5888386,10.5227273 C20.5733771,10.5227273 18.3316154,11.3205088 18.3316154,14.0700452 C18.3414545,15.0280885 18.3316154,15.9456132 18.3316154,16.9782266 L16,16.9782266 L16,20.4701314 L18.4037691,20.4701314 L18.4037691,30.5227273 L22.8208132,30.5227273 L22.8208132,20.4037925 L25.7362174,20.4037925 L26,16.9684276 L22.744703,16.9684276 C22.744703,16.9684276 22.7519913,15.4402324 22.744703,14.9964379 C22.744703,13.9098813 23.9460149,13.9721047 24.0182727,13.9721047 C24.5899318,13.9721047 25.701442,13.9736725 25.986777,13.9721047 L25.986777,10.5227273 L25.9851111,10.5227273 L25.9851111,10.5227273 Z" id="Path"></path>
        </g>
    </g>
</svg>