<svg xmlns="http://www.w3.org/2000/svg" width="17" height="16" viewBox="0 0 17 16">
  <g id="Badge" transform="translate(-40)">
    <path id="Path" d="M16.874,8.252a.315.315,0,0,0,0-.5L15.258,5.987c-.085-.084-.085-.167-.085-.335L15.427,3.3c0-.168-.086-.419-.338-.419l-2.3-.5c-.085,0-.255-.084-.255-.168L11.349.2a.491.491,0,0,0-.594-.168L8.63.955a.261.261,0,0,1-.34,0L6.165.033A.53.53,0,0,0,5.57.2L4.379,2.213c0,.084-.17.168-.255.168l-2.3.5a.566.566,0,0,0-.34.5l.255,2.348a.5.5,0,0,1-.085.335L.128,7.832a.313.313,0,0,0,0,.5l1.53,1.677c.085.086.085.167.085.335L1.488,12.7c0,.168.085.419.34.419l2.3.506c.085,0,.255.084.255.166L5.568,15.8a.492.492,0,0,0,.6.168l2.125-.923a.255.255,0,0,1,.34,0l2.125.923a.567.567,0,0,0,.594-.168l1.188-2.012c.087-.086.17-.167.255-.167l2.3-.5c.17,0,.34-.252.34-.419l-.256-2.349a.489.489,0,0,1,.086-.334Z" transform="translate(40)" fill="#0d6efd"/>
    <path id="Path-2" data-name="Path" d="M2.691,6.667,0,3.864,1.018,2.8,2.691,4.545,7.055,0,8,1.061Z" transform="translate(45 5)" fill="#fff"/>
  </g>
</svg>
