<svg xmlns="http://www.w3.org/2000/svg" width="14.036" height="14.036" viewBox="0 0 14.036 14.036">
  <g id="Icon" transform="translate(0.036 0.036)">
    <rect id="Icons_Tabler_Adjustments_background" data-name="Icons/Tabler/Adjustments background" width="14" height="14" fill="none"/>
    <path id="Color" d="M11.2,13.458l0-.057V5.117a2.2,2.2,0,0,1,0-4.233V.6A.6.6,0,0,1,12.4.543L12.4.6V.883a2.2,2.2,0,0,1,0,4.233V13.4a.6.6,0,0,1-1.2.057ZM10.8,3a1,1,0,1,0,1-1A1,1,0,0,0,10.8,3ZM6.4,13.458l0-.057V12.317a2.2,2.2,0,0,1,0-4.233V.6A.6.6,0,0,1,7.6.543L7.6.6V8.083a2.2,2.2,0,0,1,0,4.233V13.4a.6.6,0,0,1-1.2.057ZM6,10.2a1,1,0,1,0,1-1A1,1,0,0,0,6,10.2ZM1.6,13.458l0-.057V7.516a2.2,2.2,0,0,1,0-4.234V.6A.6.6,0,0,1,2.8.543L2.8.6V3.283a2.2,2.2,0,0,1,0,4.233V13.4a.6.6,0,0,1-1.2.057ZM1.2,5.4a1,1,0,1,0,1-1A1,1,0,0,0,1.2,5.4Z" transform="translate(-0.036 -0.036)" fill="#1e1e1e"/>
  </g>
</svg>
