<svg id="Germany" xmlns="http://www.w3.org/2000/svg" width="26" height="26" viewBox="0 0 26 26">
  <path id="Path" d="M0,1.13A13,13,0,0,0,12.191,9.609,13,13,0,0,0,24.383,1.13L12.191,0Z" transform="translate(0.809 16.391)" fill="#ffda44"/>
  <path id="Path-2" data-name="Path" d="M12.191,0A13,13,0,0,0,0,8.478l12.191,1.13,12.191-1.13A13,13,0,0,0,12.191,0Z" transform="translate(0.809)"/>
  <path id="Path-3" data-name="Path" d="M.809,0a13.047,13.047,0,0,0,0,9.043H25.191a13.048,13.048,0,0,0,0-9.043Z" transform="translate(0 8.478)" fill="#d80027"/>
</svg>
