<svg xmlns="http://www.w3.org/2000/svg" width="35.751" height="33.916" viewBox="0 0 35.751 33.916">
  <path id="Icon" d="M17.875,33.917H10.542a1.375,1.375,0,0,1-.132-2.743l.132-.006H16.5V26.494A10.544,10.544,0,0,1,7.337,16.327l0-.285v-1.01a5.042,5.042,0,1,1,0-8.981V1.375q0-.016,0-.032v0q0-.015,0-.03v0q0-.015,0-.03v0c0-.01,0-.02,0-.029v0q0-.015,0-.03v0l0-.031h0A1.376,1.376,0,0,1,8.543.01h0l.032,0h0Q8.641,0,8.708,0h18.4l.03,0h0l.029,0h0l.03,0h0l.031,0h0l.031,0h0A1.376,1.376,0,0,1,28.407,1.21h0c0,.01,0,.021,0,.031h0q.006.065.006.132V6.052a5.042,5.042,0,1,1,0,8.98v1.01A10.544,10.544,0,0,1,19.25,26.494v4.673h5.958a1.375,1.375,0,0,1,.132,2.743l-.132.006ZM10.084,16.042a7.791,7.791,0,0,0,15.579.247l0-.247V2.75H10.084V16.042Zm18.334-5.5A2.291,2.291,0,1,0,30.709,8.25,2.294,2.294,0,0,0,28.418,10.542Zm-25.667,0A2.291,2.291,0,1,0,5.042,8.25,2.294,2.294,0,0,0,2.75,10.542Z" fill="#0baaca"/>
</svg>
