<svg id="google-icon" xmlns="http://www.w3.org/2000/svg" width="14.884" height="15.187" viewBox="0 0 14.884 15.187">
  <path id="Path" d="M7.29,1.552A6.507,6.507,0,0,0,7.13,0H0V2.818H4.185A3.711,3.711,0,0,1,2.632,5.282l-.014.094L4.873,7.122l.156.016A7.425,7.425,0,0,0,7.29,1.552" transform="translate(7.594 6.21)" fill="#4285f4"/>
  <path id="Path-2" data-name="Path" d="M6.784,6.092a7.238,7.238,0,0,0,5.029-1.839L9.416,2.4a4.494,4.494,0,0,1-2.632.759A4.571,4.571,0,0,1,2.464,0L2.375.008.031,1.822,0,1.907A7.588,7.588,0,0,0,6.784,6.092" transform="translate(0.81 9.096)" fill="#34a853"/>
  <path id="Path-3" data-name="Path" d="M3.274,4.948a4.675,4.675,0,0,1-.253-1.5,4.912,4.912,0,0,1,.245-1.5l0-.1L.888,0,.81.037a7.578,7.578,0,0,0,0,6.817L3.274,4.948" transform="translate(0 4.148)" fill="#fbbc05"/>
  <path id="Path-4" data-name="Path" d="M6.784,2.936A4.209,4.209,0,0,1,9.72,4.067l2.143-2.092A7.3,7.3,0,0,0,6.784,0,7.588,7.588,0,0,0,0,4.185L2.455,6.092A4.59,4.59,0,0,1,6.784,2.936" transform="translate(0.81)" fill="#eb4335"/>
</svg>
