<?xml version="1.0" encoding="UTF-8"?>
<svg width="42px" height="42px" viewBox="0 0 42 42" version="1.1" xmlns="http://www.w3.org/2000/svg" xmlns:xlink="http://www.w3.org/1999/xlink">
    <title>google-analytics-3</title>
    <defs>
        <linearGradient x1="0%" y1="50%" x2="100%" y2="50%" id="linearGradient-1">
            <stop stop-color="#FFFFFF" stop-opacity="0.1" offset="0%"></stop>
            <stop stop-color="#FFFFFF" stop-opacity="0" offset="100%"></stop>
        </linearGradient>
        <linearGradient x1="25.1920303%" y1="25.2403846%" x2="60.7533192%" y2="96.5%" id="linearGradient-2">
            <stop stop-color="#BF360C" stop-opacity="0.2" offset="0%"></stop>
            <stop stop-color="#BF360C" stop-opacity="0.02" offset="100%"></stop>
        </linearGradient>
        <linearGradient x1="33.5322368%" y1="33.5730263%" x2="98.2203947%" y2="98.2611842%" id="linearGradient-3">
            <stop stop-color="#FFFFFF" stop-opacity="0.1" offset="0%"></stop>
            <stop stop-color="#FFFFFF" stop-opacity="0" offset="100%"></stop>
        </linearGradient>
    </defs>
    <g id="🧠-Symbols" stroke="none" stroke-width="1" fill="none" fill-rule="evenodd">
        <g id="UI/Logo/Brand/Default/Analytics" fill-rule="nonzero">
            <g id="google-analytics-3">
                <path d="M38.6035503,0 L30.9546351,0 C29.1045365,0 27.5857988,1.51873767 27.5857988,3.36883629 L27.5857988,13.2544379 L16.5128205,13.2544379 C14.7179487,13.2544379 13.2544379,14.7179487 13.2544379,16.5404339 L13.2544379,27.6134122 L3.28599606,27.6134122 C1.46351085,27.6134122 0,29.0769231 0,30.8994083 L0,38.6311637 C0,40.4536489 1.46351085,41.9171598 3.28599606,41.9723866 L38.6311637,41.9723866 C40.4812623,41.9723866 42,40.4536489 42,38.6035503 L42,3.36883629 C41.9723866,1.51873767 40.4536489,0 38.6035503,0 Z" id="Path" fill="url(#linearGradient-1)"></path>
                <path d="M38.6035503,0 L30.9546351,0 C29.1045365,0 27.5857988,1.51873767 27.5857988,3.36883629 L27.5857988,13.2544379 L16.5128205,13.2544379 C14.7179487,13.2544379 13.2544379,14.7179487 13.2544379,16.5404339 L13.2544379,27.6134122 L3.28599606,27.6134122 C1.46351085,27.6134122 0,29.0769231 0,30.8994083 L0,38.6311637 C0,40.4536489 1.46351085,41.9171598 3.28599606,41.9723866 L38.6311637,41.9723866 C40.4812623,41.9723866 42,40.4536489 42,38.6035503 L42,3.36883629 C41.9723866,1.51873767 40.4536489,0 38.6035503,0 Z" id="Path" fill="url(#linearGradient-1)"></path>
                <g id="Group">
                    <path d="M38.6035503,0 L31.0098619,0 C29.1597633,0 27.6410256,1.51873767 27.6410256,3.36883629 L27.6410256,41.9723866 L38.6035503,41.9723866 C40.4536489,41.9723866 41.9723866,40.4536489 41.9723866,38.6035503 L41.9723866,3.36883629 C41.9723866,1.51873767 40.4536489,0 38.6035503,0 Z" id="Path" fill="#F57C00"></path>
                    <path d="M13.2544379,16.5680473 L13.2544379,27.6134122 L3.31360947,27.6134122 C1.49112426,27.6134122 0,29.1045365 0,30.9270217 L0,38.6587771 C0,40.4812623 1.49112426,41.9723866 3.31360947,41.9723866 L27.6134122,41.9723866 L27.6134122,13.2544379 L16.5680473,13.2544379 C14.7455621,13.2544379 13.2544379,14.7455621 13.2544379,16.5680473 Z" id="Path" fill="#FFC107"></path>
                </g>
                <path d="M27.6134122,13.2544379 L27.6134122,41.9723866 L38.5759369,41.9723866 C40.4260355,41.9723866 41.9447732,40.4536489 41.9447732,38.6035503 L41.9447732,27.6134122 L27.6134122,13.2544379 Z" id="Path" fill="url(#linearGradient-2)"></path>
                <path d="M16.5680473,13.530572 L27.6134122,13.530572 L27.6134122,13.2544379 L16.5680473,13.2544379 C14.7455621,13.2544379 13.2544379,14.7455621 13.2544379,16.5680473 L13.2544379,16.8441815 C13.2544379,15.0216963 14.7455621,13.530572 16.5680473,13.530572 Z" id="Path" fill="#FFFFFF" opacity="0.2"></path>
                <path d="M3.31360947,27.8895464 L13.2544379,27.8895464 L13.2544379,27.6134122 L3.31360947,27.6134122 C1.49112426,27.6134122 0,29.1045365 0,30.9270217 L0,31.2031558 C0,29.3806706 1.49112426,27.8895464 3.31360947,27.8895464 Z" id="Path" fill="#FFFFFF" opacity="0.2"></path>
                <path d="M38.6035503,0 L31.0098619,0 C29.1597633,0 27.6410256,1.51873767 27.6410256,3.36883629 L27.6410256,3.64497041 C27.6410256,1.79487179 29.1597633,0.276134122 31.0098619,0.276134122 L38.6035503,0.276134122 C40.4536489,0.276134122 41.9723866,1.79487179 41.9723866,3.64497041 L41.9723866,3.36883629 C41.9723866,1.51873767 40.4536489,0 38.6035503,0 Z" id="Path" fill="#FFFFFF" opacity="0.2"></path>
                <path d="M38.6035503,41.6962525 L3.31360947,41.6962525 C1.49112426,41.6962525 0,40.2051282 0,38.382643 L0,38.6587771 C0,40.4812623 1.49112426,41.9723866 3.31360947,41.9723866 L38.5759369,41.9723866 C40.4260355,41.9723866 41.9451439,40.4536489 41.9451439,38.6035503 L41.9451439,38.3274162 C41.9723866,40.1775148 40.4536489,41.6962525 38.6035503,41.6962525 Z" id="Path" fill="#BF360C" opacity="0.2"></path>
                <path d="M38.6035503,0 L31.0098619,0 C29.1597633,0 27.6410256,1.51873767 27.6410256,3.36883629 L27.6410256,13.2544379 L16.5956607,13.2544379 C14.7731755,13.2544379 13.2820513,14.7455621 13.2820513,16.5680473 L13.2820513,27.6134122 L3.31360947,27.6134122 C1.49112426,27.6134122 0,29.1045365 0,30.9270217 L0,38.6587771 C0,40.4812623 1.49112426,41.9723866 3.31360947,41.9723866 L38.6035503,41.9723866 C40.4536489,41.9723866 41.9723866,40.4536489 41.9723866,38.6035503 L41.9723866,3.36883629 C41.9723866,1.51873767 40.4536489,0 38.6035503,0 Z" id="Path" fill="url(#linearGradient-3)"></path>
            </g>
        </g>
    </g>
</svg>