<svg id="Icons_Tabler_Settings" data-name="Icons/Tabler/Settings" xmlns="http://www.w3.org/2000/svg" width="24" height="24" viewBox="0 0 24 24">
  <rect id="Icons_Tabler_apps_background" data-name="Icons/Tabler/apps background" width="24" height="24" fill="none"/>
  <path id="Color" d="M16.115,24a2.4,2.4,0,0,1-2.4-2.4V16.115a2.4,2.4,0,0,1,2.4-2.4H21.6a2.4,2.4,0,0,1,2.4,2.4V21.6A2.4,2.4,0,0,1,21.6,24Zm-.343-7.885V21.6a.343.343,0,0,0,.343.343H21.6a.343.343,0,0,0,.343-.343V16.115a.343.343,0,0,0-.343-.343H16.115A.343.343,0,0,0,15.772,16.115ZM2.4,24A2.4,2.4,0,0,1,0,21.6V16.115a2.4,2.4,0,0,1,2.4-2.4H7.885a2.4,2.4,0,0,1,2.4,2.4V21.6a2.4,2.4,0,0,1-2.4,2.4Zm-.343-7.885V21.6a.343.343,0,0,0,.343.343H7.885a.343.343,0,0,0,.343-.343V16.115a.343.343,0,0,0-.343-.343H2.4A.343.343,0,0,0,2.057,16.115Zm14.058-5.829a2.4,2.4,0,0,1-2.4-2.4V2.4a2.4,2.4,0,0,1,2.4-2.4H21.6A2.4,2.4,0,0,1,24,2.4V7.885a2.4,2.4,0,0,1-2.4,2.4ZM15.772,2.4V7.885a.343.343,0,0,0,.343.343H21.6a.343.343,0,0,0,.343-.343V2.4a.343.343,0,0,0-.343-.343H16.115A.343.343,0,0,0,15.772,2.4ZM2.4,10.286A2.4,2.4,0,0,1,0,7.885V2.4A2.4,2.4,0,0,1,2.4,0H7.885a2.4,2.4,0,0,1,2.4,2.4V7.885a2.4,2.4,0,0,1-2.4,2.4ZM2.057,2.4V7.885a.343.343,0,0,0,.343.343H7.885a.343.343,0,0,0,.343-.343V2.4a.343.343,0,0,0-.343-.343H2.4A.343.343,0,0,0,2.057,2.4Z" transform="translate(0 0)" fill="#1e1e1e"/>
</svg>
