<svg id="Icons_Tabler_Share" data-name="Icons/Tabler/Share" xmlns="http://www.w3.org/2000/svg" width="26" height="26" viewBox="0 0 26 26">
  <g id="apple" transform="translate(2.476 0)">
    <path id="Shape" d="M0,14.207c0-5.17,3.229-7.882,6.258-7.882,1.97,0,3.5,1.136,4.521,1.136.879,0,2.51-1.208,4.633-1.208a5.8,5.8,0,0,1,5.092,2.6,5.645,5.645,0,0,0-2.812,4.926,5.789,5.789,0,0,0,3.5,5.291s-2.449,6.891-5.756,6.891c-1.519,0-2.7-1.023-4.3-1.023C9.508,24.937,7.89,26,6.836,26,3.815,26,0,19.462,0,14.207Zm10.562-8.23a4.828,4.828,0,0,1,1.132-3.714A5.565,5.565,0,0,1,15.778,0a5.551,5.551,0,0,1-1.344,4.156A4.61,4.61,0,0,1,10.9,6,2.212,2.212,0,0,1,10.562,5.977Z" fill="#272727"/>
  </g>
</svg>
