<svg id="Icons_Tabler_Share" data-name="Icons/Tabler/Share" xmlns="http://www.w3.org/2000/svg" width="16" height="16" viewBox="0 0 16 16">
  <rect id="Icons_Tabler_Code02_background" data-name="Icons/Tabler/Code02 background" width="16" height="16" fill="none"/>
  <path id="Combined_Shape" data-name="Combined Shape" d="M2.256,16A2.259,2.259,0,0,1,0,13.744V2.256A2.259,2.259,0,0,1,2.256,0H8a.613.613,0,0,1,.4.148l0,0L8.41.157l0,0,.005.005L8.425.17l0,0L8.435.18l4.1,4.1a.614.614,0,0,1,.185.44v9.026A2.259,2.259,0,0,1,10.462,16ZM1.231,2.256V13.744a1.026,1.026,0,0,0,1.025,1.025h8.205a1.027,1.027,0,0,0,1.026-1.025V5.333H8.821A1.436,1.436,0,0,1,7.387,3.979l0-.082V1.231H2.256A1.026,1.026,0,0,0,1.231,2.256ZM8.616,3.9a.206.206,0,0,0,.168.2l.037,0h1.8l-2-2Zm-.891,8.756a.615.615,0,0,1-.3-.768l.025-.058.683-1.366L7.449,9.1A.616.616,0,0,1,7.67,8.3l.055-.031a.615.615,0,0,1,.795.22l.031.055.821,1.641a.617.617,0,0,1,.029.484l-.029.067L8.55,12.378a.614.614,0,0,1-.825.275ZM4.2,12.433l-.031-.055-.821-1.641a.617.617,0,0,1-.029-.484l.029-.067.821-1.641a.615.615,0,0,1,1.126.492L5.269,9.1l-.684,1.366.684,1.366a.615.615,0,0,1-.22.794l-.055.031a.615.615,0,0,1-.795-.22Z" transform="translate(2)" fill="#495057"/>
</svg>
