<svg id="Icons_Tabler_Check_Heavy" data-name="Icons/Tabler/Check Heavy" xmlns="http://www.w3.org/2000/svg" width="16" height="16" viewBox="0 0 16 16">
  <rect id="Icons_Tabler_Key_background" data-name="Icons/Tabler/Key background" width="16" height="16" fill="none"/>
  <path id="Color" d="M0,10.742A4.341,4.341,0,0,1,6.889,7.227L13,1.119l0,0,0,0,.91-.91a.686.686,0,0,1,1.02.914l-.05.056-.429.429L15.8,2.944a.686.686,0,0,1-.914,1.02l-.056-.05L13.486,2.57,11.713,4.343l1.344,1.343a.686.686,0,0,1-.914,1.02l-.055-.049L10.743,5.312,7.859,8.2A4.342,4.342,0,1,1,0,10.742Zm1.372,0A2.971,2.971,0,1,0,4.343,7.772,2.975,2.975,0,0,0,1.372,10.742Z" fill="#6c757d"/>
</svg>
