<svg id="Icons_Tabler_Notification" data-name="Icons/Tabler/Notification" xmlns="http://www.w3.org/2000/svg" width="13.419" height="13.419" viewBox="0 0 13.419 13.419">
  <rect id="Icons_Tabler_Dots_background" data-name="Icons/Tabler/Dots background" width="13.419" height="13.419" fill="none"/>
  <path id="Color" d="M0,10.4a1.342,1.342,0,1,1,1.342,1.342A1.344,1.344,0,0,1,0,10.4Zm1.15,0a.192.192,0,1,0,.192-.192A.192.192,0,0,0,1.15,10.4ZM0,5.871A1.342,1.342,0,1,1,1.342,7.213,1.344,1.344,0,0,1,0,5.871Zm1.15,0a.192.192,0,1,0,.192-.192A.192.192,0,0,0,1.15,5.871ZM0,1.342A1.342,1.342,0,1,1,1.342,2.684,1.344,1.344,0,0,1,0,1.342Zm1.15,0a.192.192,0,1,0,.192-.192A.192.192,0,0,0,1.15,1.342Z" transform="translate(5.368 0.839)" fill="#6c757d"/>
</svg>
