<svg xmlns="http://www.w3.org/2000/svg" width="16.027" height="16" viewBox="0 0 16.027 16">
  <g id="Icons_Tabler_Refresh" data-name="Icons/Tabler/Refresh" transform="translate(0 0)">
    <rect id="Icons_Tabler_Refresh_background" data-name="Icons/Tabler/Refresh background" width="16" height="16" fill="none"/>
    <path id="Color" d="M7,15.933A8.105,8.105,0,0,1,.006,9.011a.687.687,0,0,1,1.361-.19A6.731,6.731,0,0,0,13.76,11.435H11.677a.687.687,0,0,1-.684-.621l0-.066a.687.687,0,0,1,.621-.684l.066,0H15.34a.687.687,0,0,1,.684.621l0,.067v3.663a.686.686,0,0,1-1.37.066l0-.066V12.573A8.1,8.1,0,0,1,7,15.933Zm7.662-8.754A6.731,6.731,0,0,0,2.267,4.565H4.351a.687.687,0,0,1,.683.621l0,.066a.687.687,0,0,1-.621.684l-.066,0H.687A.686.686,0,0,1,0,5.319l0-.067V1.589a.687.687,0,0,1,1.371-.067l0,.067V3.426A8.105,8.105,0,0,1,16.02,6.989a.687.687,0,1,1-1.361.189Z" fill="#0d6efd"/>
  </g>
</svg>
