<svg id="Icons_Tabler_Lock_Closed" data-name="Icons/Tabler/Lock Closed" xmlns="http://www.w3.org/2000/svg" width="16" height="16" viewBox="0 0 16 16">
  <rect id="Icons_Tabler_Lock_Closed_background" data-name="Icons/Tabler/Lock Closed background" width="16" height="16" fill="none"/>
  <path id="Color" d="M2.164,16A2.214,2.214,0,0,1,0,13.743V8.82A2.215,2.215,0,0,1,2.164,6.564h.2V3.9A3.821,3.821,0,0,1,6.1,0,3.815,3.815,0,0,1,9.837,3.78l0,.117V6.564h.2A2.215,2.215,0,0,1,12.2,8.82v4.923A2.214,2.214,0,0,1,10.036,16ZM1.181,8.82v4.923a1.006,1.006,0,0,0,.984,1.026h7.871a1.006,1.006,0,0,0,.984-1.026V8.82a1.006,1.006,0,0,0-.984-1.025H2.164A1.006,1.006,0,0,0,1.181,8.82ZM8.658,6.564V3.9A2.613,2.613,0,0,0,6.1,1.231,2.609,2.609,0,0,0,3.543,3.8l0,.1V6.564ZM4.722,11.281A1.409,1.409,0,0,1,6.1,9.846a1.437,1.437,0,0,1,0,2.872A1.41,1.41,0,0,1,4.722,11.281Zm1.181,0a.2.2,0,1,0,.2-.2A.2.2,0,0,0,5.9,11.281Z" transform="translate(2)" fill="#6c757d"/>
</svg>
