<?xml version="1.0" encoding="UTF-8"?>
<svg width="12px" height="10px" viewBox="0 0 17 14" version="1.1" xmlns="http://www.w3.org/2000/svg" xmlns:xlink="http://www.w3.org/1999/xlink">
    <title>Path</title>
    <g id="🧠-Symbols" stroke="none" stroke-width="1" fill="none" fill-rule="evenodd">
        <g id="UI/Logo/Brand/Circle/Medium" transform="translate(-13.000000, -14.000000)" fill="#151515" fill-rule="nonzero">
            <path d="M15.0158626,16.856 C15.0369923,16.6395111 14.9574211,16.4255328 14.8016107,16.2798462 L13.2141221,14.2961538 L13.2141221,14 L18.1428244,14 L21.9522519,22.6666731 L25.3016412,14 L30,14 L30,14.2962885 L28.642855,15.6460769 C28.5258591,15.7385862 28.4678186,15.8906585 28.4920611,16.0411731 L28.4920611,25.9588269 C28.4678186,26.1093415 28.5258591,26.2614138 28.642855,26.3539231 L29.9682061,27.7037115 L29.9682061,28 L23.3016107,28 L23.3016107,27.7037115 L24.6745878,26.3209423 C24.8095496,26.1809423 24.8095496,26.1398846 24.8095496,25.9259808 L24.8095496,17.9095 L20.9920763,27.9670192 L20.4761069,27.9670192 L16.0317099,17.9095 L16.0317099,24.6502308 C15.9946772,24.9336366 16.0854197,25.2189557 16.2777557,25.4238654 L18.0634046,27.6707308 L18.0634046,27.9670192 L13,27.9670192 L13,27.6708654 L14.7856489,25.4238654 C14.9766067,25.2186286 15.0620753,24.931411 15.0158626,24.6502308 L15.0158626,16.856 Z" id="Path"></path>
        </g>
    </g>
</svg>