<svg id="Icons_Tabler_Bolt" data-name="Icons/Tabler/Bolt" xmlns="http://www.w3.org/2000/svg" width="16" height="16" viewBox="0 0 16 16">
  <rect id="Icons_Tabler_Page_background" data-name="Icons/Tabler/Page background" width="16" height="16" fill="none"/>
  <path id="Color" d="M1.975,14A1.977,1.977,0,0,1,0,12.026V1.975A1.977,1.977,0,0,1,1.975,0h5.04a.535.535,0,0,1,.249.069l.007,0h0a.534.534,0,0,1,.109.084l3.574,3.575a.536.536,0,0,1,.163.289h0l0,.013h0l0,.013v0l0,.011v.053s0,.009,0,.014v7.9A1.977,1.977,0,0,1,9.154,14Zm-.9-12.026V12.026a.9.9,0,0,0,.9.9H9.154a.9.9,0,0,0,.9-.9V4.667H7.718a1.255,1.255,0,0,1-1.248-1.12L6.461,3.41V1.077H1.975A.9.9,0,0,0,1.077,1.975ZM7.538,3.41a.179.179,0,0,0,.122.17l.057.01H9.29L7.538,1.838Z" transform="translate(2 1)" fill="#1e1e1e"/>
</svg>
