<svg xmlns="http://www.w3.org/2000/svg" width="24" height="24" viewBox="0 0 24 24">
  <g id="Icons_Tabler_Photo" data-name="Icons/Tabler/Photo" transform="translate(0)">
    <rect id="Icons_Tabler_Photo_background" data-name="Icons/Tabler/Photo background" width="24" height="24" fill="none"/>
    <path id="Combined_Shape" data-name="Combined Shape" d="M5.144,24A5.149,5.149,0,0,1,0,18.857v-2.73c0-.008,0-.016,0-.024V5.144A5.149,5.149,0,0,1,5.144,0H18.857A5.149,5.149,0,0,1,24,5.144V18.857A5.149,5.149,0,0,1,18.857,24ZM2.057,18.857a3.09,3.09,0,0,0,3.086,3.086H18.857a3.09,3.09,0,0,0,3.086-3.086V16.54l-2.427-2.427A1.722,1.722,0,0,0,16.949,14l-.108.1-.644.643,2.016,2.016a1.029,1.029,0,0,1-1.372,1.53l-.082-.076L14.016,15.47l-4.1-4.1a1.724,1.724,0,0,0-2.566-.113l-.108.1L2.057,16.54Zm18.757-6.344.142.131.987.987V5.144a3.09,3.09,0,0,0-3.086-3.086H5.144A3.09,3.09,0,0,0,2.057,5.144v8.487L5.8,9.887a3.774,3.774,0,0,1,5.414-.117l.142.131,3.387,3.387.658-.658a3.773,3.773,0,0,1,5.414-.117Zm-5.728-6a1.028,1.028,0,0,1,.929-1.023l.113-.005a1.029,1.029,0,0,1,.1,2.053l-.112,0A1.028,1.028,0,0,1,15.086,6.514Z" transform="translate(0)" fill="#495057"/>
  </g>
</svg>
