<svg xmlns="http://www.w3.org/2000/svg" width="28.417" height="17.417" viewBox="0 0 28.417 17.417">
  <path id="Arrow" d="M18.736,17.014a1.375,1.375,0,0,1-.1-1.832l.1-.112,4.986-4.986H1.375a1.375,1.375,0,0,1-.132-2.744l.132-.006H23.722L18.736,2.347A1.375,1.375,0,0,1,20.569.3l.112.1,7.334,7.334h0l.021.021,0,0,0,0,.013.014.006.007.006.007.006.007.01.011.009.011.013.015.009.011.012.016.008.011.012.016.008.011.012.016.007.011.012.017.007.01.012.018.006.01L28.222,8l.006.009.012.021,0,.007.014.026,0,0a1.364,1.364,0,0,1,.061.134h0l.01.026,0,.007,0,.014.006.019,0,.01.007.022,0,.007.007.025v0q.008.028.015.056v0l.006.028v0l.005.028v0l0,.027v0l0,.023v.01l0,.019,0,.014,0,.017,0,.016h0a1.384,1.384,0,0,1,0,.221v0c0,.01,0,.019,0,.029v.005l0,.026v.007l0,.023v.01l0,.02,0,.012,0,.016,0,.016,0,.014,0,.017,0,.015,0,.016,0,.016,0,.014-.006.023,0,.008V9.1l-.008.027,0,.008-.007.022,0,.013-.006.017-.006.015-.006.014-.007.017-.005.012-.008.019,0,.009-.01.021,0,.006-.011.023v0a1.371,1.371,0,0,1-.254.351L20.68,17.014a1.374,1.374,0,0,1-1.944,0Z" transform="translate(0 0)" fill="#1e1e1e"/>
</svg>
