<svg xmlns="http://www.w3.org/2000/svg" width="14.001" height="14.001" viewBox="0 0 14.001 14.001">
  <g id="Icon" transform="translate(0 0)">
    <rect id="Icons_Tabler_Send_background" data-name="Icons/Tabler/Send background" width="14" height="14" fill="none"/>
    <path id="Color" d="M7.728,13.537,5.306,8.694.535,6.309A.919.919,0,0,1,0,5.541l0-.067a.918.918,0,0,1,.476-.8l.06-.03.041-.017L13.291.031l.026-.009.012,0,.032-.008L13.4.005H13.4l.03,0h.076l.03,0h.008l.009,0a.531.531,0,0,1,.089.022h0l0,0a.528.528,0,0,1,.316.316h0a.53.53,0,0,1,.025.1v0h0A.534.534,0,0,1,14,.529c0,.01,0,.019,0,.029v0q0,.02,0,.039v0c0,.017-.006.035-.01.053v0a.53.53,0,0,1-.017.055L9.378,13.424l-.017.041a.919.919,0,0,1-1.633.072Zm.776-.814L12.165,2.585,6.345,8.4ZM1.278,5.5,5.6,7.655l5.819-5.82Z" transform="translate(0 0)" fill="#fff"/>
  </g>
</svg>
