<svg id="Icons_Tabler_Security" data-name="Icons/Tabler/Security" xmlns="http://www.w3.org/2000/svg" width="14" height="14" viewBox="0 0 14 14">
  <rect id="Icons_Tabler_Public_background" data-name="Icons/Tabler/Public background" width="14" height="14" fill="none"/>
  <path id="Combined_Shape" data-name="Combined Shape" d="M6.718,13.995a.54.54,0,0,1-.21-.011,7,7,0,0,1,0-13.966.54.54,0,0,1,.21-.011C6.811,0,6.906,0,7,0s.189,0,.282.006a.54.54,0,0,1,.21.012,7,7,0,0,1,0,13.966.54.54,0,0,1-.21.011C7.189,14,7.095,14,7,14S6.811,14,6.718,13.995ZM7,12.923h.056a11.655,11.655,0,0,0,1.3-3.23H5.643a11.655,11.655,0,0,0,1.3,3.23Zm1.371-.16a5.948,5.948,0,0,0,3.9-3.07H9.461A12.722,12.722,0,0,1,8.371,12.763Zm-2.742,0a12.719,12.719,0,0,1-1.09-3.07H1.725A5.947,5.947,0,0,0,5.629,12.763ZM12.7,8.615a5.939,5.939,0,0,0,0-3.23H9.645a12.762,12.762,0,0,1,0,3.23Zm-4.14,0a11.683,11.683,0,0,0,0-3.23H5.441a11.683,11.683,0,0,0,0,3.23Zm-4.2,0a12.759,12.759,0,0,1,0-3.23H1.3a5.939,5.939,0,0,0,0,3.23Zm7.92-4.308a5.948,5.948,0,0,0-3.9-3.07,12.722,12.722,0,0,1,1.09,3.07Zm-3.918,0a11.655,11.655,0,0,0-1.3-3.23H6.944a11.655,11.655,0,0,0-1.3,3.23Zm-3.818,0a12.719,12.719,0,0,1,1.09-3.07,5.947,5.947,0,0,0-3.9,3.07Z" fill="#6c757d"/>
</svg>
