<svg xmlns="http://www.w3.org/2000/svg" width="18.047" height="18.047" viewBox="0 0 18.047 18.047">
  <g id="Icons_Tabler_Paperclip_Copy" data-name="Icons/Tabler/Paperclip Copy" transform="translate(0.047 0.047)">
    <rect id="Icons_Tabler_Adjustments_background" data-name="Icons/Tabler/Adjustments background" width="18" height="18" fill="none"/>
    <path id="Color" d="M14.4,17.3l0-.074V6.579a2.829,2.829,0,0,1,0-5.443V.772A.772.772,0,0,1,15.94.7l0,.074v.364a2.829,2.829,0,0,1,0,5.443v10.65A.771.771,0,0,1,14.4,17.3ZM13.885,3.858a1.285,1.285,0,1,0,1.286-1.286A1.287,1.287,0,0,0,13.885,3.858ZM8.232,17.3l0-.074V15.836a2.829,2.829,0,0,1,0-5.443V.772A.771.771,0,0,1,9.768.7l0,.074v9.621a2.829,2.829,0,0,1,0,5.443v1.393a.772.772,0,0,1-1.54.074Zm-.517-4.188A1.285,1.285,0,1,0,9,11.829,1.287,1.287,0,0,0,7.714,13.115ZM2.06,17.3l0-.074V9.664a2.829,2.829,0,0,1,0-5.443V.772A.771.771,0,0,1,3.6.7l0,.074V4.221a2.829,2.829,0,0,1,0,5.443v7.565a.772.772,0,0,1-1.54.074ZM1.543,6.943A1.285,1.285,0,1,0,2.829,5.657,1.287,1.287,0,0,0,1.543,6.943Z" transform="translate(-0.047 -0.047)" fill="#6c757d"/>
  </g>
</svg>
