<svg id="United_States" data-name="United States" xmlns="http://www.w3.org/2000/svg" width="26" height="26" viewBox="0 0 26 26">
  <circle id="Oval" cx="13" cy="13" r="13" fill="#f0f0f0"/>
  <g id="Group" transform="translate(0.448 2.826)">
    <path id="Path" d="M0,3.391H13.565A13.014,13.014,0,0,0,13.117,0H0Z" transform="translate(11.987 6.783)" fill="#d80027"/>
    <path id="Path-2" data-name="Path" d="M0,3.391H11.657A13.069,13.069,0,0,0,8.657,0H0Z" transform="translate(11.987 0)" fill="#d80027"/>
    <path id="Path-3" data-name="Path" d="M8.092,2.826A12.944,12.944,0,0,0,16.185,0H0A12.944,12.944,0,0,0,8.092,2.826Z" transform="translate(4.46 20.348)" fill="#d80027"/>
    <path id="Path-4" data-name="Path" d="M1.46,3.391H23.644A12.922,12.922,0,0,0,25.1,0H0A12.922,12.922,0,0,0,1.46,3.391Z" transform="translate(0 13.565)" fill="#d80027"/>
  </g>
  <path id="Shape" d="M0,13a13.186,13.186,0,0,1,.1-1.621l.66-.48,1.1.8-.421-1.3,1.1-.8H1.182L.812,8.468Q1,7.953,1.237,7.459l.625.454L1.528,6.882q.15-.282.314-.555l.7-.51H2.164a13.081,13.081,0,0,1,2.521-2.81L4.322,4.126l1.1-.8,1.1.8L6.1,2.831l1.1-.8H6.022A12.939,12.939,0,0,1,13,0V13Z" fill="#0052b4"/>
</svg>
