<svg id="Icon" xmlns="http://www.w3.org/2000/svg" width="20" height="20" viewBox="0 0 20 20">
  <rect id="Icons_Tabler_Video_background" data-name="Icons/Tabler/Video background" width="20" height="20" fill="none"/>
  <path id="Color" d="M2.82,13.847A2.824,2.824,0,0,1,0,11.026V2.82A2.824,2.824,0,0,1,2.82,0h8.206a2.824,2.824,0,0,1,2.82,2.82v.807L17.4,1.85A1.8,1.8,0,0,1,20,3.455v6.938a1.795,1.795,0,0,1-1.794,1.793A1.805,1.805,0,0,1,17.4,12l-3.556-1.778v.807a2.824,2.824,0,0,1-2.82,2.82ZM1.539,2.82v8.206A1.283,1.283,0,0,0,2.82,12.308h8.206a1.283,1.283,0,0,0,1.281-1.281V2.82a1.283,1.283,0,0,0-1.281-1.281H2.82A1.283,1.283,0,0,0,1.539,2.82Zm16.551,7.8a.271.271,0,0,0,.115.026.257.257,0,0,0,.088-.015l.047-.023a.259.259,0,0,0,.122-.217V3.455a.253.253,0,0,0-.122-.217A.249.249,0,0,0,18.2,3.2a.258.258,0,0,0-.115.028L13.847,5.347V8.5Z" transform="translate(0 2.5)" fill="#495057"/>
</svg>
