<svg id="Icon" xmlns="http://www.w3.org/2000/svg" width="32.083" height="32.083" viewBox="0 0 32.083 32.083">
  <path id="Icon-2" data-name="Icon" d="M5.042,32.083A5.029,5.029,0,0,1,0,27.26l0-.219v-22A5.029,5.029,0,0,1,4.823,0l.219,0H23.375a3.208,3.208,0,0,1,3.2,3.027l.005.182V7.332h.459a3.208,3.208,0,0,1,3.2,3.027l.005.182v4.125h.458a1.369,1.369,0,0,1,1.369,1.243l.006.132v7.333a1.368,1.368,0,0,1-1.243,1.369l-.132.006H30.25v4.125a3.209,3.209,0,0,1-3.026,3.2l-.183,0ZM2.75,27.041a2.3,2.3,0,0,0,2.135,2.287l.157.005h22a.458.458,0,0,0,.451-.376l.008-.083V24.75H23.375a5.042,5.042,0,0,1-.219-10.079l.219,0H27.5V10.542a.458.458,0,0,0-.376-.451l-.083-.007h-22a5,5,0,0,1-2.292-.55ZM29.332,22V17.417H23.375a2.3,2.3,0,0,0-2.287,2.135l0,.157a2.3,2.3,0,0,0,2.135,2.286l.157.005h5.957ZM2.75,5.042A2.3,2.3,0,0,0,4.885,7.328l.157.005H23.833V3.209a.458.458,0,0,0-.375-.451l-.083-.007H5.042A2.294,2.294,0,0,0,2.75,5.042Z" fill="#dd5498"/>
</svg>
