<svg id="Icons_Tabler_Share" data-name="Icons/Tabler/Share" xmlns="http://www.w3.org/2000/svg" width="16" height="16" viewBox="0 0 16 16">
  <rect id="Icons_Tabler_File_background" data-name="Icons/Tabler/File background" width="16" height="16" fill="none"/>
  <path id="Combined_Shape" data-name="Combined Shape" d="M2.256,16A2.259,2.259,0,0,1,0,13.744V2.256A2.259,2.259,0,0,1,2.256,0H8a.613.613,0,0,1,.4.148l0,0L8.41.157l0,0,.005.005L8.425.17l0,0L8.435.18l4.1,4.1a.614.614,0,0,1,.185.44v9.026A2.259,2.259,0,0,1,10.462,16ZM1.231,2.256V13.744a1.026,1.026,0,0,0,1.025,1.025h8.205a1.027,1.027,0,0,0,1.026-1.025V5.333H8.821A1.436,1.436,0,0,1,7.387,3.979l0-.082V1.231H2.256A1.026,1.026,0,0,0,1.231,2.256ZM8.616,3.9a.206.206,0,0,0,.168.2l.037,0h1.8l-2-2ZM3.9,12.718a.615.615,0,0,1-.059-1.228l.059,0H8.821a.615.615,0,0,1,.059,1.228l-.059,0Zm0-3.282a.615.615,0,0,1-.059-1.228l.059,0H8.821a.615.615,0,0,1,.059,1.228l-.059,0Zm0-3.281a.616.616,0,0,1-.059-1.228l.059,0h.821a.615.615,0,0,1,.059,1.228l-.059,0Z" transform="translate(2)" fill="#495057"/>
</svg>
